<svg id="Grupo_30427" data-name="Grupo 30427" xmlns="http://www.w3.org/2000/svg" xmlns:xlink="http://www.w3.org/1999/xlink" width="606.561" height="549.91" viewBox="0 0 606.561 549.91">
  <defs>
    <clipPath id="clip-path">
      <rect id="Rectángulo_3916" data-name="Rectángulo 3916" width="606.561" height="549.91" fill="none"/>
    </clipPath>
    <clipPath id="clip-path-3">
      <rect id="Rectángulo_3912" data-name="Rectángulo 3912" width="48.678" height="48.664" transform="translate(142.48 203.307)" fill="none"/>
    </clipPath>
    <clipPath id="clip-path-4">
      <rect id="Rectángulo_3914" data-name="Rectángulo 3914" width="5.436" height="5.442" transform="translate(163.843 207.599)" fill="none"/>
    </clipPath>
  </defs>
  <g id="Grupo_30426" data-name="Grupo 30426" clip-path="url(#clip-path)">
    <g id="Grupo_30425" data-name="Grupo 30425">
      <g id="Grupo_30424" data-name="Grupo 30424" clip-path="url(#clip-path)">
        <path id="Trazado_25878" data-name="Trazado 25878" d="M269.044,119.417c-1.912-6.538-12.4-15.623-12.4-15.623A36.677,36.677,0,0,1,279.865,38.65h-.05a36.677,36.677,0,0,1,23.237,65.144s-10.493,9.085-12.4,15.623Z" fill="#f1c555"/>
        <path id="Trazado_25879" data-name="Trazado 25879" d="M275.724,127.039a.986.986,0,0,1-.989-1c-.007-12.945-.188-30.736-.6-43.623-8.167-1-11.864-3.894-13.543-6.333a8.888,8.888,0,0,1-.911-8.213,7.27,7.27,0,0,1,5.127-4.688c3.589-1,7.949.108,9.5,1.37.511.407,1.211.985,1.748,16.072.938.08,1.906.129,2.914.151,1.666.053,3.254.046,4.749-.022.246-8.193.7-14.65,1.5-16.2a3.866,3.866,0,0,1,3.607-2.224c4.005,0,9.319,4.9,11.582,9.284a5.374,5.374,0,0,1-.045,5.555c-1.9,3.025-7.126,4.926-14.716,5.469-.308,12.76-.223,30.074,0,43.235a.991.991,0,1,1-1.982.031c-.063-3.742-.42-26.385,0-43.16-1.5.052-3.088.058-4.747.012-.98-.012-1.912-.065-2.8-.142.122,3.711.231,8.22.324,13.657.252,14.83.264,29.633.264,29.77a.986.986,0,0,1-.985,1m13.1-62.726a1.914,1.914,0,0,0-1.844,1.147c-.647,1.255-1.051,7.146-1.281,15.182,6.768-.486,11.452-2.078,12.983-4.517a3.4,3.4,0,0,0-.039-3.6c-2.176-4.222-6.944-8.217-9.819-8.217m-21.025.459a9.143,9.143,0,0,0-2.455.31,5.32,5.32,0,0,0-3.8,3.447,6.858,6.858,0,0,0,.686,6.428c1.919,2.8,6.043,4.689,11.834,5.451-.272-7.655-.637-13.236-1.1-14.391a10.3,10.3,0,0,0-5.16-1.245" fill="#fff"/>
        <path id="Trazado_25880" data-name="Trazado 25880" d="M286.116,131.83a5.2,5.2,0,0,1-5.2,5.193h-2.146a5.194,5.194,0,1,1,0-10.388h2.146a5.2,5.2,0,0,1,5.2,5.195" fill="#2b3d8f"/>
        <path id="Trazado_25881" data-name="Trazado 25881" d="M268.879,119.122v8.346c0,2.948,1.91,5.349,4.273,5.349h13.4c2.351,0,4.263-2.4,4.263-5.349v-8.346Z" fill="#b0d4e5"/>
        <path id="Trazado_25882" data-name="Trazado 25882" d="M280,28.94a.985.985,0,0,1-.982-.993V.989a.987.987,0,1,1,1.974,0V27.947a.989.989,0,0,1-.992.993" fill="#f5a237"/>
        <path id="Trazado_25883" data-name="Trazado 25883" d="M310.212,39.1a.961.961,0,0,1-.535-.152.982.982,0,0,1-.3-1.36l14.667-22.631a.99.99,0,0,1,1.662,1.077L311.043,38.651a.973.973,0,0,1-.831.448" fill="#f5a237"/>
        <path id="Trazado_25884" data-name="Trazado 25884" d="M328.73,68.343a.988.988,0,0,1-.354-1.912l25.165-9.67a.985.985,0,1,1,.706,1.839L329.09,68.279a1.038,1.038,0,0,1-.36.064" fill="#f5a237"/>
        <path id="Trazado_25885" data-name="Trazado 25885" d="M249.482,39.1a.97.97,0,0,1-.828-.448L233.987,16.033a.99.99,0,0,1,1.661-1.077l14.668,22.631a.979.979,0,0,1-.834,1.512" fill="#f5a237"/>
        <path id="Trazado_25886" data-name="Trazado 25886" d="M230.967,68.343a.946.946,0,0,1-.352-.064L205.448,58.6a.985.985,0,1,1,.708-1.839l25.169,9.67a.99.99,0,0,1-.358,1.912" fill="#f5a237"/>
        <path id="Trazado_25887" data-name="Trazado 25887" d="M385.692,347.141l-.639-8.237-35.516-8.037-5.7,3.257-15.484-4.817c-13.366-4.156-36.956-3.645-52.7,1.136l-93.416,28.386,45.033,14c-10.93,3.324-12.268,8.352-2.985,11.239s25.657,2.534,36.59-.788l44.588,13.865,37.251-11.316c-.235-.07-.489-.128-.717-.2-9.28-2.887-7.942-7.919,2.993-11.24s27.311-3.675,36.594-.79c.225.071.417.148.637.222l45.16-13.721Z" fill="#2b388f"/>
        <path id="Trazado_25888" data-name="Trazado 25888" d="M182.232,327.145v31.684l36.72,11.522,8.692-29.159Z" fill="#3869ac"/>
        <path id="Trazado_25889" data-name="Trazado 25889" d="M242.015,354.372h-.007c-.5-1.054-.836-1.686-.836-1.686l-23.033-4.766v.415c-.034-.084-.051-.132-.051-.132l.051,31.542c.8,4.064,11.4,5.537,11.4,5.537a70.932,70.932,0,0,0,31.334-2V351.6c-6.566,2.353-18.856,2.773-18.856,2.773" fill="#3869ac"/>
        <path id="Trazado_25890" data-name="Trazado 25890" d="M341.993,353.952c-9.28-2.89-7.942-7.921,2.993-11.241s27.311-3.674,36.593-.789c.226.071.417.147.638.22l45.159-13.722-99.029-30.794c-13.366-4.158-36.956-3.652-52.7,1.135l-93.416,28.384,45.033,14c-10.929,3.323-12.267,8.351-2.984,11.237s25.656,2.536,36.59-.788l44.588,13.866,37.251-11.318c-.236-.067-.489-.127-.717-.194" fill="#6c9fd1"/>
        <path id="Trazado_25891" data-name="Trazado 25891" d="M260.871,351.6v31.683l44.588,13.865V365.464Z" fill="#3869ac"/>
        <path id="Trazado_25892" data-name="Trazado 25892" d="M342.71,354.146v31.685l-37.251,11.315V365.463Z" fill="#3869ac"/>
        <path id="Trazado_25893" data-name="Trazado 25893" d="M382.217,342.142v31.683L427.376,360.1V328.419Z" fill="#3869ac"/>
        <path id="Trazado_25894" data-name="Trazado 25894" d="M351.092,236.954a28.66,28.66,0,0,1,4.059-.69,6.786,6.786,0,0,1,3.707.987c.35.386-.187,1.632-1.357,2.173a4.836,4.836,0,0,1-3.117.384,16.306,16.306,0,0,0-1.944-.666,10.074,10.074,0,0,1-1.627-.261Z" fill="#facbc4"/>
        <path id="Trazado_25895" data-name="Trazado 25895" d="M371.784,268.161a16.686,16.686,0,0,0-5.26-4.717,20.461,20.461,0,0,0-1.856-1.032l14.284-62.966a21.052,21.052,0,0,0,5.207-.373.564.564,0,0,0,.066-.015c.48-.1.948-.212,1.38-.34.188-.051.359-.113.538-.169.245-.082.5-.159.737-.252a16.743,16.743,0,0,0,7.77-5.778,8.8,8.8,0,0,0,.8-1.2c3.243-5.986,4.385-17.522-2.452-24.931l-5.523,15.289s-1.287,1.859-5.045,1.331-11.2-1.462-12.734-5.156c-1.074-2.573,1.45-13.364,3.078-19.643-8.666.705-16.148,6.231-18.323,14.459a19.326,19.326,0,0,0,3.687,16.872A18.553,18.553,0,0,0,364,194.8c.246.153.495.29.745.433L350.2,259.35c-.62.065-1.2.152-1.755.265a.406.406,0,0,0-.06.015c-.432.089-.842.185-1.242.3-.164.041-.312.1-.471.155-.224.069-.455.137-.668.219a15.12,15.12,0,0,0-6.967,5.18,7.356,7.356,0,0,0-.717,1.074c-2.9,5.377-3.932,15.723,2.2,22.366l4.957-13.71s1.15-1.672,4.521-1.195,10.046,1.306,11.423,4.617c.958,2.312-1.307,11.985-2.759,17.622,7.765-.632,14.481-5.584,16.429-12.968a17.352,17.352,0,0,0-3.309-15.133" fill="#6c9fd1"/>
        <path id="Trazado_25896" data-name="Trazado 25896" d="M317.184,206.083s2.759.964,3.938,5.032,4.606,17.857,7.131,19.967,23.993,4.968,23.993,4.968l-.118,3.8s-25.377,3.541-30.712-1.646-11.931-22.781-9.76-26.964,4.681-5.286,5.528-5.159" fill="#b0d4e5"/>
        <path id="Trazado_25897" data-name="Trazado 25897" d="M313.62,248.246c-.134.941-.235,1.75-.3,2.4-.551,5.108-2.376,8.675-11.505,9.308s-16.983-.452-18.169-4.749a54.363,54.363,0,0,1-.687-7.995,116.626,116.626,0,0,0,30.663,1.041" fill="#171614"/>
        <path id="Trazado_25898" data-name="Trazado 25898" d="M282.957,247.205c-.594-14.075-.273-41.17,3.363-42.494,4.686-1.706,10.746-1.3,17.837-1.113,0,0,14.091.382,15.46,4.768s.092,11.594-1.462,16.159c-1.358,4-3.624,17.089-4.535,23.721a116.626,116.626,0,0,1-30.663-1.041" fill="#b0d4e5"/>
        <path id="Trazado_25899" data-name="Trazado 25899" d="M304.512,320.8c.008-.091,3.3.249,3.3.249s.3,2.127.877,2.149,2.823.323,3.223.725a2.547,2.547,0,0,1,.449,1.35,32.274,32.274,0,0,1-3.9.075,10.479,10.479,0,0,1-.974-.422l.076.7-3.1-.128a19.228,19.228,0,0,1,.051-4.7" fill="#171614"/>
        <path id="Trazado_25900" data-name="Trazado 25900" d="M299.335,259.078s1.47,23.311,1.763,29.871,2.977,34.3,2.977,34.3l4.491-.446s2.717-30.329,2.717-36.5,1.553-33.275,1.553-33.275Z" fill="#171614"/>
        <path id="Trazado_25901" data-name="Trazado 25901" d="M290,320.709c.008-.09,3.3.251,3.3.251s.3,2.125.877,2.148,2.824.322,3.223.724a2.527,2.527,0,0,1,.449,1.351,32.851,32.851,0,0,1-3.9.077c-.425-.152-.975-.425-.975-.425l.076.7-3.1-.128a19.175,19.175,0,0,1,.05-4.7" fill="#171614"/>
        <path id="Trazado_25902" data-name="Trazado 25902" d="M284.977,255.437s1.918,26.951,2.212,33.511,2.454,34.137,2.454,34.137l4.684-.2s3.049-30.407,3.049-36.577,1.469-31.541,1.469-31.541Z" fill="#171614"/>
        <path id="Trazado_25903" data-name="Trazado 25903" d="M300.291,198.366a39.7,39.7,0,0,1,.531-7.053c.553-2.055.711-3.292,2.487-4.126s6.934-1.025,8.591-.471,1.323,1.509.352,2.161a6.879,6.879,0,0,1-2.358.7,45.62,45.62,0,0,1-3.751,6.573c-1.659,2.121-5.852,2.212-5.852,2.212" fill="#171614"/>
        <path id="Trazado_25904" data-name="Trazado 25904" d="M312.465,195.265c.186-.28-1.328-3.043-1.7-3.808a7.963,7.963,0,0,1-.346-1.97l-4.715.093.454,3.516-1.446.723a2.515,2.515,0,0,0-.911-1.692.76.76,0,0,0-1.028.055l0,0s-1.006.813-.512,1.746a3.645,3.645,0,0,0,1.535,1.333l0,.015c-.346,1.107-3.5,2.836-3.5,2.836l-1.162,5.225a61.562,61.562,0,0,1,6.478,1.428s.876-4.044,1.012-4.414,2.5.2,3.241-.444.794-3.728.84-4.1,1.579-.265,1.763-.541" fill="#f8c4b4"/>
        <path id="Trazado_25905" data-name="Trazado 25905" d="M304.315,203.693l-.608.289-.6-.187-.733,2.908,1.183,1.213,1.168-.169.742-1.226Z" fill="#171614"/>
        <path id="Trazado_25906" data-name="Trazado 25906" d="M304.749,207.746s.891,12.05-.592,18.776l-2.278,1.772-1.786-2.534s3.148-11.835,3.35-18Z" fill="#171614"/>
        <path id="Trazado_25907" data-name="Trazado 25907" d="M299.7,200.713s.867,1.3,4.211,3.06l-1.408,4.2s-3.041-3.516-3.675-4.534Z" fill="#b0d4e5"/>
        <path id="Trazado_25908" data-name="Trazado 25908" d="M306.231,201.868s-1.729,1.809-2.4,1.922l2.07,3.774s.661-3.23.641-3.826Z" fill="#b0d4e5"/>
        <path id="Trazado_25909" data-name="Trazado 25909" d="M352.773,236.884a9.053,9.053,0,0,1,1.727-1.312,8.86,8.86,0,0,1,2.354-.69c.062.081.355.386-.65.936a7.6,7.6,0,0,0-1.774,1.384Z" fill="#facbc4"/>
        <path id="Trazado_25910" data-name="Trazado 25910" d="M276.56,160.78s2.129-6.082,1.982-9.534-.994-4.866-1.265-4.629.189,5.116-.36,5.5-2.769,1.32-3.147,2.041.216,2.584.3,3.91a10.349,10.349,0,0,1-.747,3.456Z" fill="#f8c4b4"/>
        <path id="Trazado_25911" data-name="Trazado 25911" d="M283.9,212.264s-11.721-14.5-12.258-31.062a118.3,118.3,0,0,1,1.688-22.607l4.582.449s.492,17.342,1.861,24.08c1.215,5.988,13.24,19.348,13.334,24.538s-8.229,4.956-9.207,4.6" fill="#b0d4e5"/>
        <path id="Trazado_25912" data-name="Trazado 25912" d="M394.61,460.985v10.163l-12.129-4.274" fill="#589eab"/>
        <path id="Trazado_25913" data-name="Trazado 25913" d="M263.883,455.383l-.232,14.956s16.356-9.191,16.356-9.473-16.124-5.483-16.124-5.483" fill="#589eab"/>
        <path id="Trazado_25914" data-name="Trazado 25914" d="M431.822,481.769l-.343,34.519-248.766-1.122L182.4,480.14Z" fill="#3869ac"/>
        <path id="Trazado_25915" data-name="Trazado 25915" d="M380.4,502.674h0c10.932-3.323,12.27-8.353,2.99-11.239s-25.666-2.532-36.6.79l-45.934-14.283L258.834,490.71c8.074,2.931,6.442,7.686-4.043,10.868s-25.968,3.634-35.406,1.117l-36.672,12.472L279.077,547.1c13.361,4.153,36.959,3.648,52.7-1.137l99.705-29.674Z" fill="#3869ac"/>
        <path id="Trazado_25916" data-name="Trazado 25916" d="M385.45,467.348h0c10.93-3.321,12.268-8.353,2.988-11.237s-25.666-2.535-36.6.786l-45.931-14.284-42.025,12.77c8.071,2.932,6.44,7.687-4.044,10.872s-25.969,3.633-35.408,1.115L182.4,480.141l101.72,31.63c13.365,4.157,36.958,3.648,52.7-1.135l95-28.866Z" fill="#6c9fd1"/>
        <path id="Trazado_25917" data-name="Trazado 25917" d="M370.38,488.809,363.222,440.5l1.1-.037,7.165,48.349Z" fill="#263564"/>
        <path id="Trazado_25918" data-name="Trazado 25918" d="M321.925,488.809,314.767,440.5l1.1-.037,7.164,48.349Z" fill="#263564"/>
        <path id="Trazado_25919" data-name="Trazado 25919" d="M354.957,377.137l11.122,75.06H316.5l-11.124-75.06Z" fill="#263564"/>
        <path id="Trazado_25920" data-name="Trazado 25920" d="M289.347,488.809l7.16-48.312-1.1-.037-7.164,48.349Z" fill="#3869ac"/>
        <path id="Trazado_25921" data-name="Trazado 25921" d="M337.8,488.809l7.158-48.312-1.1-.037L336.7,488.809Z" fill="#3869ac"/>
        <path id="Trazado_25922" data-name="Trazado 25922" d="M293.648,452.2H343.23l.454-3.058H294.1Z" fill="#2b388f"/>
        <path id="Trazado_25923" data-name="Trazado 25923" d="M354.354,377.137H304.772l-.418,2.826h49.58Z" fill="#2b388f"/>
        <path id="Trazado_25924" data-name="Trazado 25924" d="M304.353,379.963,294.1,449.139h49.581l10.25-69.176Z" fill="#63c0c2"/>
        <path id="Trazado_25925" data-name="Trazado 25925" d="M339.663,404.936l-28.249-.322,2.369-15.561,28.25.323Zm-27.282-1.2,26.587.3,2.1-13.789-26.587-.3Z" fill="#00888e"/>
        <path id="Trazado_25926" data-name="Trazado 25926" d="M331.515,394.276l-8.733-.1,1.421-9.314,8.729.1Z" fill="#f1c555"/>
        <path id="Trazado_25927" data-name="Trazado 25927" d="M329.27,409.017l-8.73-.1,1.417-9.314,8.731.1Z" fill="#00888e"/>
        <path id="Trazado_25928" data-name="Trazado 25928" d="M342.9,409.174l-8.733-.1,1.42-9.314,8.732.1Z" fill="#00888e"/>
        <path id="Trazado_25929" data-name="Trazado 25929" d="M315.641,408.861l-8.732-.1,1.416-9.314,8.734.1Z" fill="#00888e"/>
        <path id="Trazado_25930" data-name="Trazado 25930" d="M320.709,429.664" fill="#231f20"/>
        <path id="Trazado_25931" data-name="Trazado 25931" d="M320.709,429.664l-2.13,14Z" fill="#231f20"/>
        <path id="Trazado_25932" data-name="Trazado 25932" d="M331.493,419.87a10.906,10.906,0,0,0-8.652-4.2l-2.132,14-10.788,9.79a10.912,10.912,0,0,0,8.658,4.207,14.649,14.649,0,0,0,9.9-3.994,16.87,16.87,0,0,0,5.354-9.854,12.889,12.889,0,0,0-2.339-9.943" fill="#00888e"/>
        <path id="Trazado_25933" data-name="Trazado 25933" d="M320.709,429.664l2.132-14Z" fill="#231f20"/>
        <path id="Trazado_25934" data-name="Trazado 25934" d="M312.935,419.656a16.868,16.868,0,0,0-5.354,9.855,12.894,12.894,0,0,0,2.34,9.943l10.787-9.79,2.132-14a14.654,14.654,0,0,0-9.9,3.99" fill="#f1c555"/>
        <path id="Trazado_25935" data-name="Trazado 25935" d="M275.783,367.142c-2.416-1.677-3.215,1.045-3.315,4.074-.046,1.383.926,4.249,2.12,7.2a44.42,44.42,0,0,0,6-2.308c-1.733-4.1-3.67-8.173-4.805-8.961" fill="#e38d32"/>
        <path id="Trazado_25936" data-name="Trazado 25936" d="M289.8,375.633l-5.572,9.7s-1.689-4.629-3.639-9.234a44.287,44.287,0,0,1-6,2.307c1.431,3.533,3.181,7.184,3.891,8.544,2.021,3.865,4.8,4.448,4.8,4.448,6.335.134,8.268-15.051,8.268-15.051Z" fill="#f8c4b4"/>
        <path id="Trazado_25937" data-name="Trazado 25937" d="M265.841,364.952s-9.367.394-10.128,4.134.457,27.6,4.65,39.407l16-3.234s-1.656-18.36-.166-19.813c0,0-.752-.4,2.031-1.861s4.124-3.631,3.3-6.2-3.05-4.256-4.379-5.46-.253-3.809-1.55-4.918-9.761-2.055-9.761-2.055" fill="#e38d32"/>
        <path id="Trazado_25938" data-name="Trazado 25938" d="M277.435,484.08c-.518-.5-.078-2.887-.078-2.887l-2.53.528s-.193.817-.413,1.837a7.853,7.853,0,0,0,3.021.522" fill="#f8c4b4"/>
        <path id="Trazado_25939" data-name="Trazado 25939" d="M282.294,485.57c-1.017-.329-4.254-1.031-4.825-1.463a.112.112,0,0,1-.033-.027,7.835,7.835,0,0,1-3.022-.523c-.207.946-.44,2.058-.566,2.822.967.015,5.942.114,9.506.065a2.1,2.1,0,0,0-1.06-.874" fill="#171614"/>
        <path id="Trazado_25940" data-name="Trazado 25940" d="M273.848,486.379a2.519,2.519,0,0,0-.07.908,74.419,74.419,0,0,0,9.982-.047,3.932,3.932,0,0,0-.406-.8c-3.564.049-8.539-.049-9.506-.065" fill="#2b388f"/>
        <path id="Trazado_25941" data-name="Trazado 25941" d="M265.975,414.145s2.99,23.575,3.808,30.2c.753,6.084,4.337,40.37,4.337,40.37l4.132-.293s1.46-25.379,1.714-40.614c.251-15.2-1.342-31.755-1.342-31.755Z" fill="#2b388f"/>
        <path id="Trazado_25942" data-name="Trazado 25942" d="M259.779,483.945c-.518-.5-.077-2.887-.077-2.887l-2.531.528s-.193.817-.413,1.837a7.9,7.9,0,0,0,3.021.522" fill="#f8c4b4"/>
        <path id="Trazado_25943" data-name="Trazado 25943" d="M264.639,485.435c-1.018-.333-4.254-1.031-4.825-1.465-.013,0-.021-.013-.034-.025a7.878,7.878,0,0,1-3.022-.523c-.206.946-.439,2.058-.566,2.822.967.019,5.943.114,9.506.065a2.1,2.1,0,0,0-1.059-.874" fill="#171614"/>
        <path id="Trazado_25944" data-name="Trazado 25944" d="M256.191,486.244a2.506,2.506,0,0,0-.069.908,74.409,74.409,0,0,0,9.981-.047,3.931,3.931,0,0,0-.406-.8c-3.563.049-8.539-.045-9.506-.065" fill="#2b388f"/>
        <path id="Trazado_25945" data-name="Trazado 25945" d="M251.811,413.21s3.485,25.812,4.294,32.461c.787,6.483.4,38.637.4,38.637l4.043-.045s4.707-25.462,6.15-40.593a137.579,137.579,0,0,0-.6-29.477Z" fill="#2b388f"/>
        <path id="Trazado_25946" data-name="Trazado 25946" d="M257.708,397.576s-9.829,12.686-4.11,20.9c3.712,5.334,17.582,4.4,22.688,1.874,4.886-2.409,1.425-19.084-.466-22.856Z" fill="#2b388f"/>
        <path id="Trazado_25947" data-name="Trazado 25947" d="M265.993,367.733a.562.562,0,1,0-.411,1.047l.633.249.414-1.048Z" fill="#c9dce7"/>
        <rect id="Rectángulo_3902" data-name="Rectángulo 3902" width="1.125" height="7.754" transform="translate(266.215 369.029) rotate(-68.441)" fill="#2b388f"/>
        <path id="Trazado_25948" data-name="Trazado 25948" d="M274.755,371.606l-.13.327.555.031Z" fill="#211319"/>
        <path id="Trazado_25949" data-name="Trazado 25949" d="M273.827,370.829l-.413,1.045,1.211.059.13-.327Z" fill="#b0d4e5"/>
        <path id="Trazado_25950" data-name="Trazado 25950" d="M266.807,368.054l-.414,1.047-.369-.144.416-1.049Z" fill="#3869ac"/>
        <path id="Trazado_25951" data-name="Trazado 25951" d="M264.442,376.067s2.763-5.558,3.5-5.863a16.921,16.921,0,0,1,5.325-.068c.441.261.384.627-.338.809s-2.1.558-2.1.558a9.329,9.329,0,0,1-.184,2.738c-.3.49-2.2,1.337-2.9,1.732a3.12,3.12,0,0,0-1.1,1.281Z" fill="#f8c4b4"/>
        <path id="Trazado_25952" data-name="Trazado 25952" d="M265.358,374.285S255.066,387.4,254.73,386.81c-.15-.258.684-2.712,1.649-5.338a20.021,20.021,0,0,1-7.549-2.035c-1.1,4.678-1.426,10.05-.21,12.809,1.585,3.6,5.012,4.456,8.7.817,2.285-2.26,10.331-17.026,10.331-17.026Z" fill="#f8c4b4"/>
        <path id="Trazado_25953" data-name="Trazado 25953" d="M258.859,374.946a.2.2,0,0,1,.014-.057c1.22-4.182.486-5.673-.085-6.908-.206-.449-.7-1.137-1.1-1.155a15.2,15.2,0,0,0-6.665,6.455,25.338,25.338,0,0,0-2.189,6.156,20.039,20.039,0,0,0,7.549,2.035c1.006-2.742,2.157-5.675,2.48-6.526" fill="#e38d32"/>
        <path id="Trazado_25954" data-name="Trazado 25954" d="M274.591,366.35l-.967-1.226a1.71,1.71,0,0,1,1.206-1.052c.894-.149,1.99.009,2.008.869s-2.247,1.409-2.247,1.409" fill="#263564"/>
        <rect id="Rectángulo_3903" data-name="Rectángulo 3903" width="15.598" height="22.016" transform="translate(273.622 365.124) rotate(-0.893)" fill="#3869ac"/>
        <path id="Trazado_25955" data-name="Trazado 25955" d="M273.624,365.125s.981-1.384,1.706-.569-1.051,20.63-1.051,20.63,8.712,1.859,14.78,1.418c0,0,2.271-20.191.264-21.974,0,0-15.034-3.307-15.7.495" fill="#c9dce7"/>
        <path id="Trazado_25956" data-name="Trazado 25956" d="M291.472,376.829s.8-3.892.214-5.644c-.459-1.365-4.14-1.317-4.611-.573s-.068,1.887,1.078,2.7a7.232,7.232,0,0,0,1.516.922s-.387,1.858.286,2.666Z" fill="#f8c4b4"/>
        <path id="Trazado_25957" data-name="Trazado 25957" d="M263.158,357.278l.09,7.842c.2,1.662,1.535,2.081,2.965,2.246s2.892-.459,3.068-2.006l-.326-5.02Z" fill="#f8c4b4"/>
        <path id="Trazado_25958" data-name="Trazado 25958" d="M263,350.189a4.044,4.044,0,0,1-3.431-1.535c-1.3-1.742-1.023-4.486.822-5.41s4.58-.727,5.414,1.163a8.152,8.152,0,0,1,.49,4.041Z" fill="#171614"/>
        <path id="Trazado_25959" data-name="Trazado 25959" d="M266.537,348.106s.194-.771-1.048-.587-3.464,1.561-2.7,3.154c0,0,.23.885,1.239.191s2.934-2.1,2.512-2.758" fill="#e38d32"/>
        <path id="Trazado_25960" data-name="Trazado 25960" d="M272.017,358.042a12.421,12.421,0,0,0,.373-4.087c-.217-2-1.629-6.341-5.584-6.284,0,0-3.043.143-4.06,2.58s-.68,6.77.874,8.257,7.674,1.227,8.4-.466" fill="#171614"/>
        <path id="Trazado_25961" data-name="Trazado 25961" d="M267.972,348.517l1.083,2.105a6.218,6.218,0,0,1,3.4,4.33s.106,3.357-1.168,4.868a5.45,5.45,0,0,1-3.131,2.031,6.584,6.584,0,0,1-4.326-2.213,11.856,11.856,0,0,1-1.371-3.349s2.782-4.858,6.149-5.739Z" fill="#f8c4b4"/>
        <path id="Trazado_25962" data-name="Trazado 25962" d="M263.156,355.631s-1.738-.392-1.924.794,1.336,2.285,2.671,2.007Z" fill="#f8c4b4"/>
        <path id="Trazado_25963" data-name="Trazado 25963" d="M516.505,224.278l.006-7.3h-5.035a15.7,15.7,0,0,0-2.058-4.826l3.608-3.6-5.154-5.16-3.692,3.686a15.693,15.693,0,0,0-4.735-1.885l0-5.294-7.295-.007v5.421a15.77,15.77,0,0,0-4.551,1.94l-3.874-3.889-5.155,5.169,3.9,3.91a15.864,15.864,0,0,0-1.875,4.514l-5.524-.007-.009,7.295h5.466a15.3,15.3,0,0,0,1.82,4.635l-3.8,3.795,5.149,5.162,3.75-3.745a15.815,15.815,0,0,0,4.681,2.026l0,5.21,7.294.009,0-5.086a15.828,15.828,0,0,0,4.865-1.963l3.561,3.563,5.159-5.155-3.522-3.527a15.794,15.794,0,0,0,2.035-4.9Zm-20.471,2.047a5.605,5.605,0,1,1,5.607-5.6,5.6,5.6,0,0,1-5.607,5.6" fill="#6c9fd1"/>
        <path id="Trazado_25964" data-name="Trazado 25964" d="M531.141,257.532l0-4.728h-4.14a9.649,9.649,0,0,0-1.092-2.489l2.975-2.971-3.337-3.336-3,2.993a9.8,9.8,0,0,0-2.461-1.047l0-4.207-4.724-.008v4.1a9.749,9.749,0,0,0-2.623.991l-2.83-2.845-3.34,3.342,2.7,2.7a9.764,9.764,0,0,0-1.26,2.754l-3.706,0v4.725h3.538a9.845,9.845,0,0,0,1.178,3l-2.461,2.457,3.337,3.34,2.436-2.431a9.832,9.832,0,0,0,3.019,1.238v3.455l4.722.006,0-3.567a9.915,9.915,0,0,0,2.862-1.287l2.595,2.6,3.339-3.34-2.725-2.732a9.738,9.738,0,0,0,1.019-2.726Zm-13.625,5.282a7.276,7.276,0,1,1,7.279-7.273,7.275,7.275,0,0,1-7.279,7.273" fill="#6c9fd1"/>
        <path id="Trazado_25965" data-name="Trazado 25965" d="M499.043,276.6l.006-7.294h-5.037a15.8,15.8,0,0,0-2.057-4.826l3.609-3.6-5.152-5.157-3.695,3.684a15.793,15.793,0,0,0-4.734-1.883l0-5.3-7.3-.006,0,5.42a15.861,15.861,0,0,0-4.548,1.943l-3.874-3.888-5.155,5.166,3.9,3.91a15.68,15.68,0,0,0-1.878,4.516l-5.522-.007-.01,7.291h5.466a15.236,15.236,0,0,0,1.819,4.639l-3.8,3.791,5.148,5.166,3.751-3.745a15.841,15.841,0,0,0,4.679,2.026l0,5.208,7.294.01,0-5.087a15.8,15.8,0,0,0,4.87-1.962l3.557,3.562,5.16-5.153-3.523-3.527a15.685,15.685,0,0,0,2.035-4.9Zm-20.475,2.05a5.607,5.607,0,1,1,5.608-5.605,5.6,5.6,0,0,1-5.608,5.605" fill="#6c9fd1"/>
        <path id="Trazado_25966" data-name="Trazado 25966" d="M478.568,265.644a7.4,7.4,0,1,0,7.4,7.4,7.4,7.4,0,0,0-7.4-7.4m0,13.008a5.607,5.607,0,1,1,5.608-5.605,5.6,5.6,0,0,1-5.608,5.605" fill="#3869ac"/>
        <path id="Trazado_25967" data-name="Trazado 25967" d="M478.568,285.9a12.854,12.854,0,1,1,12.856-12.855A12.869,12.869,0,0,1,478.568,285.9m0-24.51a11.656,11.656,0,1,0,11.658,11.655,11.667,11.667,0,0,0-11.658-11.655" fill="#3869ac"/>
        <path id="Trazado_25968" data-name="Trazado 25968" d="M597.674,416.636l-102.169-31.77L450.343,398.59c-.218-.071-.409-.149-.638-.22-9.277-2.884-25.663-2.533-36.592.788s-12.268,8.354-2.991,11.242c.229.069.479.129.717.2l-37.251,11.317,46.379,14.424c10.934-3.32,27.316-3.678,36.6-.791s7.945,7.918-2.99,11.241l46.38,14.422,93.417-28.385c15.742-4.783,17.665-12.027,4.3-16.187" fill="#2b388f"/>
        <path id="Trazado_25969" data-name="Trazado 25969" d="M373.588,389.015v32.9l46.379,14.424-.054-34.348Z" fill="#3869ac"/>
        <path id="Trazado_25970" data-name="Trazado 25970" d="M373.741,421.865l-.152.047.633.2c-.159-.083-.321-.162-.481-.246" fill="#589eab"/>
        <path id="Trazado_25971" data-name="Trazado 25971" d="M606.537,423.268l.016-.005,0-32.738-2.734.156-106.8,33.4L495.8,445.106l3.177-.628V460.9l.976.3,93.417-28.385c8.978-2.73,13.453-6.257,13.166-9.554" fill="#3869ac"/>
        <path id="Trazado_25972" data-name="Trazado 25972" d="M453.575,413.887v32.9l46.38,14.422v-32.9Z" fill="#3869ac"/>
        <path id="Trazado_25973" data-name="Trazado 25973" d="M597.674,383.741,495.505,351.97l-45.162,13.723c-.218-.073-.409-.148-.638-.223-9.277-2.882-25.663-2.531-36.592.791s-12.268,8.351-2.991,11.238c.229.07.479.129.717.2l-37.251,11.318,46.379,14.422c10.934-3.32,27.316-3.674,36.6-.79s7.945,7.919-2.99,11.241l46.38,14.422,93.417-28.383c15.742-4.785,17.665-12.031,4.3-16.185" fill="#6c9fd1"/>
        <path id="Trazado_25974" data-name="Trazado 25974" d="M515.156,336.426l4.552,57.982h1.234l-2.49-58.246Z" fill="#171614"/>
        <path id="Trazado_25975" data-name="Trazado 25975" d="M456.518,336.426l-4.551,57.982h-1.233l2.488-58.246Z" fill="#263564"/>
        <path id="Trazado_25976" data-name="Trazado 25976" d="M507.195,336.426l-4.552,57.982H501.41l2.488-58.246Z" fill="#171614"/>
        <path id="Trazado_25977" data-name="Trazado 25977" d="M464.48,336.426l4.551,57.982h1.235l-2.49-58.246Z" fill="#263564"/>
        <rect id="Rectángulo_3904" data-name="Rectángulo 3904" width="67.792" height="2.892" transform="translate(451.526 335.085)" fill="#6c9fd1"/>
        <rect id="Rectángulo_3905" data-name="Rectángulo 3905" width="52.563" height="2.892" transform="translate(469.451 335.085)" fill="#2b388f"/>
        <path id="Trazado_25978" data-name="Trazado 25978" d="M481.991,310.077H448.513l9.588,23.671h33.433Z" fill="#b0d4e5"/>
        <path id="Trazado_25979" data-name="Trazado 25979" d="M451.012,311.357l8.392,20.817h29.55l-8.391-20.817Z" fill="#171614"/>
        <rect id="Rectángulo_3906" data-name="Rectángulo 3906" width="47.529" height="1.777" transform="translate(458.026 333.553)" fill="#263564"/>
        <rect id="Rectángulo_3907" data-name="Rectángulo 3907" width="19.771" height="1.777" transform="translate(458.025 333.553)" fill="#6c9fd1"/>
        <rect id="Rectángulo_3908" data-name="Rectángulo 3908" width="2.646" height="0.464" transform="translate(460.418 334.252)" fill="#3869ac"/>
        <rect id="Rectángulo_3909" data-name="Rectángulo 3909" width="2.646" height="0.464" transform="translate(464.28 334.252)" fill="#3869ac"/>
        <path id="Trazado_25980" data-name="Trazado 25980" d="M468.477,334.484a.345.345,0,1,1-.344-.346.345.345,0,0,1,.344.346" fill="#3869ac"/>
        <rect id="Rectángulo_3910" data-name="Rectángulo 3910" width="4.743" height="0.544" transform="translate(490.725 333.553)" fill="#1e8aa1"/>
        <path id="Trazado_25981" data-name="Trazado 25981" d="M529.618,346.793s-15.938-8.881-20.267-7.8-6.074,8.392-4.414,9.514,25.725,10.485,25.725,10.485Z" fill="#3869ac"/>
        <path id="Trazado_25982" data-name="Trazado 25982" d="M506,305.368l5.242,7.113,9.02-3.194-7.907-8.426Z" fill="#f8c4b4"/>
        <path id="Trazado_25983" data-name="Trazado 25983" d="M505.938,306.032s-2.028,1.03-2.917.216-1.95-5.4-1.95-5.4-.825-.355-.73-.8.342-1.552.342-1.552-.157-5.755,3.627-6.537a5.414,5.414,0,0,1,6.3,2.9,41.006,41.006,0,0,1,2.763,7.617,1.917,1.917,0,0,1-1.344,2.066c-1.592.577-6.089,1.5-6.089,1.5" fill="#f8c4b4"/>
        <path id="Trazado_25984" data-name="Trazado 25984" d="M513.25,302.005a10.251,10.251,0,0,1-4.187,1.226c-2.45.174-4.024-1.042-4.2-2.616,0,0,1.41-.7,1.672-1.5s-.142-2.476-.922-2.6a1.606,1.606,0,0,0-1.606,1.71l.016,1-1.359.077a27.087,27.087,0,0,1,.105-2.838c.129-.67.13-1.593-.36-1.753s-.635.464-1.408.449a1.183,1.183,0,0,1-1.495-.79c-.365-1.135.9-2.165,1.987-2.44s3.185-2.157,6.534-1.281,5.343,8.672,5.507,9.372c.315,1.316-.073,1.785-.286,1.981" fill="#171614"/>
        <path id="Trazado_25985" data-name="Trazado 25985" d="M501.2,295.148a4.338,4.338,0,0,1,3.113-3.2,5.414,5.414,0,0,1,6.3,2.9,39.905,39.905,0,0,1,2.64,7.151,10.052,10.052,0,0,1-4.184,1.226c-2.45.175-4.024-1.042-4.2-2.615,0,0,1.41-.7,1.672-1.5s-.143-2.477-.922-2.6a1.606,1.606,0,0,0-1.606,1.71l.016,1-1.359.077a27.087,27.087,0,0,1,.105-2.838c.129-.67.13-1.592-.36-1.753-.45-.144-.612.354-1.215.435" fill="#171614"/>
        <path id="Trazado_25986" data-name="Trazado 25986" d="M495.787,388.331l-4.382-.709-.825,3.365a21.287,21.287,0,0,0,3.825.785Z" fill="#f8c4b4"/>
        <path id="Trazado_25987" data-name="Trazado 25987" d="M486.708,394.4c2.5.045,7.351-.2,7.351-.2l.087-.6c-2.692.274-8.114.156-9.562.116-.014.021-.327.64,2.124.682" fill="#b0d4e5"/>
        <path id="Trazado_25988" data-name="Trazado 25988" d="M488.956,392.616c.261-.039.351-.768.383-1.261-.254.077-.534.169-.834.261.06.413.173,1.045.451,1" fill="#b0d4e5"/>
        <path id="Trazado_25989" data-name="Trazado 25989" d="M490.579,390.987l0,.008s-.086.021-.238.065c.194.457.407,1.156-.071,1.223s-.709-.532-.826-.959a.787.787,0,0,0-.1.031c-.031.493-.121,1.222-.383,1.261s-.39-.587-.45-1c-1.763.582-4,1.451-3.921,2.1v0c1.448.04,6.87.158,9.562-.116l.258-1.832a21.286,21.286,0,0,1-3.825-.785" fill="#171614"/>
        <path id="Trazado_25990" data-name="Trazado 25990" d="M490.268,392.283c.478-.066.265-.766.07-1.223-.2.055-.516.147-.9.264.116.427.359,1.023.826.959" fill="#b0d4e5"/>
        <path id="Trazado_25991" data-name="Trazado 25991" d="M527.664,348.591s-27.5.038-29,2.713S490.5,390.25,490.5,390.25l4.784,1.277s9.475-23.127,11.478-30.861c0,0,27.208,3.187,29.946,2.97s.205-.3.205-.3Z" fill="#2b388f"/>
        <path id="Trazado_25992" data-name="Trazado 25992" d="M488.313,366.52l-3.328-2.122-2.693,2.284a21.827,21.827,0,0,0,3.138,2.323Z" fill="#f8c4b4"/>
        <path id="Trazado_25993" data-name="Trazado 25993" d="M477.343,368.142c2.245,1.093,6.746,2.921,6.746,2.921l.335-.506c-2.557-.889-7.423-3.291-8.719-3.934-.021.015-.564.441,1.638,1.519" fill="#b0d4e5"/>
        <path id="Trazado_25994" data-name="Trazado 25994" d="M480.134,367.469c.254.067.643-.548.879-.979-.263-.037-.558-.077-.864-.112-.12.4-.286,1.015-.015,1.091" fill="#b0d4e5"/>
        <path id="Trazado_25995" data-name="Trazado 25995" d="M482.292,366.683h0s-.09-.015-.247-.044c-.013.5-.114,1.226-.578,1.085-.448-.142-.417-.786-.343-1.222l-.108-.012c-.237.431-.625,1.047-.879.979-.271-.076-.106-.7.014-1.091-1.843-.221-4.237-.377-4.441.246h0c1.3.643,6.162,3.045,8.719,3.934l1.006-1.552a21.7,21.7,0,0,1-3.138-2.323" fill="#171614"/>
        <path id="Trazado_25996" data-name="Trazado 25996" d="M481.464,367.724c.464.141.565-.582.578-1.085-.2-.027-.526-.078-.921-.137-.074.436-.105,1.08.343,1.222" fill="#b0d4e5"/>
        <path id="Trazado_25997" data-name="Trazado 25997" d="M513,348.2s-5.054,9.165-27.088,20.486l-3.235-2.628S506.333,338.251,509.6,339s5.349,4.939,3.4,9.2" fill="#3869ac"/>
        <path id="Trazado_25998" data-name="Trazado 25998" d="M548.591,357.428s-3.171,7.343-13.169,5.962-11.3-7.134-11.756-11.219a20.945,20.945,0,0,0-1.577-5.218c15.787,1.912,24.4.106,28.523-1.418a29.63,29.63,0,0,1-2.021,11.893" fill="#2b388f"/>
        <path id="Trazado_25999" data-name="Trazado 25999" d="M506.049,311.767c4.478-4.473,7.6-5.874,7.6-5.874s5.456-3.885,13.235-.288c6.433,2.966,23.177,21,23.725,39.93-4.12,1.523-12.736,3.33-28.523,1.418a58.6,58.6,0,0,0-7.2-12.5c-3.942-5.023-12.42-19.107-8.839-22.685" fill="#f1c555"/>
        <path id="Trazado_26000" data-name="Trazado 26000" d="M468.651,332.966a.373.373,0,1,0,.687.292l3.192-7.456a.373.373,0,0,0-.685-.293Z" fill="#4c87ae"/>
        <path id="Trazado_26001" data-name="Trazado 26001" d="M498.621,321.668c3.458-4.9,7.5-11.771,11.553-12.355,0,0,6.014.606,5.8,5.419-.127,2.848-4.946,8.85-10.152,13.417a18.818,18.818,0,0,1-7.2-6.481" fill="#f1c555"/>
        <path id="Trazado_26002" data-name="Trazado 26002" d="M493.93,326.475c1.367-.4,2.958-2.354,4.691-4.808a18.831,18.831,0,0,0,7.2,6.482c-3.593,3.152-7.372,5.618-9.922,5.89-6.242.665-19.785-.6-19.785-.6l-.986-3.029s14.706-2.744,18.8-3.933" fill="#f8c4b4"/>
        <path id="Trazado_26003" data-name="Trazado 26003" d="M477.147,330.939s-1.2.4-1.662-.261A6.806,6.806,0,0,0,472.6,328.4c-.989-.217-3.57-.935-3.783.7s.084,3.277,1.621,3.816,6.588.6,6.588.6Z" fill="#f8c4b4"/>
        <path id="Trazado_26004" data-name="Trazado 26004" d="M521.492,359.009l-4.551,35.4H515.71l2.349-34.5Z" fill="#00888e"/>
        <path id="Trazado_26005" data-name="Trazado 26005" d="M540.726,359.009l4.551,35.4h1.235l-2.49-35.565Z" fill="#00888e"/>
        <path id="Trazado_26006" data-name="Trazado 26006" d="M544.737,330.4s-10.374-.064-12.823,4.833-2.9,18.492-4.125,20.04-12.564,4.115-13.08,5.671,5.8,3.736,16.817,3.864,24.744-3.029,26.483-10.767.838-24.932-13.272-23.641" fill="#63c0c2"/>
        <path id="Trazado_26007" data-name="Trazado 26007" d="M532.42,359.009l-4.55,35.4h-1.235l2.49-35.565Z" fill="#63c0c2"/>
        <path id="Trazado_26008" data-name="Trazado 26008" d="M550.422,357.071l4.55,37.337h1.233L553.716,356.9Z" fill="#63c0c2"/>
        <path id="Trazado_26009" data-name="Trazado 26009" d="M153.245,378.158v13.454H141.871l.843-13.455Z" fill="#2b388f"/>
        <path id="Trazado_26010" data-name="Trazado 26010" d="M.023,402.34,0,434.606l50.654,9.347,8.507-33.18Z" fill="#3869ac"/>
        <path id="Trazado_26011" data-name="Trazado 26011" d="M189.86,447.907l42.024-12.771-45.033-14c-10.931,3.322-27.309,3.672-36.59.786s-7.948-7.913,2.984-11.237l-45.032-14.005-95,28.867c-15.74,4.782-17.671,12.029-4.3,16.184l99.477,30.935,42.028-12.771c9.44,2.518,24.919,2.072,35.408-1.116s12.117-7.939,4.041-10.87" fill="#4e8c98"/>
        <path id="Trazado_26012" data-name="Trazado 26012" d="M231.8,402.677l.08,32.46-123.5,37.527V440.139Z" fill="#3869ac"/>
        <path id="Trazado_26013" data-name="Trazado 26013" d="M150.411,457.853V427.368c9.44,2.516,24.919,2.074,35.408-1.117a22.9,22.9,0,0,0,7.068-3.243l-6.036-1.876c-10.931,3.324-27.309,3.673-36.589.787s-7.949-7.913,2.983-11.236l-45.032-14.007-95,28.868c-15.739,4.783-17.671,12.029-4.3,16.184l99.478,30.936L146.78,461a6.709,6.709,0,0,0-.423-2.119c-.15-.256,1.434-.617,4.054-1.025" fill="#3869ac"/>
        <path id="Trazado_26014" data-name="Trazado 26014" d="M194.934,446.365l-.125-22.758-1.923-.6a22.917,22.917,0,0,1-7.067,3.243c-10.49,3.19-25.967,3.633-35.408,1.116v32.525c9.441,2.517,24.918,2.071,35.408-1.116,6.033-1.834,9.119-4.186,9.124-6.412l.021,0Z" fill="#3869ac"/>
        <path id="Trazado_26015" data-name="Trazado 26015" d="M189.86,415.385l42.024-12.771-45.033-14c-10.931,3.321-27.309,3.673-36.59.789s-7.948-7.917,2.984-11.241l-45.032-14-95,28.866C-2.53,397.8-4.461,405.049,8.906,409.2l99.477,30.934,42.028-12.77c9.44,2.516,24.919,2.074,35.408-1.116s12.117-7.938,4.041-10.868" fill="#6c9fd1"/>
        <path id="Trazado_26016" data-name="Trazado 26016" d="M40.443,384.782C37.459,353.544,62.6,316.662,63.652,315.1l1.637.088c-.251.377-25.66,38.908-22.75,69.394Z" fill="#2b388f"/>
        <path id="Trazado_26017" data-name="Trazado 26017" d="M43.2,359.016s14.665-12.623,37.87-.983c0,0-5.456,3.261-15.223,1.058,0,0-4.617,2.387-7.853,1.271s-2.5-1.009-2.5-1.009-2.522,1.868-12.291-.337" fill="#2b388f"/>
        <path id="Trazado_26018" data-name="Trazado 26018" d="M52.723,334.215s9.517-9.42,26.1-2.509c0,0-3.61,2.521-10.462,1.473,0,0-3.073,1.861-5.36,1.248s-1.777-.572-1.777-.572-1.651,1.408-8.5.36" fill="#2b388f"/>
        <path id="Trazado_26019" data-name="Trazado 26019" d="M57.215,325.677s6.489-8.12,19.9-4.279c0,0-2.558,2.264-7.933,2.072,0,0-2.2,1.717-4.022,1.445s-1.423-.282-1.423-.282-1.143,1.238-6.52,1.044" fill="#2b388f"/>
        <path id="Trazado_26020" data-name="Trazado 26020" d="M63.493,315.648s6.487-8.122,19.9-4.282c0,0-2.556,2.265-7.932,2.078,0,0-2.2,1.713-4.023,1.442s-1.421-.286-1.421-.286-1.144,1.238-6.521,1.048" fill="#2b388f"/>
        <path id="Trazado_26021" data-name="Trazado 26021" d="M45.82,357.206s-9.438-16.893-35.228-13.93c0,0,4,4.941,13.935,6.229,0,0,3.517,3.82,6.941,3.882s2.7-.087,2.7-.087,1.726,2.622,11.654,3.906" fill="#2b388f"/>
        <path id="Trazado_26022" data-name="Trazado 26022" d="M40.547,373.207s16.246-10.515,37.655,4.172c0,0-5.854,2.495-15.229-1.022,0,0-4.9,1.736-7.952.19s-2.342-1.342-2.342-1.342-2.755,1.508-12.132-2" fill="#2b388f"/>
        <path id="Trazado_26023" data-name="Trazado 26023" d="M42.775,371.929S31.811,355.987,6.4,361.33c0,0,4.445,4.544,14.452,4.907,0,0,3.857,3.479,7.273,3.215,3.413-.248,2.677-.328,2.677-.328s1.963,2.445,11.969,2.8" fill="#2b388f"/>
        <path id="Trazado_26024" data-name="Trazado 26024" d="M50.537,343.2s-6.023-15.473-28.292-16.011c0,0,2.817,4.673,11.1,6.938,0,0,2.538,3.668,5.439,4.123s2.3.251,2.3.251,1.158,2.429,9.445,4.7" fill="#2b388f"/>
        <path id="Trazado_26025" data-name="Trazado 26025" d="M55.816,332S53.27,318.13,34.787,314.126c0,0,1.6,4.347,8.147,7.566,0,0,1.531,3.458,3.88,4.307s1.88.571,1.88.571.575,2.211,7.122,5.429" fill="#2b388f"/>
        <path id="Trazado_26026" data-name="Trazado 26026" d="M60.021,323.255s2-9.659-8.926-17.133c0,0-.1,3.238,3.291,7.057,0,0,.08,2.639,1.379,3.812s1.068.865,1.068.865-.208,1.586,3.188,5.4" fill="#2b388f"/>
        <path id="Trazado_26027" data-name="Trazado 26027" d="M64.291,316.706s2-9.66-8.926-17.138c0,0-.107,3.249,3.29,7.061,0,0,.08,2.643,1.381,3.807s1.068.871,1.068.871-.21,1.587,3.187,5.4" fill="#2b388f"/>
        <path id="Trazado_26028" data-name="Trazado 26028" d="M47.884,345.016s12.313-11.145,32.479-1.657c0,0-4.612,2.919-13.044,1.238,0,0-3.908,2.142-6.711,1.251s-2.169-.819-2.169-.819-2.123,1.663-10.555-.013" fill="#2b388f"/>
        <path id="Trazado_26029" data-name="Trazado 26029" d="M41.74,381.42c2.7-23.588-15.8-51.836-16.564-53.032l-1.239.04c.186.292,18.856,29.794,16.222,52.808Z" fill="#63c0c2"/>
        <path id="Trazado_26030" data-name="Trazado 26030" d="M40.02,361.894s-10.912-9.755-28.629-1.283c0,0,4.081,2.546,11.5,1.021,0,0,3.458,1.868,5.92,1.066s1.91-.727,1.91-.727,1.88,1.449,9.3-.077" fill="#63c0c2"/>
        <path id="Trazado_26031" data-name="Trazado 26031" d="M33.172,343s-7.065-7.263-19.707-2.27c0,0,2.7,1.956,7.893,1.261,0,0,2.3,1.455,4.037,1.02s1.351-.407,1.351-.407,1.229,1.091,6.426.4" fill="#63c0c2"/>
        <path id="Trazado_26032" data-name="Trazado 26032" d="M29.9,336.474s-4.8-6.237-14.992-3.513c0,0,1.9,1.748,5.97,1.677A5.016,5.016,0,0,0,23.9,335.79c1.38-.177,1.081-.2,1.081-.2s.849.956,4.919.88" fill="#63c0c2"/>
        <path id="Trazado_26033" data-name="Trazado 26033" d="M25.289,328.8s-4.793-6.233-14.991-3.52c0,0,1.9,1.749,5.971,1.683,0,0,1.642,1.33,3.021,1.15s1.082-.195,1.082-.195.849.954,4.917.882" fill="#63c0c2"/>
        <path id="Trazado_26034" data-name="Trazado 26034" d="M38.066,360.487s7.377-12.642,26.845-10.037c0,0-3.1,3.682-10.63,4.514,0,0-2.715,2.84-5.3,2.835s-2.039-.1-2.039-.1-1.343,1.958-8.871,2.788" fill="#63c0c2"/>
        <path id="Trazado_26035" data-name="Trazado 26035" d="M41.827,372.664s-12.138-8.184-28.541,2.623c0,0,4.393,1.965,11.534-.554,0,0,3.679,1.379,6.012.253s1.795-.981,1.795-.981,2.056,1.178,9.2-1.341" fill="#63c0c2"/>
        <path id="Trazado_26036" data-name="Trazado 26036" d="M40.161,371.668s8.519-11.9,27.659-7.5c0,0-3.429,3.376-11,3.507,0,0-2.967,2.577-5.547,2.333s-2.021-.293-2.021-.293-1.518,1.824-9.091,1.955" fill="#63c0c2"/>
        <path id="Trazado_26037" data-name="Trazado 26037" d="M34.7,349.821s4.773-11.614,21.625-11.705c0,0-2.2,3.5-8.5,5.1,0,0-1.972,2.729-4.175,3.039s-1.745.153-1.745.153S41,348.222,34.7,349.821" fill="#63c0c2"/>
        <path id="Trazado_26038" data-name="Trazado 26038" d="M30.865,341.281s2.121-10.456,16.159-13.223c0,0-1.276,3.267-6.271,5.609,0,0-1.206,2.592-2.992,3.2s-1.434.406-1.434.406-.466,1.661-5.462,4.005" fill="#63c0c2"/>
        <path id="Trazado_26039" data-name="Trazado 26039" d="M27.807,334.608s-1.378-7.339,6.993-12.834c0,0,.036,2.456-2.589,5.286a4.762,4.762,0,0,1-1.1,2.869c-1,.863-.822.642-.822.642s.137,1.2-2.486,4.037" fill="#63c0c2"/>
        <path id="Trazado_26040" data-name="Trazado 26040" d="M24.67,329.588s-1.377-7.331,6.994-12.827c0,0,.033,2.455-2.59,5.29a4.763,4.763,0,0,1-1.095,2.864c-1,.865-.822.638-.822.638s.138,1.2-2.487,4.035" fill="#63c0c2"/>
        <path id="Trazado_26041" data-name="Trazado 26041" d="M36.678,351.234s-9.154-8.6-24.541-1.71c0,0,3.445,2.27,9.847,1.118,0,0,2.927,1.678,5.06,1.047S28.7,351.1,28.7,351.1s1.581,1.282,7.98.131" fill="#63c0c2"/>
        <path id="Trazado_26042" data-name="Trazado 26042" d="M26.707,379.872S28.4,400.7,33.473,408H58.045s4.9-15.938,4.9-28.579Z" fill="#3869ac"/>
        <rect id="Rectángulo_3911" data-name="Rectángulo 3911" width="37.657" height="4.01" transform="translate(26.086 376.84)" fill="#6c9fd1"/>
        <path id="Trazado_26043" data-name="Trazado 26043" d="M118.026,272.143a8.085,8.085,0,0,0,.935-2.418,3.768,3.768,0,0,0-3.94-3.3c-2.723.1-3.422.053-5.206,1.078s-4.028,3.4-3.55,6.6,3.455,5.479,4.367,5.665,7.469-4.826,7.463-4.946-.069-2.677-.069-2.677" fill="#171614"/>
        <path id="Trazado_26044" data-name="Trazado 26044" d="M113.807,275.567a2.689,2.689,0,0,0-.994-1.367.626.626,0,0,0-.859.1V274.3s-.794.749-.327,1.533a3.142,3.142,0,0,0,1.365,1.073l0,.013c-.222.966-2.719,2.607-2.719,2.607l-1.661,7.86a25.139,25.139,0,0,0,6.732-.552s1.394-5.533,1.489-5.859,2.457-.777,3.039-1.373-.192-3.334-.175-3.652.528-.762.665-1.009-.844-1.013-1.284-1.225a4.653,4.653,0,0,1-.865-1.725s-.968-.686-1.457-.627-.758.506-1.071,1.269-.941,2.725-1.874,2.938" fill="#f8c4b4"/>
        <path id="Trazado_26045" data-name="Trazado 26045" d="M137.471,285.564a5.937,5.937,0,0,0,2.328-1.36,5.172,5.172,0,0,1,2.125-1.291c.346-.167,2.2-.818,2.016-1.3a2.9,2.9,0,0,0-2.09-1.485,2.966,2.966,0,0,0-2.446,1.546,4.855,4.855,0,0,1-1.593,1.618c-.459.246-.959.5-.959.5Z" fill="#f8c4b4"/>
        <path id="Trazado_26046" data-name="Trazado 26046" d="M152.025,278.094l-1.922.025s.069-2.5.006-2.733a2.963,2.963,0,0,1-.019-1.683c.224-.884.581-5.172,1.67-4.9s2.018,3.6,1.613,4.746-1.356,1.954-1.418,2.513a15.032,15.032,0,0,0,.07,2.032" fill="#f8c4b4"/>
        <path id="Trazado_26047" data-name="Trazado 26047" d="M193.725,217.773a27.816,27.816,0,0,0-7.8-10.373l-1.628,3.369A24.332,24.332,0,1,1,151.067,246.3l-5.641-1.014a27.958,27.958,0,0,0,48.3-27.514" fill="#6c9fd1"/>
        <path id="Trazado_26048" data-name="Trazado 26048" d="M192.467,216.517a27.957,27.957,0,1,0-14.517,36.768,27.95,27.95,0,0,0,14.517-36.768m-3.326,1.438a24.333,24.333,0,1,1-32.01-12.63,24.33,24.33,0,0,1,32.01,12.63" fill="#171614"/>
        <g id="Grupo_30420" data-name="Grupo 30420" opacity="0.8">
          <g id="Grupo_30419" data-name="Grupo 30419">
            <g id="Grupo_30418" data-name="Grupo 30418" clip-path="url(#clip-path-3)">
              <path id="Trazado_26049" data-name="Trazado 26049" d="M146.456,218.8a24.33,24.33,0,0,1,31.018-13.027c-.316-.156-.638-.312-.965-.451a24.329,24.329,0,1,0-19.378,44.633c.332.138.661.27.99.395a24.32,24.32,0,0,1-11.665-31.55" fill="#6c9fd1"/>
              <path id="Trazado_26050" data-name="Trazado 26050" d="M189.141,237.327a24.322,24.322,0,0,0-11.667-31.549,24.321,24.321,0,0,0-19.353,44.577,24.323,24.323,0,0,0,31.02-13.028" fill="#c9dce7"/>
            </g>
          </g>
        </g>
        <rect id="Rectángulo_3913" data-name="Rectángulo 3913" width="13.355" height="4.398" transform="matrix(0.398, -0.917, 0.917, 0.398, 150.083, 262.858)" fill="#171614"/>
        <path id="Trazado_26051" data-name="Trazado 26051" d="M138.283,288.4c-.141.329-.07.677.164.777l4.746,2.06c.235.1.537-.091.679-.413l.616-1.441-5.588-2.425Z" fill="#171614"/>
        <path id="Trazado_26052" data-name="Trazado 26052" d="M155.044,264.739c.144-.332.069-.683-.165-.781l-4.744-2.06c-.237-.1-.539.088-.678.415l-.473,1.084,5.593,2.431Z" fill="#3869ac"/>
        <path id="Trazado_26053" data-name="Trazado 26053" d="M148.984,263.4,138.9,286.958l5.588,2.426,10.089-23.556Z" fill="#171614"/>
        <g id="Grupo_30423" data-name="Grupo 30423" opacity="0.8">
          <g id="Grupo_30422" data-name="Grupo 30422">
            <g id="Grupo_30421" data-name="Grupo 30421" clip-path="url(#clip-path-4)">
              <path id="Trazado_26054" data-name="Trazado 26054" d="M169.053,211.4a2.718,2.718,0,1,1-1.4-3.58,2.708,2.708,0,0,1,1.4,3.58" fill="#fff"/>
            </g>
          </g>
        </g>
        <path id="Trazado_26055" data-name="Trazado 26055" d="M152.142,272.709s-.507-2.715-.876-2.475-.552,1.8-.3,2.672a10.128,10.128,0,0,0,.805,1.87,3.135,3.135,0,0,0,.374-2.067" fill="#f8c4b4"/>
        <path id="Trazado_26056" data-name="Trazado 26056" d="M140.94,281.645a8.456,8.456,0,0,1,2.338.39c.495.306.008.519-1.376.714a3.892,3.892,0,0,0-2.127,1.216,2.388,2.388,0,0,1-.751.122Z" fill="#f8c4b4"/>
        <path id="Trazado_26057" data-name="Trazado 26057" d="M138.043,282.891s-20.474,11.985-20.834,11.985-9.373-11.865-13.342-9.984c-8.345,3.953-6.56,10.646,4.942,14.87s13.836,2.582,17.43-1.012,13.219-13.7,13.219-13.7Z" fill="#4ea9a9"/>
        <path id="Trazado_26058" data-name="Trazado 26058" d="M126.884,286.971s10.363,5.895,15.921,10.687l6.93-22.044,3.234.235s-1.174,29.068-6.361,31.4c-5.128,2.31-28.162-4.964-31.322-10.323s9.454-10.6,11.6-9.959" fill="#63c0c2"/>
        <path id="Trazado_26059" data-name="Trazado 26059" d="M91.783,405.991a1.97,1.97,0,0,0,.725-.29.712.712,0,0,1-.434-.43,23.876,23.876,0,0,1-.182-3.2l-2.884-.36s-.338,3.352-.342,3.765c0,.082-.013.261-.029.487a24.828,24.828,0,0,0,3.146.029" fill="#bad1e7"/>
        <path id="Trazado_26060" data-name="Trazado 26060" d="M88.506,408.067c.018-.646.091-1.537.131-2.1a25.018,25.018,0,0,0,3.146.029,1.97,1.97,0,0,0,.725-.29c.479.222,1.268.315,2.006.674a1.609,1.609,0,0,1,.868,1.4c-1,.128-3.578.456-4.5.468a18.486,18.486,0,0,1-2.38-.174" fill="#171614"/>
        <path id="Trazado_26061" data-name="Trazado 26061" d="M90.873,408.152c.92-.018,3.5-.34,4.5-.472a2.455,2.455,0,0,1-.007.494s-2.711.365-3.771.561a14.092,14.092,0,0,1-3.069-.025,3.185,3.185,0,0,1-.028-.733,17.9,17.9,0,0,0,2.378.175" fill="#3869ac"/>
        <path id="Trazado_26062" data-name="Trazado 26062" d="M91.918,332.2s.718,27.854,1.8,34.862c0,0-5.151,26.693-5.54,38.5l4.921-.024s10.5-30.753,12.12-40.457,2.156-30.368,2.156-30.368Z" fill="#171614"/>
        <path id="Trazado_26063" data-name="Trazado 26063" d="M128,399.608l.154,6.362,0,0c-.127.328-.305.69-.493.69-.251,0-2.433-.069-3.628-.107l-.6-6.4Z" fill="#bad1e7"/>
        <path id="Trazado_26064" data-name="Trazado 26064" d="M133.635,408.322a.5.5,0,0,1,.051.44h-9.049l-.17-.65c2.522.09,7.74.185,9.168.21" fill="#3869ac"/>
        <path id="Trazado_26065" data-name="Trazado 26065" d="M124.037,406.556c1.195.038,3.377.106,3.628.106.187,0,.366-.361.493-.689,4.119.983,5.212,1.916,5.477,2.441-1.428-.024-6.646-.121-9.168-.212Z" fill="#171614"/>
        <path id="Trazado_26066" data-name="Trazado 26066" d="M105.932,337.14s6.875,19.946,12.131,31.672c0,0,4.268,32.481,5.391,37.11l5.121-.046s1.618-34.5.539-40.164-8.166-35.838-8.166-35.838Z" fill="#171614"/>
        <path id="Trazado_26067" data-name="Trazado 26067" d="M120.947,329.874c-.02.432-.042.832-.076,1.186-.376,3.831.6,8.076-5.926,9.081s-19.57,1.625-22.269-3.9a15.684,15.684,0,0,1-1.159-6.612c10.961,1.672,24.743.669,29.43.248" fill="#171614"/>
        <path id="Trazado_26068" data-name="Trazado 26068" d="M114.284,283.611c-4.646-.248-7.5-1.166-12.349,1.325-5.37,2.761-10.49,20.045-10.879,24.421-.311,3.491-1.5,11.529-1.109,16.56l.005,0c.114,2.241.611,5.392.611,5.392,1.455.96,9.091-.521,12.208-.537s6.6.608,11.378.6c6.818-.016,8.65-2.347,8.65-2.347.728-4.05,1.381-13.223,2.072-16.416.607-2.818,4.586-19.763,4.107-23.452s-14.694-5.547-14.694-5.547" fill="#63c0c2"/>
      </g>
    </g>
  </g>
</svg>
