<svg xmlns="http://www.w3.org/2000/svg" xmlns:xlink="http://www.w3.org/1999/xlink" viewBox="0 0 750 500"><defs><style>.cls-1{isolation:isolate;}.cls-12,.cls-2,.cls-25,.cls-27,.cls-28,.cls-5,.cls-7{fill:#0e263f;}.cls-3,.cls-4{fill:#fff0e3;}.cls-3{opacity:0.5;}.cls-5{font-size:8.07px;}.cls-12,.cls-23,.cls-25,.cls-29,.cls-32,.cls-5,.cls-7{font-family:Arvo-Bold, Arvo Bold;font-weight:700;}.cls-6{letter-spacing:-0.06em;}.cls-7{writing-mode:tb;text-orientation:upright;glyph-orientation-vertical:0deg;font-size:9.44px;}.cls-17,.cls-18,.cls-19,.cls-20,.cls-21,.cls-22,.cls-8{font-family:Arvo;font-weight:400;}.cls-8{letter-spacing:0em;}.cls-10,.cls-37,.cls-9{fill:none;}.cls-10,.cls-9{stroke:#0e263f;stroke-miterlimit:10;}.cls-10{stroke-width:0.5px;}.cls-11,.cls-23,.cls-29,.cls-32{fill:#efa630;}.cls-12{font-size:6.36px;letter-spacing:-0.01em;}.cls-13{letter-spacing:0.02em;}.cls-14{letter-spacing:0.01em;}.cls-15{letter-spacing:0.02em;}.cls-16,.cls-22{letter-spacing:0em;}.cls-17{letter-spacing:0em;}.cls-18{letter-spacing:0.03em;}.cls-19{letter-spacing:0.02em;}.cls-20{letter-spacing:0.01em;}.cls-21{letter-spacing:0.02em;}.cls-23,.cls-25,.cls-29,.cls-32{font-size:10.07px;}.cls-24{letter-spacing:0.02em;}.cls-26{letter-spacing:-0.04em;}.cls-27,.cls-40,.cls-48{opacity:0.4;}.cls-28,.cls-49{opacity:0.2;}.cls-29{letter-spacing:-0.03em;}.cls-30{letter-spacing:0em;}.cls-31{letter-spacing:-0.02em;}.cls-32{letter-spacing:-0.01em;}.cls-33{letter-spacing:0.01em;}.cls-34{opacity:0.3;}.cls-34,.cls-42,.cls-45,.cls-48{mix-blend-mode:multiply;}.cls-35{fill:#3d270e;}.cls-36{opacity:0.85;}.cls-38,.cls-49{fill:#fff;}.cls-39{fill:#ada499;}.cls-40{fill:#57442e;}.cls-41{fill:#918577;opacity:0.8;}.cls-42,.cls-46,.cls-47,.cls-48{fill:#bfbfbf;}.cls-43{fill:url(#linear-gradient);}.cls-44{fill:#eaa434;}.cls-47{opacity:0.7;}.cls-50{fill:#d18618;}</style><linearGradient id="linear-gradient" x1="36.92" y1="305.3" x2="231.66" y2="305.3" gradientUnits="userSpaceOnUse"><stop offset="0" stop-color="#efa630"/><stop offset="1" stop-color="#d18618"/></linearGradient></defs><g class="cls-1"><g id="BACKGROUND"><rect class="cls-2" width="750" height="500"/></g><g id="OBJECTS"><path class="cls-3" d="M153.63,104.26,155.05,119a10.69,10.69,0,1,1,2,21.29l1.19,12.43A10.69,10.69,0,0,1,160.33,174l1.19,12.43a10.69,10.69,0,1,1,2,21.29l1.2,12.43a10.69,10.69,0,1,1,2,21.29L168,253.87a10.69,10.69,0,0,1,2,21.29l1.19,12.43a10.69,10.69,0,1,1,2,21.29l1.2,12.43a10.69,10.69,0,1,1,2,21.29L177.7,355a10.7,10.7,0,0,1,2.05,21.3l1.19,12.42a10.7,10.7,0,0,1,2,21.3l1.42,14.73,523.69-50.26L677.32,54Z"/><path class="cls-3" d="M161,95.73l1.05,14.76a10.7,10.7,0,0,1,1.51,21.34l.88,12.45A10.7,10.7,0,0,1,166,165.62l.88,12.45a10.7,10.7,0,1,1,1.51,21.34l.88,12.45a10.7,10.7,0,1,1,1.51,21.34l.88,12.45A10.7,10.7,0,1,1,173.13,267l.88,12.45a10.7,10.7,0,1,1,1.51,21.34l.89,12.45a10.7,10.7,0,0,1,1.51,21.34L178.8,347a10.7,10.7,0,0,1,1.51,21.34l.88,12.45a10.7,10.7,0,0,1,1.51,21.34l1,14.76,524.79-37.14L685.8,58.59Z"/><path class="cls-4" d="M155,101.33l1.42,14.73a10.69,10.69,0,1,1,2.06,21.29l1.2,12.43a10.69,10.69,0,1,1,2.06,21.29l1.2,12.42a10.7,10.7,0,0,1,2.05,21.3l1.2,12.42a10.7,10.7,0,0,1,2.06,21.3l1.2,12.42a10.69,10.69,0,1,1,2.06,21.29l1.2,12.43a10.69,10.69,0,0,1,2.05,21.29l1.2,12.42a10.7,10.7,0,1,1,2.06,21.3l1.2,12.42a10.7,10.7,0,0,1,2.06,21.3l1.19,12.42a10.69,10.69,0,1,1,2.06,21.29l1.42,14.73L709.6,371.25l-31-320.49Z"/><path class="cls-2" d="M436.23,120.57v.05s0-.06,0-.07a.59.59,0,0,0,0-.13,1.6,1.6,0,0,0-.1-.31.28.28,0,0,0-.2-.15.31.31,0,0,0-.27-.11c-3.43.67-7,1-10.43,1.35-1.72.18-3.45.35-5.17.5l-2.59.23a6.52,6.52,0,0,0-2,.29h0a.12.12,0,0,0-.19.08h0a.06.06,0,0,0,0,.09h0a2,2,0,0,0,.62,1,2.91,2.91,0,0,0,1.12.81,3.57,3.57,0,0,0,.83.24.67.67,0,0,0,0,.28,1.66,1.66,0,0,0,.8.79,2.8,2.8,0,0,0,.86.28h.21l0,0a2.84,2.84,0,0,0,.15,3.33,3.29,3.29,0,0,0,1.73,1.25,1.65,1.65,0,0,0,1.57-.36c.5,6.08,1.15,12.15,1.74,18.22q1.1,11.19,2.21,22.37l.63,6.22c.1,1.08.23,2.15.27,3.24,0,.49.07,1,.09,1.49s0,1.17,0,1.76a.66.66,0,0,0,1.31-.13c-.09-.91-.32-1.81-.45-2.72s-.28-2-.38-3c-.19-1.87-.37-3.73-.56-5.6l-1.14-11.31c-.74-7.45-1.53-14.91-2.31-22.36-.36-3.51-.71-7-1.14-10.52a16.48,16.48,0,0,0,1.72-.21l2.05-.27,2.16-.27c.06.37.1.75.16,1.13a1,1,0,0,0-.82-.14,1.25,1.25,0,0,0-.82.72,1.36,1.36,0,0,0-.05.89s0,.05,0,.09c0,1.67.28,3.32.45,5s.31,3.15.47,4.72c.32,3.27.65,6.55,1,9.82q1,9.75,1.89,19.52c.34,3.65.57,7.31,1.14,10.93a.13.13,0,0,0,.26,0c-.11-3.25-.51-6.48-.84-9.71s-.65-6.55-1-9.82c-.63-6.51-1.23-13-1.84-19.53-.17-1.78-.33-3.56-.5-5.34s-.23-3.67-.56-5.46a1.64,1.64,0,0,1,.24-.95c.26-.31.49-.11.59.2a12.66,12.66,0,0,1,.41,2.21c.13.81.25,1.63.43,2.43s.26,1.62.46,2.41a.16.16,0,0,0,.18.12c0,.11,0,.23,0,.35.45,3.66.87,7.34,1.28,11,.82,7.39,1.57,14.78,2.12,22.2.16,2,.26,4.06.39,6.09s.35,4.23.35,6.35c0,.5.49.67.89.55a.81.81,0,0,0,.47.34,1,1,0,0,0,1.05-.41l.18-.1a.68.68,0,0,0,.29-.64c-.14-.71-.24-1.43-.32-2.16-.08-1.19-.17-2.38-.25-3.56l-.39-5.47q-.4-5.53-.9-11c-.65-7.29-1.45-14.55-2.34-21.81q-.58-4.74-1.25-9.47a2,2,0,0,0,1.31.47,2.47,2.47,0,0,0,2.23-2,3,3,0,0,0-.87-2.73,2.35,2.35,0,0,0-.77-.47,2.27,2.27,0,0,0,.68-.8,2.09,2.09,0,0,0,.21-.56.23.23,0,0,0,.12-.17,1,1,0,0,0,.65-.32,1.73,1.73,0,0,0,.36-.52,1.39,1.39,0,0,0,.14-.67A.36.36,0,0,0,436.23,120.57Zm-17.87,3.08a3.51,3.51,0,0,1-1.09-.16,4,4,0,0,1-1-.49,2.52,2.52,0,0,1-.53-.5,9.61,9.61,0,0,0,1.78-.08l2.46-.19c1.77-.16,3.54-.33,5.3-.51,2.41-.25,4.83-.57,7.24-.84a.67.67,0,0,0-.08.59c0,.06.05.11.07.17h0l0,.06,0,.09,0,0h0a.94.94,0,0,0,.09.12h.05l-2,.27-4.17.48c-2.64.3-5.29.6-7.93,1Zm4.71,5.6s-.07,0-.12,0-.34.26-.52.36a1.21,1.21,0,0,1-1.13-.14,2.47,2.47,0,0,1-1.3-2,1.79,1.79,0,0,1,1.15-1.69.88.88,0,0,1,1,.18,1.27,1.27,0,0,1,.08,1.14c-.12.29-.53.62-.84.39a.3.3,0,0,1-.12-.26.58.58,0,0,1,0-.18s0-.07.05-.11l0-.06h0c.21-.16.1-.55-.19-.5a.76.76,0,0,0-.62.38,1.12,1.12,0,0,0-.09.72,1.14,1.14,0,0,0,1.26.89,1.48,1.48,0,0,0,1.17-.87.35.35,0,0,0,0,.17C423,128.18,423,128.71,423.07,129.25Zm6.16-3-2.1.32-2,.28c-.56.08-1.16.12-1.72.25-.08-.33-.12-.67-.22-1l-.06-.44a.18.18,0,0,0-.18-.16c1.35-.15,2.71-.34,4.06-.51l2.47-.29a.77.77,0,0,0-.41.78C429.15,125.73,429.18,126,429.23,126.23Zm7,55.38-.12.06c-.12-1.16-.19-2.32-.25-3.48C436,179.33,436.14,180.47,436.21,181.61Zm-6.06-57.7c-1.1.16-2.19.32-3.29.46-1.54.21-3.09.38-4.63.62a1.81,1.81,0,0,0-1.39,0l-.22,0-.18,0h-.1c-.11,0-.24,0-.35,0l-.17,0-.08,0h0l-.32-.15h0l-.06-.05-.13-.09-.13-.12-.06-.06,0,0,0,0v0l.06-.05h0a1.4,1.4,0,0,0,.3-.15c2.43-.25,4.86-.53,7.29-.81l4.05-.46c.38,0,.76-.08,1.15-.12a.69.69,0,0,0-.07.15.61.61,0,0,0-.05.33l.06.22a.76.76,0,0,0,.11.16h0Zm4.15.9a1.89,1.89,0,0,1-.46,3.1.8.8,0,0,1-.82-.13,1.92,1.92,0,0,1-.28-.32,1.59,1.59,0,0,0-.36-.37.83.83,0,0,1,0-.15.2.2,0,0,0-.37-.07c-.06-.37-.1-.73-.16-1.1.26.4,1.07.91,1.44.36a.28.28,0,0,0,0-.38c-.22-.17-.54-.17-.7-.43a.56.56,0,0,1,.11-.67C433.09,124.12,433.86,124.4,434.3,124.81Z"/><path class="cls-2" d="M427.05,132a7.89,7.89,0,0,0-.18-1.17c-.14-.64-.28-1.53-1-1.83a.86.86,0,0,0-.91.11,1.56,1.56,0,0,0-.42.86,3.49,3.49,0,0,0-.05,1.07,1.7,1.7,0,0,0,.17.73c.05,1.51.21,3,.35,4.52.16,1.77.34,3.53.51,5.3s.36,3.53.55,5.29.33,3.62.66,5.41a.11.11,0,0,0,.22,0c0-1.82-.22-3.63-.38-5.44s-.3-3.53-.48-5.3-.33-3.53-.51-5.29c-.15-1.5-.28-3-.52-4.49a2.62,2.62,0,0,0,0-.62,3.44,3.44,0,0,1,.05-.85,1.32,1.32,0,0,1,.25-.7c.15-.15.38,0,.49.11a1.8,1.8,0,0,1,.28.74c.06.31.12.62.17.93s.09.46.13.69a8.83,8.83,0,0,0,0,.89c.1.83.16,1.66.24,2.49.17,1.65.33,3.31.49,5l1,9.95q1,9.81,1.93,19.64l.53,5.48a49.87,49.87,0,0,0,.64,5.71.18.18,0,0,0,.36,0,44,44,0,0,0-.4-5l-.48-5-1-9.95c-.64-6.55-1.23-13.11-1.84-19.66-.17-1.82-.34-3.65-.52-5.47-.09-.91-.17-1.83-.26-2.74,0-.35-.09-.69-.15-1A1.88,1.88,0,0,0,427.05,132Z"/><path class="cls-2" d="M428.92,169c-.23-2.06-.44-4.13-.69-6.2s-.42-4.22-.75-6.31a0,0,0,0,0-.07,0c.08,2.08.31,4.15.46,6.22s.34,4.23.52,6.34c.34,4.18.38,8.43,1.32,12.53a.16.16,0,0,0,.31,0C430.16,177.3,429.38,173.12,428.92,169Z"/><path class="cls-2" d="M421,159.62a15.35,15.35,0,0,0-1.8.72c-.59.29-1.16.6-1.74.9L414,163.07l-4.76,2.54-.48-4.91q-.9-9.36-1.81-18.74c-.08-.84-.17-1.68-.25-2.52l.19-.05,3.61-.86,1.92-.45a5.43,5.43,0,0,0,1.69-.51.2.2,0,0,0-.08-.36,5.08,5.08,0,0,0-1.58.26l-1.92.46-3.61.86-.28.07c-.25-2.48-.49-5-.75-7.44a.27.27,0,0,0-.54.05c.22,2.51.47,5,.7,7.54-2.11.51-4.21,1-6.32,1.56l-5,1.29c-.33-3.26-.65-6.52-1-9.78a.2.2,0,0,0-.4,0c.29,3.29.6,6.58.9,9.87l-1.64.42c-2.46.65-4.94,1.27-7.36,2.08-.07,0,0,.15,0,.13,2.44-.47,4.85-1.12,7.25-1.71l1.77-.44q1.38,14.92,2.79,29.83l-3.61,2q-3.89,2.21-7.7,4.52c-.16.1,0,.32.17.23q5.61-3.06,11.2-6.16l.1,1.05c.18,1.94.37,3.89.56,5.83s.52,3.95.8,5.94a.12.12,0,0,0,.23,0c-.09-1.74-.11-3.49-.27-5.23s-.34-3.48-.51-5.22c-.08-.89-.18-1.79-.27-2.69q5.47-3,11-6c.07.74.14,1.49.22,2.23.34,3.52.7,7,1.19,10.53a.14.14,0,0,0,.28,0c-.25-4.37-.66-8.72-1.08-13.06l4.27-2.29,3.79-2,2-1a17.86,17.86,0,0,0,1.81-1.15A.13.13,0,0,0,421,159.62Zm-12.38,6.32-1.5.8q-4.74,2.56-9.45,5.2c-.24-2.36-.47-4.73-.71-7.1q-1.05-10.49-2.08-21l-.15-1.52,4.94-1.22,6.43-1.55Q407.34,152.76,408.63,165.94Z"/><path class="cls-2" d="M487,146.11a2,2,0,0,0-1-.14c-.31,0-.63.05-1,.05a5.31,5.31,0,0,1-.89,0c-.33,0-.66-.12-1-.2l-.14,0a1.69,1.69,0,0,1-.11-.34l-.36-1a8.5,8.5,0,0,0-.42-1c-.05-.08-.1-.18-.16-.27s0-.12-.05-.18c-.21-1.06-.37-2.14-.48-3.22s-.17-2.14-.2-3.21a16.35,16.35,0,0,0,2-3.72,17.86,17.86,0,0,0,.56-2,.25.25,0,0,1,.12,0,.81.81,0,0,1,.45.34,2.4,2.4,0,0,1,.37,1.36,2.31,2.31,0,0,1-.35,1.28,1.63,1.63,0,0,1-.42.45c-.18.14-.4.19-.58.33s-.17.58.14.6a2,2,0,0,0,1.49-1,2.91,2.91,0,0,0,.44-1.89,2.71,2.71,0,0,0-.71-1.76,1.33,1.33,0,0,0-.81-.36h0a9.7,9.7,0,0,0,.08-2.75c0-.25-.1-.5-.15-.75l-.06-.28c0-.1,0-.2-.06-.3a.11.11,0,0,0,0-.05,9.48,9.48,0,0,0-1-2.63c-.06-.14-.13-.27-.2-.41a4.7,4.7,0,0,0-1-1.57,2.5,2.5,0,0,0-2.72-.7,3.2,3.2,0,0,0-1.37,1.26l-.09-.07a1.92,1.92,0,0,1,0-.24,4.32,4.32,0,0,1,.23-1.29.17.17,0,0,0-.3-.14,4.62,4.62,0,0,0-.44,1,6,6,0,0,0-.69-.9,4.89,4.89,0,0,0-.47-.44,5.48,5.48,0,0,0-.52-.31c-.11-.07-.21.09-.15.19a2.44,2.44,0,0,1,.14.28,1.94,1.94,0,0,0,.15.24c.1.18.22.34.33.51l.12.21a6.6,6.6,0,0,0-2.15-.4,7.63,7.63,0,0,0-3.05.62c-.6.24-2.11.84-2.56,0-.11-.18-.41,0-.33.18a3.24,3.24,0,0,0,.17.32.42.42,0,0,0-.25.32.77.77,0,0,1,0,.15.56.56,0,0,0-.07.69c0,.37-.11.75-.16,1.12a.51.51,0,0,0,0,.13c0,.06,0,.12,0,.18v.06c0,.25-.06.49-.1.74a3.55,3.55,0,0,1-.19.71l-.28.75a.22.22,0,0,0,.37.23c.07-.07.12-.15.18-.22,0,.64.09,1.29.19,1.93.23,1.46.4,2.95.72,4.4a2,2,0,0,0-.43.27.32.32,0,0,1-.35.07c-.37-.11-.54-.53-.62-.88a3.83,3.83,0,0,1,0-1.47c0-.17.08-.33.12-.49a.67.67,0,0,0,.17-.5s0,0,0,0a.43.43,0,0,1,0-.07s0-.06,0-.08a.34.34,0,0,0-.28,0l-.08.06-.18.1h0a.66.66,0,0,0-.33.44l-.16.28a2.68,2.68,0,0,0-.34,1.27,2.28,2.28,0,0,0,.29,1.14,1.85,1.85,0,0,0,.59.64l0,0a.26.26,0,0,0,.1.07,1.48,1.48,0,0,0,.68.42,1.31,1.31,0,0,0,.93-.12l.23-.14c.08.29.16.6.27.89a.14.14,0,0,0,0,.06v0a22.31,22.31,0,0,1,1,5.37,17.64,17.64,0,0,1-.45,5.42c-.13.54.75.7.84.15a21.55,21.55,0,0,0-.32-8.87,11.15,11.15,0,0,0,1.82,2.06,15.1,15.1,0,0,0,2.08,1.48c.58.35,1.88.75,2.05,1.49h0l0,.15c.19.62,1.27.38,1.12-.26a.66.66,0,0,0-.05-.15h0c-.31-1,1.09-1.75,1.7-2.29a6.79,6.79,0,0,0,.6-.6,35.69,35.69,0,0,0,1.34,9.23.33.33,0,0,0,0,.14l-.17.1a8.53,8.53,0,0,1-3.28.89,12,12,0,0,1-3.64-.32,28.48,28.48,0,0,1-3.67-1.49.2.2,0,0,0-.2.33,11.07,11.07,0,0,0,3.68,1.76,10.28,10.28,0,0,0,4,.53,10.65,10.65,0,0,0,3.73-1l.79,1.35a4.74,4.74,0,0,0,1.21,1.72c.27.17.58-.13.56-.4a2.78,2.78,0,0,0-.61-1.29l.16,0a.31.31,0,0,0,.23,0,1,1,0,0,0,.41-.49c.07-.11.13-.23.2-.35a.91.91,0,0,0,.16-.13,1.88,1.88,0,0,0,.14-.24l.21-.39s.1-.22,0-.06c0-.1.12-.19.17-.29s.13-.26.2-.38a.71.71,0,0,0-.27-.92l.24,0c.33,0,.66-.11,1-.15a4.21,4.21,0,0,1,.5,0,4.51,4.51,0,0,0,.52,0A.56.56,0,0,0,487,146.11Z"/><path class="cls-2" d="M503.26,174.18c-.07-.68-.16-1.36-.28-2a35.68,35.68,0,0,0-.85-3.82,53.13,53.13,0,0,0-2.44-7c-1.74-4.05-4.08-7.89-7.94-10.22l-.25-.14a8.48,8.48,0,0,0-.11-2.62c0-.16.08-.31.11-.47a.5.5,0,0,0-.28-.52,10.32,10.32,0,0,0-3.38-1.1,3.35,3.35,0,0,0-3,1,5.8,5.8,0,0,0-1.84,5.39,73.07,73.07,0,0,0-8.59.86c-.55-.12-1.09-.23-1.65-.31l-.28,0-.2,0h0s-.11-.22-.15-.3c-.22-.4-.44-.79-.68-1.17a17.91,17.91,0,0,0-1.48-2,3.79,3.79,0,0,0-2-1.42.35.35,0,0,0-.11,0,.47.47,0,0,0-.35,0,20.12,20.12,0,0,0-3.56,1.11,3.49,3.49,0,0,0-1.4,1.32,72.68,72.68,0,0,1-10.27-11.7.22.22,0,0,0-.36.26,66.53,66.53,0,0,0,10.42,12.17,1.5,1.5,0,0,0,0,.3c-.33.26-.68.46-1,.75s-.7.7-1,1.08a18.73,18.73,0,0,0-1.67,2.2,25.69,25.69,0,0,0-2.57,5,28.42,28.42,0,0,0-1.53,5.81,19.58,19.58,0,0,0-.19,3.16c0,1.12,0,2.25,0,3.37s.1,2.49.19,3.73c0,.62.11,1.24.16,1.86s-.09,1,.43,1.29a.31.31,0,0,0,.38-.09c.31-.32.19-.61.1-1a15.75,15.75,0,0,1-.22-1.68c-.12-1-.19-2.09-.22-3.14a32.43,32.43,0,0,1,.05-3.27,29.56,29.56,0,0,1,.47-3.09,30.81,30.81,0,0,1,3.5-10.56,22.45,22.45,0,0,1,1.76-2.57c.3-.39.62-.77.95-1.14s.49-.62.74-.92c0,0,0,0,0,0l.32.65a10.88,10.88,0,0,1,.33,2,16.63,16.63,0,0,1-.25,3.3,68,68,0,0,0-.79,7.12,54.62,54.62,0,0,0,1.33,14.36,1,1,0,0,0,1.85.28.24.24,0,0,0,.37-.22,20.6,20.6,0,0,0-.47-3.66c-.2-1.22-.38-2.44-.55-3.66-.09-.71-.16-1.42-.25-2.14a2.23,2.23,0,0,0,1.94,1,16.74,16.74,0,0,0,3.81.05c1.55-.15,3.09-.32,4.63-.51.06.24.1.48.16.72a2.93,2.93,0,0,0,.27.87l.1.11a1.14,1.14,0,0,0,.52.8,2.46,2.46,0,0,0,1.08.06,9.81,9.81,0,0,0,1.09-.1c.72-.09,1.45-.17,2.17-.29a.72.72,0,0,0,.65-.78c0-.38-.08-.76-.1-1.13s0-.68-.09-1l5.58-.74c.47-.06,1-.09,1.48-.15.63.24.54,1.23.6,1.8.2,2,.42,4.07.6,6.11a.63.63,0,0,0,.51.55.9.9,0,0,0,.23,0,.46.46,0,0,0,.67.07,1.67,1.67,0,0,0,.26.17,1.06,1.06,0,0,0,.65.13h.08a.67.67,0,0,0,.56-.34.58.58,0,0,0,.62-.34,1.27,1.27,0,0,0,1.68-.19l0,0a.54.54,0,0,0,.27.11h0a1.05,1.05,0,0,0,.31,0l.22,0,.53-.05a.68.68,0,0,0,.55-.45l.19.27c.35.5,1.15-.08.76-.55-2.55-3.14-2.92-7.31-3.65-11.15a60.58,60.58,0,0,1-.94-6.28,29.93,29.93,0,0,1-.08-3.28,4.73,4.73,0,0,1,.12-1.41l0,0,.25.2a13.1,13.1,0,0,1,2,2.58,30.61,30.61,0,0,1,2.95,6,76.72,76.72,0,0,1,3.4,13.19,1,1,0,0,0,1.93.05.57.57,0,0,0,.26-.47A13.31,13.31,0,0,0,503.26,174.18Zm-38.45-24.29a8.62,8.62,0,0,1,2.19-.7,2.26,2.26,0,0,0,.22.44c.14.24.29.47.43.7.25.43.5.86.73,1.31a11.1,11.1,0,0,1,.61,1.41c.1.25.18.51.26.77a5.08,5.08,0,0,0,.23.69,12.63,12.63,0,0,0-1.64.55c-.66-.51-1.33-1-2-1.55s-1.12-.95-1.67-1.43a2.22,2.22,0,0,0-.53-.57A2.34,2.34,0,0,1,464.81,149.89Zm.1,4.09c0-.16-.09-.34-.14-.51.78.64,1.56,1.27,2.36,1.88a7.23,7.23,0,0,0-1.89,1.3c0-.23,0-.46,0-.64A11.7,11.7,0,0,0,464.91,154Zm14.43,16.83a4.07,4.07,0,0,0,0,.78l-.24,0c-.27.05-.55.08-.83.11a8.9,8.9,0,0,1-1.46,0l-.26,0c0-.18-.11-.38-.16-.55s-.05-.16-.07-.25l3-.38Zm9.81-12.61a51.73,51.73,0,0,1,0,6.1l-.09,1.46a2.71,2.71,0,0,1-.13,1c-.18.3-.81.31-1.11.36l-1.56.29c-1.81.32-3.65.59-5.48.83a2.59,2.59,0,0,0-.77-1,.12.12,0,0,0-.09,0,.74.74,0,0,0-.23-.14,2.45,2.45,0,0,0-1.11,0l-1,.11-1.05.1h0a.81.81,0,0,0-.89-.2c-.12.06-.33.18-.4.2a.57.57,0,0,0-.33.28.41.41,0,0,0-.31.43c0,.15,0,.31,0,.46s.05.31.07.46l.18,1s0,.05,0,.08l-3.29.46c-1.07.15-2.15.28-3.22.36a14.54,14.54,0,0,1-1.62.05c-.74,0-1.46-.08-1.64-.94-.24-1.17-.3-2.41-.45-3.6A31.23,31.23,0,0,0,464,163l.06-1.12a20.62,20.62,0,0,0,.52-2.6,6,6,0,0,1,3.34-3.34c.62.47,1.25.93,1.88,1.37s1.4.93,2.11,1.38h-.07a.22.22,0,0,0-.12.28c.06.21.09.42.13.62a3.79,3.79,0,0,0-.05,1.74c.07.69.16,1.37.24,2.06a.37.37,0,0,0,.4.33c1.47-.11,2.94-.23,4.4-.36l2.2-.18a4.91,4.91,0,0,0,2-.28.28.28,0,0,0-.05-.48l-.17,0c0-.73,0-1.45,0-2.17,0-.38,0-.75,0-1.13a2.87,2.87,0,0,0-.09-.82,3.28,3.28,0,0,0,0-.43.38.38,0,0,0-.4-.33,23.6,23.6,0,0,0-4.26.58c-.7.13-1.41.25-2.12.33l-1.15.1c-.64-.41-1.28-.81-1.9-1.23-.77-.53-1.52-1.07-2.26-1.62l.05,0a23.16,23.16,0,0,1,2.48-.65.76.76,0,0,0,.21,0,.77.77,0,0,0,.48-.18c1.18-.23,2.38-.41,3.55-.58,2.38-.35,4.77-.59,7.17-.74,1.92-.12,4.39-.47,6,.85a3.29,3.29,0,0,1,.24.92A25.74,25.74,0,0,1,489.15,158.2Zm-15.64,3.49a4.08,4.08,0,0,0,.61.09,2.23,2.23,0,0,0,.68-.05c.24,0,.47-.09.7-.15s.43-.1.64-.18c.61-.22.52-.94.32-1.42a1.12,1.12,0,0,0-.21-.37.88.88,0,0,0-.27-.24c-.22-.1-.35.11-.4.3a.48.48,0,0,0-.09.27v.16c-.56-.31-1.12-.62-1.67-.95H474c.74-.07,1.47-.17,2.2-.31a27.3,27.3,0,0,1,3.91-.57c0,.09,0,.18.05.27a.28.28,0,0,0,.18.2v.41c0,.38,0,.75,0,1.13,0,.7,0,1.4,0,2.1l-.28,0-1,.08-2.2.18c-1.35.1-2.69.2-4,.32-.07-.57-.14-1.13-.23-1.7a4.67,4.67,0,0,0-.32-1.45l0-.65a3.66,3.66,0,0,0,.57.05c.79.48,1.58,1,2.4,1.47h0c-.3.09-.59.2-.88.31a4.63,4.63,0,0,0-.43.24,1.85,1.85,0,0,0-.37.25A.11.11,0,0,0,473.51,161.69Zm16.68-13.59a3,3,0,0,1-.17.5c-.16.36-.37.69-.56,1,0,.09-.09.19-.15.29a8.34,8.34,0,0,0-4-.47c-.13,0-.15.22,0,.23a18,18,0,0,1,3.69.83c-.23.45-.48.91-.7,1.37a4.68,4.68,0,0,0-.18.48l-.13,0c-.13.06-.46.18-.57.45a7.77,7.77,0,0,0-2.35-.28l-1.33,0s0,0,0,0a6.45,6.45,0,0,1,1.7-4.54,3.54,3.54,0,0,1,1.09-.79,2.5,2.5,0,0,1,1.53,0,10.39,10.39,0,0,1,2.14.65Z"/><path class="cls-2" d="M403.65,143.47c-1.43,4.09-2.78,8.21-4.17,12.32-.12.37.44.63.56.26,1.35-4.15,2.67-8.31,3.86-12.51C403.94,143.4,403.7,143.33,403.65,143.47Z"/><path class="cls-2" d="M401.81,154.19a10.46,10.46,0,0,0-.78,1.7c0,.14-.1.28-.14.42a3.9,3.9,0,0,0-.12.46c0,.16,0,.31,0,.47a1.43,1.43,0,0,0,0,.46.14.14,0,0,0,.27,0,1.55,1.55,0,0,0,.14-.43c0-.14.09-.26.14-.39.1-.29.15-.6.24-.89a14.32,14.32,0,0,1,.61-1.7A.16.16,0,0,0,401.81,154.19Z"/><path class="cls-2" d="M414.06,158.54c-.33.59-.63,1.19-.94,1.78-.16.3-.3.6-.45.91-.07.15-.13.3-.19.46a.45.45,0,0,0,0,.42.13.13,0,0,0,.16.08.51.51,0,0,0,.26-.33l.18-.47c.11-.31.23-.63.35-.94.24-.63.54-1.23.84-1.83C414.29,158.51,414.12,158.43,414.06,158.54Z"/><path class="cls-2" d="M420.25,164.47c-.45,1.25-.91,2.5-1.43,3.73-.25.6-.51,1.2-.77,1.8l-.4.9c-.1.23-.26.49-.15.74a.11.11,0,0,0,.15.07c.26-.09.33-.37.43-.61s.22-.57.33-.86c.25-.63.49-1.26.72-1.9.46-1.25.91-2.5,1.35-3.76C420.53,164.43,420.3,164.32,420.25,164.47Z"/><path class="cls-2" d="M416.21,170.62a9.63,9.63,0,0,0-.46,1.11q-.11.3-.18.6a1,1,0,0,0-.06.33.34.34,0,0,0,.16.28c.12.05.21,0,.28-.14a.8.8,0,0,0,.09-.31c0-.2.06-.4.1-.59a8.07,8.07,0,0,1,.31-1.17C416.51,170.58,416.28,170.47,416.21,170.62Z"/><path class="cls-2" d="M391.71,165.36l-.32.68s0,0,0,0c.1-.22.21-.44.32-.67C391.73,165.36,391.71,165.35,391.71,165.36Z"/><path class="cls-2" d="M390.55,168l-.84,2c-.14.33-.28.66-.41,1-.07.16-.13.33-.2.5a1.07,1.07,0,0,0-.14.52.23.23,0,0,0,.36.16.88.88,0,0,0,.24-.43c.07-.17.13-.33.19-.5l.38-1.05.73-2C390.93,167.9,390.64,167.76,390.55,168Z"/><path class="cls-2" d="M389.2,145.64l-.15.2a1.53,1.53,0,0,0-.14.21,3.21,3.21,0,0,0-.24.45,2.58,2.58,0,0,0-.18.46s0,.09,0,.14a.49.49,0,0,0,0,.17.85.85,0,0,0,0,.22.09.09,0,0,0,.14,0c.06,0,.09-.11.14-.16a1.06,1.06,0,0,0,.09-.11.76.76,0,0,1,0-.11c.05-.16.12-.31.17-.47s.1-.3.16-.45l.08-.23.09-.24C389.45,145.64,389.28,145.52,389.2,145.64Z"/><path class="cls-2" d="M391.43,136.6a.19.19,0,0,0-.24.11l-.24.74a.44.44,0,0,0,0,.16v.07l0,.2a1,1,0,0,0,0,.42.15.15,0,0,0,.26,0,.75.75,0,0,0,.17-.36l.07-.18a1.29,1.29,0,0,0,.07-.21c.05-.25.08-.51.12-.76A.22.22,0,0,0,391.43,136.6Z"/><path class="cls-2" d="M387.06,125.82a.6.6,0,0,0-.19-.22.87.87,0,0,0-.44-.26.43.43,0,0,0-.24.08c-.07,0-.1.11-.16.16s-.17.12-.25.16-.2.07-.29.11a.41.41,0,0,0-.15.14.17.17,0,0,0-.17,0,2.25,2.25,0,0,0-.93,1.72,1.33,1.33,0,0,0,.24.95,1,1,0,0,0,.94.33,2.26,2.26,0,0,0,1.46-1.43,3.16,3.16,0,0,0,.25-1,1.81,1.81,0,0,0,0-.52A.9.9,0,0,0,387.06,125.82Zm-.68,1.1a3,3,0,0,1-.59,1,1.35,1.35,0,0,1-.35.29,1,1,0,0,1-.22.1.19.19,0,0,1-.13,0,.35.35,0,0,1-.17-.27,1.57,1.57,0,0,1,0-.53,3.42,3.42,0,0,1,.39-1h0a1.14,1.14,0,0,0,.35-.26c.1-.14.12-.29.26-.41a.46.46,0,0,1,.18-.13.19.19,0,0,1,.13,0c.08,0,.21.08.26.17s0,.34,0,.5A2.17,2.17,0,0,1,386.38,126.92Z"/><path class="cls-2" d="M392.49,130.26a.94.94,0,0,0,0-.29c-.05-.23-.12-.45-.19-.68a4.14,4.14,0,0,0-.21-.59,1.46,1.46,0,0,0-.14-.31c-.07-.09-.13-.21-.24-.25a.18.18,0,0,0-.23.05.73.73,0,0,0-.09.32,1.87,1.87,0,0,0,0,.34c0,.23.08.44.13.66a1.21,1.21,0,0,1,0,.18,5,5,0,0,1-.49-.2L390,129c-.37-.16-.73-.34-1.11-.48l-.59-.22a1.07,1.07,0,0,0-.5-.1.06.06,0,0,0,0,.09,1.12,1.12,0,0,0,.41.3c.18.11.36.2.55.3s.7.34,1,.51l1.06.51c.18.1.37.18.55.29l.09.05-.36,0-1.24.11c-.2,0-.2.31,0,.35s.42.09.63.12.44,0,.66.05h.63a2.47,2.47,0,0,0,.67-.11A.3.3,0,0,0,392.49,130.26Z"/><path class="cls-2" d="M392.8,125.7c0-.09-.06-.18-.1-.27l-.12-.3a1.74,1.74,0,0,0-.1-.19.24.24,0,0,0-.08-.06l-.09-.14a.22.22,0,0,0-.27-.08.23.23,0,0,0-.15.23v.19a.29.29,0,0,0,0,.16,1.66,1.66,0,0,0,0,.22c0,.17.06.34.1.5h0l-.74-.26a11,11,0,0,0-1.47-.39.11.11,0,0,0-.06.2,11.17,11.17,0,0,0,1.34.67l.45.17h-.19l-.09,0s0,0,0,0a.57.57,0,0,1-.13,0l-.24,0c-.16,0-.17.22-.05.28l.22.12.12,0h0a.24.24,0,0,0,.08.06,1.45,1.45,0,0,0,.51.1,1.67,1.67,0,0,0,.59,0,.82.82,0,0,0,.26-.1.15.15,0,0,0,.07,0c.1,0,.16-.08.18-.17a.7.7,0,0,1,0-.14.37.37,0,0,0,0-.15,2.36,2.36,0,0,0,0-.37A2.66,2.66,0,0,0,392.8,125.7Z"/><path class="cls-2" d="M388.85,130.75a.55.55,0,0,0-.06-.18,1.87,1.87,0,0,0-.15-.32c-.09-.14-.17-.28-.25-.43l-.07-.08-.14-.07a.39.39,0,0,0-.26,0,.48.48,0,0,0-.16.12.35.35,0,0,0-.09.29l.09.49a1.09,1.09,0,0,0,.08.31l-.46-.21c-.4-.17-.79-.36-1.18-.55a.23.23,0,1,0-.19.41c.37.23.75.44,1.14.65l.56.27.08,0-.29.05-.49.1-.51.12c-.16,0-.2.28,0,.3l.5.05a5.43,5.43,0,0,0,.57,0,3,3,0,0,0,.51-.07l.29-.07a.85.85,0,0,0,.25-.17.17.17,0,0,0,.06-.16.12.12,0,0,0,.06-.14.24.24,0,0,0-.06-.08s.08,0,.1-.1a.65.65,0,0,0,.05-.2.78.78,0,0,0,.05-.14A.53.53,0,0,0,388.85,130.75Z"/><path class="cls-2" d="M500.5,115.23a10.93,10.93,0,0,0-1.51.19c-.5.07-1,.14-1.51.19s-1,.09-1.52.12a7.39,7.39,0,0,0-1.49.16c-.41.11-.26.66.07.75a5.17,5.17,0,0,0,1.52.09c.53,0,1.05,0,1.58-.08s1-.08,1.51-.15a7,7,0,0,0,1.58-.29.51.51,0,0,0-.23-1Z"/><path class="cls-2" d="M500.52,118.81a2.3,2.3,0,0,0-1.47-.12c-.49,0-1,.06-1.45.11s-.93.08-1.4.16a2,2,0,0,0-1.23.44.17.17,0,0,0,0,.23,1.87,1.87,0,0,0,1.23.27c.48,0,.95,0,1.43,0l1.41-.07.7,0a1,1,0,0,0,.73-.2A.5.5,0,0,0,500.52,118.81Z"/><path class="cls-2" d="M501.05,121.14a1,1,0,0,0-.81-.13l-.74.09-1.37.19c-.47.08-.93.17-1.39.28-.24.06-.48.1-.71.18l-.29.11c-.09,0-.17.14-.26.18a.15.15,0,0,0,0,.29c.12,0,.23.09.35.11l.35,0a4.7,4.7,0,0,0,.65,0q.72,0,1.44-.06c.46,0,.92-.1,1.38-.16s1.11,0,1.45-.39A.51.51,0,0,0,501.05,121.14Z"/><path class="cls-2" d="M501.65,124.14a3.25,3.25,0,0,0-1.61,0c-.5,0-1,.12-1.48.2a7.59,7.59,0,0,0-2.79.92.13.13,0,0,0,.05.22,11.81,11.81,0,0,0,2.91,0l1.42-.11a3.71,3.71,0,0,0,1.6-.24A.57.57,0,0,0,501.65,124.14Z"/><path class="cls-2" d="M502.2,127.39c-.05-.06-.09-.12-.14-.17a.58.58,0,0,0-.34-.25,3,3,0,0,0-.78-.13,6,6,0,0,0-.73,0,9.48,9.48,0,0,0-1.4.22,11.05,11.05,0,0,0-1.28.37,4.9,4.9,0,0,0-.65.32,1.2,1.2,0,0,0-.26.18c-.06.05-.12.19-.15.21a.22.22,0,0,0,.13.35,1.3,1.3,0,0,1,.17.08,1.08,1.08,0,0,0,.31,0l.61,0c.42,0,.85-.12,1.27-.16l1.23-.14a3.87,3.87,0,0,0,1.18-.16,3.69,3.69,0,0,0,.45-.11.47.47,0,0,0,.28-.27l.1-.11A.21.21,0,0,0,502.2,127.39Z"/><path class="cls-2" d="M501.83,129.83a9.1,9.1,0,0,0-2.74.28c-.44.08-.9.18-1.33.3a5.26,5.26,0,0,0-.6.18l-.3.09c-.14,0-.24.14-.38.18s-.18.41,0,.42a3.43,3.43,0,0,1,.34.06h.32l.69,0c.44,0,.9,0,1.34-.07a9.25,9.25,0,0,0,2.72-.48A.52.52,0,0,0,501.83,129.83Z"/><path class="cls-2" d="M503.53,139.79c-.09-.07-.14-.19-.25-.26h0v0c-.11-1.91-.27-3.83-.4-5.74a.26.26,0,0,0-.08-.19l.06-.21a.14.14,0,0,0-.21-.13l-.22.17c-.31,0-.63,0-.95,0s-.63,0-.95.06c-.6,0-1.2.07-1.79.12a3.56,3.56,0,0,0-1.59.26.62.62,0,0,0-.26.61,1.5,1.5,0,0,0,0,.7c0,.27.06.54.1.81.08.54.18,1.08.25,1.62s.14,1.16.2,1.75c0,.33,0,1.27.55,1.16a.52.52,0,0,0,.18-.1.13.13,0,0,0,.1.1,5.4,5.4,0,0,0,1.95-.25c.32-.07.64-.14,1-.19a4.19,4.19,0,0,1,1-.09.57.57,0,0,0,.35-.09.12.12,0,0,0,.05.05,1.6,1.6,0,0,0,.38.26c.18.08.29,0,.47,0A.22.22,0,0,0,503.53,139.79Zm-1.34-4.93c.11,1.31.21,2.63.34,3.94l-.26-.31c-.47-.56-1-1.09-1.5-1.61l0,0,0,0c.42-.53.83-1.07,1.22-1.62Zm-4-.42,1.44,0,1.43-.07.53-.05-.31.44c-.38.52-.79,1-1.2,1.53a11.32,11.32,0,0,0-2.44-1.82C497.86,134.43,498.05,134.45,498.23,134.44Zm-.53,1.33q-.09-.39-.21-.78a2.39,2.39,0,0,0-.18-.44c.73.8,1.55,1.51,2.34,2.25-.3.35-.6.71-.91,1l-.6.63c0-.35-.08-.7-.14-1C497.92,136.87,497.83,136.32,497.7,135.77Zm3.37,3.35c-.36.07-.72.15-1.07.24a3.57,3.57,0,0,0-1.74.8,1.88,1.88,0,0,0,0-.67,1.9,1.9,0,0,0,.42-.34l.71-.76c.29-.32.57-.66.85-1l.14.13c.46.48.9,1,1.32,1.48Z"/><path class="cls-2" d="M440.21,135.39a16.26,16.26,0,0,0,3.65-4.78,16,16,0,0,0,1.07-2.69,20.08,20.08,0,0,0,.51-3c0-.12-.2-.15-.22,0a19.08,19.08,0,0,1-1.93,5.47,19.5,19.5,0,0,1-3.4,4.71.22.22,0,0,0,.32.31Z"/><path class="cls-2" d="M444.57,125.1a28.24,28.24,0,0,0-2.6,10.14c-.2,1.85-.34,3.71-.57,5.56,0,.34-.31,2.89-1.09,1.9a2.71,2.71,0,0,1,.16-2.82c1-1.93,2.67-3.53,3.93-5.32.19-.27-.21-.53-.44-.33a19.09,19.09,0,0,0-2.37,2.63,17.82,17.82,0,0,0-1.83,2.73,4,4,0,0,0-.43,2.67c.16.66.65,1.51,1.44,1.41s1-.84,1.15-1.44a28.4,28.4,0,0,0,.37-3.06c.22-2.22.38-4.44.69-6.65a24.06,24.06,0,0,1,2-7.16c.15-.29-.29-.55-.44-.26Z"/><path class="cls-2" d="M445,134.06c.21.27,0,.74.24,1.05a1.09,1.09,0,0,0,.77.41c.87.12,1.34-.73,1.56-1.44s.26-1.62-.61-1.73-1.64.72-2,1.39a.46.46,0,0,0,.15.61c.73.44,1.41-.18,2-.61.75-.59,1.48-1.21,2.2-1.85l-.69-.53c-.36.64-1.73,4,.2,3.56a4.86,4.86,0,0,0,3-3l-.69-.19c-.13.53-.45,2.2.57,2.05.42-.06.78-.52,1-.8a12.94,12.94,0,0,0,1.11-1.34l-.54-.32a2.6,2.6,0,0,0-.4,1.72.35.35,0,0,0,.53.3l1.55-.76-.54-.22a1.46,1.46,0,0,0,.23.63.27.27,0,0,0,.48-.07,1.63,1.63,0,0,0,0-.76.37.37,0,0,0-.54-.22l-1.54.79.52.21a2.09,2.09,0,0,1,.25-1.3c.21-.36-.3-.63-.54-.32a10.65,10.65,0,0,1-1.23,1.37l-.25.24c-.31.27-.11.16-.15.05a2.15,2.15,0,0,1,.13-1.06c.09-.37-.49-.66-.66-.27a4.52,4.52,0,0,1-2,2.15,1.78,1.78,0,0,1-.61.28c.07.08.09.07.08,0a.81.81,0,0,1,0-.16,4.2,4.2,0,0,1,.08-.47,5.77,5.77,0,0,1,.62-1.63.44.44,0,0,0-.69-.53c-.49.44-1,.86-1.51,1.28-.24.2-1.25,1.24-1.58,1,.06.21.11.41.16.61a1.76,1.76,0,0,1,.94-.92c.24-.08.08-.07.12,0s0,.25,0,.29a3.83,3.83,0,0,1-.16.58c-.11.32-.58,1-1,.6-.23-.27-.11-.68-.4-.95a.21.21,0,0,0-.3.29Z"/><path class="cls-2" d="M456.34,130.15a3,3,0,0,0,.16,2.42c.26.63.79,1.61.29,2.25a.87.87,0,0,1-.33.27.37.37,0,0,1-.15,0s-.18,0-.15,0h0c-.07,0,0,.08.07.21a1.69,1.69,0,0,0,.21-.31c.13-.19.29-.38.4-.58a2.24,2.24,0,0,1,.13-.27l.24-.33c.15-.18.29-.37.43-.56.28-.37.56-.75.81-1.15.11-.16-.12-.3-.25-.19-.34.3-.67.62-1,.95l-.46.48a4.48,4.48,0,0,1-.4.44,2.1,2.1,0,0,0-.3.22l-.21.22a3.37,3.37,0,0,0-.48.52.82.82,0,0,0,.23,1.19,1.46,1.46,0,0,0,1.91-.63,2.46,2.46,0,0,0,.05-2.27c-.33-.82-.94-1.73-.56-2.63.15-.36-.49-.64-.65-.27Z"/><path class="cls-2" d="M417.6,143.93c.32-.76.61-1.53.86-2.31s.44-1.58.74-2.34l-1.1-.15a25.93,25.93,0,0,0,.29,2.78c.06.47.12,1,.19,1.43a2.74,2.74,0,0,0,.37,1.44l-.15-.26,0,.1a.55.55,0,0,0,1.07-.14l0-.11-.08.29a1.33,1.33,0,0,0,.07-.81c0-.21-.05-.42-.08-.63-.06-.49-.14-1-.21-1.48-.13-.92-.21-1.86-.43-2.76a.56.56,0,0,0-1.1.15,11.27,11.27,0,0,1-.52,2.3c-.22.77-.46,1.54-.73,2.29a.39.39,0,0,0,.75.21Z"/><path class="cls-2" d="M420.72,143l0,.05a.59.59,0,0,0-.06.16l.13-.23s0,0-.06.07a.35.35,0,0,0-.07.12.36.36,0,0,0,0,.21l0,.15h0a.06.06,0,0,0,0,0l0,.08,0,.08a.05.05,0,0,0,0,0l.1.12v0l0,0,.13.1h0l.14.06h0a.55.55,0,0,0,.19,0l.16,0a.44.44,0,0,0,.19-.1.36.36,0,0,0,.11-.1.54.54,0,0,0,.1-.2l0-.15,0-.16a.54.54,0,0,0-.1-.2.39.39,0,0,0-.17-.14l0,0-.07,0-.08,0h0l.14.06-.06,0,.12.09-.05-.06.09.12,0,0a.61.61,0,0,0-.09-.12.48.48,0,0,0-.26-.14l.31.24,0,0,.05.12s0,0,0-.05l0-.12-.07-.09-.1-.08a.48.48,0,0,0-.18-.06h-.12a.2.2,0,0,0-.13,0,.21.21,0,0,0-.1.06.37.37,0,0,0-.12.13Z"/><path class="cls-2" d="M449.38,156.5a3.31,3.31,0,0,1,.5-.62,1.07,1.07,0,0,1,.28-.19.53.53,0,0,1,.25-.07.45.45,0,0,1,.25,0l.06,0,0,0,.06.06c-.05-.05,0,.06,0,0a.59.59,0,0,1,0,.14,1.38,1.38,0,0,1-.15.4c-.31.63-.68,1.25-.93,1.91a1.11,1.11,0,0,0,.49,1.55,1.61,1.61,0,0,0,.87,0l.35-.09s-.14,0,0,0a.76.76,0,0,0,.2-.06s0,0,0,0-.08.05-.16,0a.33.33,0,0,0,.47-.36.68.68,0,0,0-.64-.58,2.93,2.93,0,0,0-.78.1l-.09,0s.11,0,0,0h0c.08,0-.06,0,0,0s.06.06,0,0,0,0,0,0,0,0,0,.05,0-.06,0-.07a3,3,0,0,1,.39-.86l.54-1a2,2,0,0,0,.29-1.17,1.26,1.26,0,0,0-1.42-1,2.19,2.19,0,0,0-1.59,1.42.37.37,0,0,0,.64.37Z"/><path class="cls-2" d="M454.27,158h0l.13,0h0a.46.46,0,0,0-.4.23,1.54,1.54,0,0,0-.08.19l.13-.22a.1.1,0,0,0,0,.06.28.28,0,0,0-.09.17.55.55,0,0,0,0,.22.69.69,0,0,0,0,.13,2.44,2.44,0,0,0,.1.24.42.42,0,0,0,.18.17.43.43,0,0,0,.25.07h0l-.2-.06a.33.33,0,0,0,.16.07l.15,0a.25.25,0,0,0,.23-.18.7.7,0,0,0,.05-.25l-.12.28,0,0a.42.42,0,0,0,.13-.22.39.39,0,0,0,0-.26s0,0,0-.08l0,.13a.28.28,0,0,1,0-.09.55.55,0,0,0-.27-.48l.18.18,0,0a.44.44,0,0,0-.31-.24l.15.12h0a.26.26,0,0,0-.34-.09Z"/><path class="cls-2" d="M278.64,169.32q-9.78,8.66-19.4,17.48l-2.75,2.51-1.3,1.17c-.4.36-.9.68-1,1.23a.23.23,0,0,0,.28.27,2,2,0,0,0,1.05-.68l1.17-1.11,2.45-2.29,4.73-4.4c3.18-3,6.38-5.91,9.53-8.92,1.79-1.71,3.57-3.45,5.36-5.17a.06.06,0,1,0-.09-.09Z"/><path class="cls-2" d="M275.91,140.63c.09,3.75.46,7.49.79,11.22q.51,5.9,1,11.79c.09,1,.19,2.07.26,3.1,0,.49.1,1,.1,1.48a1.52,1.52,0,0,0,.25,1.16.26.26,0,0,0,.4,0,1.23,1.23,0,0,0,.09-.94c-.09-.45-.14-.91-.19-1.36-.09-.93-.18-1.86-.26-2.79-.17-2-.35-3.89-.52-5.84-.36-3.93-.68-7.87-1.08-11.81-.2-2-.41-4-.72-6,0-.08-.13-.06-.13,0Z"/><path class="cls-2" d="M284.24,150.16c1,9,1.84,17.93,2.38,26.93.08,1.24.15,2.47.22,3.71s.24,2.66.18,4a.61.61,0,0,0,.3.54c1,.52,2.87.77,3.5-.39a.52.52,0,0,0-.31-.76,2.81,2.81,0,0,0-1.29.09,4.25,4.25,0,0,1-1.42-.07l.44.43c-.2-1.11-.21-2.3-.3-3.43l-.3-3.34c-.2-2.23-.42-4.45-.64-6.68q-.64-6.68-1.39-13.34-.42-3.83-.9-7.65c0-.3-.51-.31-.47,0Z"/><path class="cls-2" d="M286.44,150.11c1.05,9.3,2.16,18.59,3.26,27.89.14,1.15.3,2.3.39,3.45l.12,1.73c0,.45,0,1.1.38,1.42a.5.5,0,0,0,.61,0c.42-.27.3-.84.23-1.25-.2-1.18-.42-2.36-.57-3.54q-.87-7-1.75-13.95-1-7.89-2-15.79c-.05-.4-.69-.41-.64,0Z"/><path class="cls-2" d="M284.67,149.74a.75.75,0,0,0,.79.3l.15,0a.69.69,0,0,0,.17-.05c-.1.1-.28-.16-.3-.24a.22.22,0,0,1,0-.16c.12-.15.15-.2.08-.15l.24-.14H286l.25.93.28-.21a.58.58,0,1,0-.59-1s-.07,0,0,0l-.14,0-.11,0s-.15,0,0,0h-.23c-.11,0,0,0,0,0l-.14,0c-.05.41-.1.81-.16,1.21a6.64,6.64,0,0,0,2.13-.64.65.65,0,0,0-.16-1.17,2.79,2.79,0,0,0-1.49,0,3,3,0,0,0-.6.24s-.09,0-.11,0a1.2,1.2,0,0,0-.24.15.8.8,0,0,1-.2.06h.16a.75.75,0,0,1-.58-.35,1.5,1.5,0,0,1-.06-.22c0-.05,0,0,0,0a1.5,1.5,0,0,1,.11-.13l-.77-.32a1.76,1.76,0,0,0,.71,1.5,2.48,2.48,0,0,0,1.87.47,2.35,2.35,0,0,0,1.71-.85,1.39,1.39,0,0,0-.1-1.76.62.62,0,0,0-.73-.1.69.69,0,0,0-.3.88.84.84,0,0,0,.71.5.75.75,0,0,0,.7-.44,1.12,1.12,0,0,0,0-.88.6.6,0,0,0-.66-.43.59.59,0,0,0-.52.59c0,.12,0,.24,0,.36s0,.14,0,.06l0,.19a1.75,1.75,0,0,0,0,.85.46.46,0,0,0,.68.27,1.15,1.15,0,0,0,.51-.83,4.49,4.49,0,0,0,.07-.9l-1.18.16a.57.57,0,0,0,0,.14c0-.07,0-.08,0,0s0,0,0,0a.47.47,0,0,1,.63-.21.48.48,0,0,1-.05.81l-.73-.09c.1.1-.06-.1,0,0-.06-.08,0,0,0,0s0,0,0,0v0s0,.15,0,0a.36.36,0,0,0,0,.11c0,.07.06-.1,0,0s-.08.12,0,.06l-.06.06c-.11.1.08,0-.05,0l-.11.07s-.11.06,0,0l-.15.06-.27.07-.18,0h-.06l-.31,0h-.16c-.18,0,.09,0-.09,0l-.3-.07-.08,0-.12-.06a.88.88,0,0,1-.28-.26l-.07-.11,0,0-.05-.14c0-.09,0,0,0-.09a.45.45,0,0,0-.83-.22,1.16,1.16,0,0,0,.07,1.18,1.41,1.41,0,0,0,1.11.62l-.15,0a3.14,3.14,0,0,0,.57.24l.2,0c-.08,0,.13,0,.15,0a1.15,1.15,0,0,0,.37,0l.34-.05.17,0h.37c.05,0,.08,0,0,0l.18.05-.15-1.18-.4.2c.1,0-.12,0-.14.05l-.21.08a6.77,6.77,0,0,1-.89.21.62.62,0,0,0-.46.6.64.64,0,0,0,.46.59,2,2,0,0,0,.91.05,1.7,1.7,0,0,0,.8-.38l-.82-.83c-.11.12-.24.23-.36.34a.57.57,0,0,0,.25.94.68.68,0,0,0,.79-.41.78.78,0,0,0-.15-.81.79.79,0,0,0-.84-.15,1.65,1.65,0,0,0-.37.2l-.13.08c-.06.05,0,0,0,0-.26-.07-.54.23-.37.47Z"/><path class="cls-2" d="M283.89,147.58a3.15,3.15,0,0,0,1.67.07l1.7-.26c-.11-.37-.21-.75-.31-1.12-.66.11-1.3.28-2,.39s-1.31.16-2,.22l.5.51a2.42,2.42,0,0,0-.32-1c-.16-.28-.34-.54-.49-.83l-.66.39a13.08,13.08,0,0,0,.8,1,1,1,0,0,0,.84.51c.41,0,.83-.17,1.25-.21a10.63,10.63,0,0,1,1.25-.08,2.58,2.58,0,0,0,2.09-.68,1.56,1.56,0,0,0,.31-1.71.42.42,0,0,0-.72,0c-.15.32-.29.64-.43,1s.34.69.64.49.83-1,.35-1.28a.32.32,0,0,0-.35,0c-.12.08-.15.2-.22.32a.63.63,0,0,1-.22.21l.64.49c.12-.29.24-.59.35-.88l-.76.1c.12.17.19.28.1.48a.77.77,0,0,1-.49.39,7.49,7.49,0,0,1-1.77.17,10.87,10.87,0,0,0-1.87.3c-.16,0-.13.07-.22,0a3.47,3.47,0,0,1-.31-.36,9.19,9.19,0,0,0-.66-.74.38.38,0,0,0-.54.54,2,2,0,0,1,.4,1.34c0,.25.21.53.51.5.7-.06,1.4-.15,2.1-.23s1.43-.13,2.13-.27a.58.58,0,0,0-.31-1.12l-1.68.33a2.83,2.83,0,0,0-1.47.64.21.21,0,0,0,.09.34Z"/><path class="cls-2" d="M286.49,144.8a18.39,18.39,0,0,1-2.08.34,15.41,15.41,0,0,1-2,0V146c.87,0,1.73-.14,2.59-.24l1.32-.19.61-.1a2,2,0,0,0,.7-.25.49.49,0,0,0-.12-.89,1.84,1.84,0,0,0-.74,0l-.66.1-1.26.22c-.86.17-1.71.34-2.55.57a.42.42,0,0,0,.22.8c.68-.14,1.36-.31,2-.45s1.37-.27,2.05-.43a.16.16,0,0,0-.08-.3Z"/><path class="cls-2" d="M326.39,146.09c1,9,1.85,17.93,2.39,26.93.07,1.23.15,2.47.21,3.71a37.48,37.48,0,0,1,.18,4,.63.63,0,0,0,.31.54c1,.51,2.86.77,3.5-.39a.53.53,0,0,0-.31-.77,3,3,0,0,0-1.29.1,4,4,0,0,1-1.42-.08l.43.44c-.2-1.12-.2-2.3-.3-3.43s-.19-2.23-.29-3.34c-.2-2.23-.43-4.45-.64-6.68q-.66-6.68-1.39-13.35c-.29-2.55-.59-5.09-.9-7.64,0-.3-.51-.31-.48,0Z"/><path class="cls-2" d="M328.59,146c1.05,9.3,2.17,18.59,3.27,27.88.13,1.15.3,2.31.38,3.46l.12,1.73c0,.45,0,1.1.38,1.42a.5.5,0,0,0,.61,0c.42-.28.31-.84.24-1.25-.21-1.18-.42-2.36-.57-3.54q-.88-7-1.76-13.95-1-7.89-2-15.79c-.05-.4-.68-.42-.64,0Z"/><path class="cls-2" d="M326.82,145.67a.76.76,0,0,0,.79.3l.16,0s.14,0,.17-.05-.28-.16-.31-.24a.43.43,0,0,1,0-.16c.13-.16.15-.21.08-.15l.25-.14h.21l.25.93.27-.21a.58.58,0,1,0-.59-1s-.07,0,0,0L328,145l-.11,0s-.15,0,0,0a.89.89,0,0,1-.23,0c-.11,0,0,0,0,0l-.14,0c-.05.4-.11.81-.16,1.21a6.51,6.51,0,0,0,2.12-.64.63.63,0,0,0,.31-.64.65.65,0,0,0-.46-.53,2.79,2.79,0,0,0-1.49,0,3.1,3.1,0,0,0-.61.24l-.1,0a1.08,1.08,0,0,0-.24.14.52.52,0,0,1-.2.07h.15a.73.73,0,0,1-.57-.35,1.5,1.5,0,0,1-.06-.22s0,0,0,0l.11-.12-.77-.32a1.77,1.77,0,0,0,.71,1.5,2.47,2.47,0,0,0,1.86.47,2.41,2.41,0,0,0,1.72-.85,1.39,1.39,0,0,0-.1-1.76.62.62,0,0,0-.73-.1.67.67,0,0,0-.3.87.82.82,0,0,0,.7.51A.77.77,0,0,0,330,144a1.16,1.16,0,0,0,0-.88.6.6,0,0,0-1.18.16,2.16,2.16,0,0,1,0,.36s0,.14,0,.06a1.06,1.06,0,0,1,0,.19,1.63,1.63,0,0,0,0,.85.46.46,0,0,0,.67.27,1.13,1.13,0,0,0,.52-.83,3.9,3.9,0,0,0,.06-.9l-1.18.16a1,1,0,0,1,0,.14c0-.07,0-.08,0,0s0,0,0,0a.45.45,0,1,1,.58.6l-.73-.09c.11.1-.05-.1,0,0,0-.09,0,0,0,0s0,0,0-.05v.05s0,.15,0,0l0,.11c0,.07.07-.1,0,0s-.09.12,0,.06l-.06.06c-.1.1.08,0,0,0l-.12.07s-.1,0,0,0l-.15.06-.26.07-.18,0h-.06a1.71,1.71,0,0,1-.32,0h-.15c-.19,0,.09,0-.09,0l-.3-.07-.09,0-.11-.06a.92.92,0,0,1-.29-.26l-.06-.11s0-.11,0,0,0-.1,0-.15,0,0,0-.08a.45.45,0,0,0-.84-.22,1.17,1.17,0,0,0,.08,1.18,1.41,1.41,0,0,0,1.11.62l-.15,0a3.37,3.37,0,0,0,.56.24l.2,0,.16,0a1.45,1.45,0,0,0,.36,0l.35,0,.16,0c.05,0,0,0,0,0h.39s.08,0,0,0l.19,0c-.05-.39-.1-.78-.16-1.17l-.39.2c.09,0-.12,0-.15.05l-.2.07a5.63,5.63,0,0,1-.9.22.62.62,0,0,0-.45.6.63.63,0,0,0,.45.59,2.05,2.05,0,0,0,.92.05,1.63,1.63,0,0,0,.8-.39c-.27-.27-.55-.54-.82-.82l-.36.34a.56.56,0,0,0,.24.93.66.66,0,0,0,.79-.4.74.74,0,0,0-.15-.81.76.76,0,0,0-.84-.15,1.58,1.58,0,0,0-.36.2l-.14.08c-.05.05,0,0,0,0-.25-.07-.53.23-.37.47Z"/><path class="cls-2" d="M326.05,143.5a3,3,0,0,0,1.66.08l1.7-.26-.31-1.12c-.65.11-1.3.28-2,.39s-1.31.16-2,.22l.51.5a2.54,2.54,0,0,0-.32-1c-.16-.28-.34-.55-.5-.83l-.66.39a11.46,11.46,0,0,0,.81,1,1,1,0,0,0,.83.52c.42,0,.84-.17,1.26-.21a10.36,10.36,0,0,1,1.25-.08,2.56,2.56,0,0,0,2.08-.68,1.56,1.56,0,0,0,.31-1.71.42.42,0,0,0-.72,0c-.14.32-.29.64-.42,1s.34.69.63.49.84-1,.36-1.28a.32.32,0,0,0-.35,0c-.13.08-.15.2-.22.32a.73.73,0,0,1-.22.21l.63.49c.13-.29.24-.59.36-.88l-.77.1c.13.17.2.27.11.48a.78.78,0,0,1-.49.38,7,7,0,0,1-1.77.17,11.77,11.77,0,0,0-1.87.31c-.16,0-.13.07-.22,0a2.58,2.58,0,0,1-.31-.36c-.22-.25-.43-.51-.67-.74s-.89.19-.54.54a2.08,2.08,0,0,1,.41,1.33c0,.26.21.54.5.51.71-.06,1.4-.15,2.1-.23s1.43-.13,2.13-.27a.58.58,0,1,0-.31-1.12l-1.68.33a2.87,2.87,0,0,0-1.46.63.2.2,0,0,0,.09.34Z"/><path class="cls-2" d="M328.65,140.73a18.39,18.39,0,0,1-2.08.34,15.41,15.41,0,0,1-2,0v.82c.87,0,1.72-.14,2.59-.24l1.32-.19.61-.1a2.12,2.12,0,0,0,.69-.25.49.49,0,0,0-.11-.89,2.11,2.11,0,0,0-.75,0l-.66.11c-.42.07-.84.13-1.26.22-.85.17-1.7.34-2.54.57a.42.42,0,0,0,.22.8c.68-.14,1.35-.31,2-.45s1.38-.27,2.06-.43a.16.16,0,0,0-.08-.3Z"/><path class="cls-2" d="M278.68,169.54l0,0a.26.26,0,0,0,0-.31.36.36,0,0,0-.25-.13c0,.18-.05.36-.07.54a1,1,0,0,0,.35-.1,1.5,1.5,0,0,1,.55-.11c.36,0,.71-.06,1.06-.09.66-.07,1.31-.13,2-.18l2-.14c.36,0,.71,0,1.06,0a1.53,1.53,0,0,0,.88-.12.24.24,0,0,0,0-.41,1.54,1.54,0,0,0-.88,0c-.35,0-.7.06-1.06.09-.68,0-1.37.1-2.05.17s-1.36.15-2,.24a8,8,0,0,0-1,.15,1.3,1.3,0,0,1-.56,0,.87.87,0,0,0-.36,0c-.35.06-.21.6.14.53h.08l-.21,0,.12.06a.18.18,0,0,0,.26-.07Z"/><path class="cls-2" d="M289.09,168.2a17.63,17.63,0,0,0,4.09-.3c1.47-.16,2.95-.31,4.43-.45s2.88-.28,4.32-.4l2.1-.19a9.2,9.2,0,0,0,2.17-.25c.22-.08.28-.46,0-.5a7.78,7.78,0,0,0-2,.09l-2.1.18c-1.49.14-3,.28-4.45.44l-4.31.49a16.91,16.91,0,0,0-4.21.68c-.09,0-.12.19,0,.21Z"/><path class="cls-2" d="M280.33,167.45l0,0a.22.22,0,0,0,.06-.23.41.41,0,0,0-.38-.29c0,.18.09.36.14.54a.38.38,0,0,0,.23-.25l-.1.1a5.49,5.49,0,0,1,.81,0l.73-.08,1.57-.14,1.58-.13c.24,0,.48,0,.73,0a.83.83,0,0,0,.65-.16.24.24,0,0,0-.05-.37,1,1,0,0,0-.73,0l-.72.08c-.53,0-1.06.08-1.58.14l-1.51.19-.73.1c-.25,0-.53.17-.78.19l.12.06a.34.34,0,0,0-.29-.17c-.51-.09-.4.7,0,.55-.06,0-.07,0,0,0a.21.21,0,0,0,.24,0Z"/><path class="cls-2" d="M288.9,166.24a17.2,17.2,0,0,0,4.22-.31c1.5-.16,3-.31,4.51-.45s2.93-.29,4.39-.42l2.24-.2a8.62,8.62,0,0,0,2.16-.24c.22-.09.27-.46,0-.51a7.86,7.86,0,0,0-2.05.09l-2.23.2c-1.5.14-3,.29-4.51.45l-4.39.49a17,17,0,0,0-4.34.7c-.09,0-.12.18,0,.2Z"/><path class="cls-2" d="M282.11,165.06a.41.41,0,0,0-.21-.27.28.28,0,0,0-.29,0l0,0c-.42.29.25.79.41.31l0-.06-.15.08a2.58,2.58,0,0,0,1,0l1.05-.1,1-.1c.35,0,.7,0,1.06-.05a.32.32,0,0,0,.3-.23.26.26,0,0,0,0-.24.32.32,0,0,0-.35-.14c-.34,0-.67.11-1,.14l-1,.12-1,.15a2.66,2.66,0,0,0-1,.24l.16.05,0-.06c-.1.14-.21.27-.31.4l.08,0q.09,0,0,0a.25.25,0,0,0,.42-.24Z"/><path class="cls-2" d="M288.53,164.3a17.4,17.4,0,0,0,4.25-.31c1.52-.16,3.05-.32,4.57-.46s3-.29,4.46-.42l2.31-.21a7.81,7.81,0,0,0,2.11-.24c.22-.08.28-.45,0-.51a7.87,7.87,0,0,0-2.11.1l-2.2.2c-1.52.14-3.05.29-4.57.45l-4.45.5-2.31.28a7.62,7.62,0,0,0-2.06.42c-.08,0-.12.18,0,.2Z"/><path class="cls-2" d="M283.79,163.07a.42.42,0,0,0,0-.29.3.3,0,0,0-.33-.13h0l.26.44.07-.07-.14.05a2.83,2.83,0,0,0,.58,0l.57,0,.56-.06.3,0h.3a.31.31,0,1,0-.08-.61l-.27.07a1.35,1.35,0,0,1-.28,0l-.59.08c-.19,0-.37.06-.55.09a2.93,2.93,0,0,0-.59.11h.1l-.1,0a.26.26,0,0,0-.33.26h0a.29.29,0,0,0,.14.25s0,0,0,0a.25.25,0,0,0,.42-.11Z"/><path class="cls-2" d="M288.18,162.36a17.88,17.88,0,0,0,4.25-.31c1.52-.16,3.05-.32,4.57-.46s3-.29,4.45-.42l2.31-.21a8.18,8.18,0,0,0,2.11-.24c.22-.08.28-.45,0-.51a7.91,7.91,0,0,0-2.11.1l-2.19.2c-1.52.14-3.05.29-4.57.45l-4.45.5-2.3.28a7.7,7.7,0,0,0-2.07.42c-.08,0-.11.18,0,.2Z"/><path class="cls-2" d="M288,160.4a16.85,16.85,0,0,0,4.24-.31l4.57-.46c1.49-.14,3-.29,4.46-.42l2.3-.2a8.31,8.31,0,0,0,2.12-.25c.21-.08.27-.45,0-.5a8,8,0,0,0-2.12.09l-2.19.2c-1.52.14-3.05.29-4.57.45l-4.45.5-2.3.28a7.55,7.55,0,0,0-2.06.42c-.09,0-.12.19,0,.2Z"/><path class="cls-2" d="M280.25,167.27l0-.06a.09.09,0,0,0-.09,0l0,0s0,0,0,0l0,.07a.06.06,0,0,0,0,.06l0,.06.06,0h.09a.1.1,0,0,0,0-.05.13.13,0,0,0,0-.12Z"/><path class="cls-2" d="M279.71,167.26c0,.3.05.6.08.9s0,.65.1,1a.4.4,0,0,0,.19.25.41.41,0,0,0,.31,0,.38.38,0,0,0,.24-.19.42.42,0,0,0,0-.31c0-.29-.1-.59-.15-.88s-.1-.58-.16-.87a.33.33,0,0,0-.65.09Z"/><path class="cls-2" d="M281.37,165.05a2.17,2.17,0,0,0,0,.44c0,.15,0,.3.05.45s0,.29.05.44l0,.21a1.45,1.45,0,0,0,0,.3.35.35,0,0,0,.39.25.36.36,0,0,0,.31-.35,2.09,2.09,0,0,0-.08-.49l-.09-.45c0-.14,0-.29-.08-.43a2.18,2.18,0,0,0-.11-.44.27.27,0,0,0-.29-.2.3.3,0,0,0-.24.27Z"/><path class="cls-2" d="M283.22,162.85c-.19.12-.16.34-.14.54s0,.35.07.53l.07.49,0,.24a.47.47,0,0,0,.13.33.3.3,0,0,0,.47-.06.51.51,0,0,0,0-.4l0-.24-.09-.54c0-.17-.07-.34-.11-.51a.92.92,0,0,0-.09-.28.27.27,0,0,0-.32-.1Z"/><path class="cls-2" d="M284.84,160.77a.85.85,0,0,0,0,.22v.21c0,.13,0,.26,0,.39a7.3,7.3,0,0,1,0,.81l.1-.25a.47.47,0,0,0-.13.35.37.37,0,0,0,.32.36.36.36,0,0,0,.4-.26.46.46,0,0,0-.05-.38l.05.18a7.73,7.73,0,0,0-.05-.84,3.4,3.4,0,0,0-.08-.46l-.06-.19a.86.86,0,0,0-.15-.22.19.19,0,0,0-.31.08Z"/><path class="cls-2" d="M303.82,139.89c.11,4.28.53,8.55.88,12.81.17,2.12.33,4.23.5,6.35s.45,4.31.46,6.46a.46.46,0,0,0,.23.4c.2.09.28.12.47,0a.47.47,0,0,0,.21-.52c-.37-2.13-.45-4.31-.67-6.47s-.4-4.22-.58-6.34c-.36-4.23-.63-8.48-1.18-12.69,0-.2-.32-.21-.32,0Z"/><path class="cls-2" d="M305.71,139.71c.11,4.28.53,8.55.88,12.81.17,2.12.33,4.23.49,6.35s.46,4.3.47,6.46a.46.46,0,0,0,.23.4c.2.09.28.12.47,0a.47.47,0,0,0,.21-.52c-.37-2.13-.46-4.32-.67-6.47s-.4-4.23-.58-6.34c-.36-4.23-.63-8.48-1.18-12.69,0-.2-.32-.21-.32,0Z"/><path class="cls-2" d="M306.08,165.44a.64.64,0,0,0-.13.55.47.47,0,0,0,.12.3.4.4,0,0,0,.29.12.47.47,0,0,0,.39-.22.52.52,0,0,0,.05-.37.49.49,0,0,0-.59-.35.52.52,0,0,0-.37.63.6.6,0,0,0,.5.44,1.56,1.56,0,0,0,.43,0l.43,0c.33,0,.65-.1,1-.15a.47.47,0,0,0,.28-.22.46.46,0,0,0,.05-.36.83.83,0,0,0-.24-.44.57.57,0,0,0-.42-.1.51.51,0,0,0-.26.24.66.66,0,0,0,0,.55c.11-.19.22-.39.34-.58-.31,0-.62.07-.92.13l-.45.07-.12,0h.06l.06,0a.34.34,0,0,1,0,.59l-.22.06a.32.32,0,0,1-.3-.18A.27.27,0,0,1,306,166l.06-.21.05-.06.18-.11h0l.51.28a1.68,1.68,0,0,0-.15-.34.35.35,0,0,0-.53-.1Z"/><path class="cls-2" d="M341.88,161.49c5.44,6.37,11.1,12.56,16.71,18.78,1.58,1.76,3.1,3.6,4.76,5.3.31.32.76-.15.48-.49-1.33-1.59-2.8-3.09-4.2-4.62s-2.79-3.09-4.19-4.64c-2.82-3.12-5.63-6.26-8.48-9.35-1.61-1.74-3.24-3.47-4.87-5.19-.14-.14-.34.07-.21.21Z"/><path class="cls-2" d="M338.14,135.49c.49,4.36,1,8.71,1.55,13.06.26,2.13.53,4.27.79,6.4l.39,3.2c.14,1.1.18,2.23.36,3.32.08.48.9.37.86-.12-.08-1.07-.32-2.13-.45-3.2s-.26-2.13-.4-3.2l-.8-6.53c-.54-4.31-1.08-8.62-1.66-12.93,0-.4-.69-.41-.64,0Z"/><path class="cls-2" d="M293.52,156.75c3.72-.15,7.45-.76,11.15-1.19.41-.05.42-.7,0-.65-3.72.46-7.52.76-11.2,1.5a.17.17,0,0,0,0,.34Z"/><path class="cls-2" d="M293,155.24s0,0,0,0v.1a1.48,1.48,0,0,0,0,.21,1.52,1.52,0,0,0,0,.21v0h0v.07c0,.1,0,.2,0,.3s0,0,0,0,0-.06,0,0,0,.06,0,.09a.25.25,0,0,0,0,.08.2.2,0,0,1,.06-.2.13.13,0,0,1,.24.07.14.14,0,0,0-.13-.14c-.2,0-.22.27-.11.39a.31.31,0,0,0,.43,0,.42.42,0,0,0,.09-.33,3.33,3.33,0,0,0-.07-.54.5.5,0,0,0,0-.12s-.05-.09-.07-.14a1.12,1.12,0,0,0-.16-.22.15.15,0,0,0-.18,0,.14.14,0,0,0-.1.15Z"/><path class="cls-2" d="M293.2,155.12a2.24,2.24,0,0,0,1.23,0l1.5-.21,3.1-.45c2.13-.31,4.31-.51,6.43-.93.31-.06.24-.59-.08-.56-2.09.21-4.18.64-6.26.95l-3.09.48c-.55.08-1.11.16-1.66.26a2.26,2.26,0,0,0-1.18.34.08.08,0,0,0,0,.13Z"/><path class="cls-2" d="M294.38,153.27l0,0,.06-.05a.22.22,0,0,0-.12.13.37.37,0,0,1,0,.11c0,.05,0,.09,0,.14a2.44,2.44,0,0,0,0,.27,3.06,3.06,0,0,0,0,.32l.05.14a.61.61,0,0,0,.05.12.3.3,0,0,0,.18.13l-.19-.19a.21.21,0,0,1,0-.08l.06-.11.05,0,.12,0,.08,0h0l0,0a.26.26,0,0,0-.17-.07l.13.06a.19.19,0,0,0-.11-.09c-.09,0-.16,0-.19.11s0,.07,0,.11l.05-.13a.29.29,0,0,0-.06.27.26.26,0,0,0,.31.18l.07,0s.1-.07.05,0,0,0,0,0l.05-.05a.47.47,0,0,0,0-.16.58.58,0,0,0-.07-.21c0,.07,0,0,0,0l0,0a2.49,2.49,0,0,1-.09-.37c0-.07,0-.13-.05-.2a.42.42,0,0,0,0-.1.23.23,0,0,0-.16-.17l.06,0,0,0a.12.12,0,0,0-.19,0Z"/><path class="cls-2" d="M294.38,153.3c.88-.12,1.77-.14,2.65-.25s1.72-.24,2.58-.38,1.8-.31,2.7-.48c.46-.09.92-.19,1.39-.27a2.93,2.93,0,0,0,1.26-.26.31.31,0,0,0-.07-.56,2.35,2.35,0,0,0-1.16.19c-.45.11-.92.19-1.39.28-.89.17-1.79.34-2.69.49-1.76.31-3.59.41-5.33.84-.21,0-.17.43.06.4Z"/><path class="cls-2" d="M296.08,151.53a.84.84,0,0,0-.11.21.43.43,0,0,0-.05.16.88.88,0,0,0,0,.16,1.93,1.93,0,0,0,0,.24c0,.06,0,.11,0,.17a.77.77,0,0,0,.07.16.24.24,0,0,0,.27.11.21.21,0,0,0,.1-.06.23.23,0,0,0,.07-.17s0-.11,0-.16l0-.11v0s0,0,0,0v0a.37.37,0,0,1,0-.11c0-.07,0-.15,0-.22v-.18h0a.19.19,0,0,0-.1-.21.17.17,0,0,0-.22.07Z"/><path class="cls-2" d="M296,151.64a38.84,38.84,0,0,0,5.16-.73l2.54-.46a4.92,4.92,0,0,0,2.34-.66.14.14,0,0,0-.06-.23,4.76,4.76,0,0,0-2.27.19l-2.63.48a40.13,40.13,0,0,0-5.11,1.13c-.15,0-.13.29,0,.28Z"/><path class="cls-2" d="M293.25,156.77a14.18,14.18,0,0,0-3.18,1.3l-1.52.8a3.32,3.32,0,0,0-1.35,1,.25.25,0,0,0,.21.37,3.61,3.61,0,0,0,1.54-.68l1.45-.82a28.13,28.13,0,0,0,3-1.7.15.15,0,0,0-.12-.28Z"/><path class="cls-2" d="M307.64,156.38a31.6,31.6,0,0,0,5-.48l5-.59,4.9-.58a49.86,49.86,0,0,1,5.16-.54.34.34,0,1,0-.09-.67,50.5,50.5,0,0,1-5.19.69l-5,.6-4.91.58a31.44,31.44,0,0,0-4.94.71.14.14,0,0,0,0,.28Z"/><path class="cls-2" d="M330.11,153.21a3.15,3.15,0,0,0-.42-.09.19.19,0,1,0-.06.38,13.65,13.65,0,0,0,2.78-.15c.88-.08,1.77-.18,2.65-.29s1.68-.22,2.52-.35a11,11,0,0,1,3-.46c.7.1.54-.93,0-.74-.1,0-.3.13-.4.15a.16.16,0,0,0,0,.3,3.79,3.79,0,0,1,.35.25v-.66a8.43,8.43,0,0,1-2.84.54c-.92.15-1.85.29-2.78.41s-1.77.21-2.66.3a17.72,17.72,0,0,0-2.61.32l.11.38.42-.16c.06,0,.07-.12,0-.13Z"/><path class="cls-2" d="M315.26,193.62a7.21,7.21,0,0,0-1.7-.62c-.54-.16-1.06-.36-1.58-.56l-3.13-1.19c-2.2-.86-4.38-1.74-6.56-2.63-3.62-1.49-7.21-3.07-10.81-4.63l-.28-.15a.7.7,0,0,0-.26-.08l-.18-.08c-.14-2-.47-4-.69-5.92-.26-2.35-.51-4.7-.78-7q-.8-7-1.64-14c-.16-1.28-.32-2.56-.46-3.83-.11-1-.17-2-.34-2.94a.68.68,0,0,0,.45-.36,1.46,1.46,0,0,0,.16-.39,1.69,1.69,0,0,0,0-.45q0-.32-.06-.63a4.65,4.65,0,0,0-.16-.72,2.5,2.5,0,0,0-.09-.25.63.63,0,0,0,.2.23.25.25,0,0,0,.38-.09,1,1,0,0,0,.07-.29,1.07,1.07,0,0,0,.17-.46.33.33,0,0,0,.06-.1,1.1,1.1,0,0,0,.07-.44c0-.1,0-.2,0-.3s0-.4,0-.6a.5.5,0,0,0-.1-.28h0v0a.58.58,0,0,0-.24-.35.67.67,0,0,0-.31-.1.63.63,0,0,0-.38.11,1,1,0,0,0-.19.22h0a.78.78,0,0,0-.19.36,2,2,0,0,0,.16,1.61s0,0,0,.05l-.1-.07a.53.53,0,0,0-.39,0,.66.66,0,0,0-.34.2.81.81,0,0,0-.19.56c0,.08,0,.16,0,.24v-.2a7.7,7.7,0,0,0,.07,1.36,2.89,2.89,0,0,0,0,.29s0,0,0,.07a1.77,1.77,0,0,0,0,.46c0,1,.17,2,.27,3,.12,1.15.24,2.31.35,3.46.22,2.31.42,4.63.65,6.94q.71,6.93,1.45,13.86c.22,2,.34,4.14.61,6.2a.23.23,0,0,0,0,.42l.1,0c0,.23.05.46.09.69L289,184c-.1-.05-.2.11-.1.17l.58.36,0,.26a.67.67,0,0,0,1.05.45,6.68,6.68,0,0,0,2.08,1.21c2.16,1.29,4.35,2.52,6.57,3.67q2.69,1.4,5.43,2.67c.92.42,1.84.82,2.77,1.22a24,24,0,0,0,2.69,1.09c.46.14.64-.55.27-.78l.11,0a.46.46,0,0,0,.26,0,3.1,3.1,0,0,0,.4.13v0a.55.55,0,0,0,.53-.21,2.77,2.77,0,0,0,.64.11.56.56,0,0,0,.58-.56l.27.1a6.43,6.43,0,0,0,1.69.65C315.31,194.6,315.74,193.92,315.26,193.62Z"/><path class="cls-2" d="M257.35,138.86c.5-.7-.41-1.36-1.07-1.26a6,6,0,0,0-2.65,1.56,21.73,21.73,0,0,0-4.37,5.27,11.49,11.49,0,0,0-1.41,3.06,3.78,3.78,0,0,0,0,2.65,1.3,1.3,0,0,0,1.87.56,13.32,13.32,0,0,0,2.65-1.83,18.07,18.07,0,0,0,2.71-2.75c.36-.45.7-.92,1-1.4s.71-.93.6-1.49a.22.22,0,0,0-.28-.16c-.43.16-.58.51-.82.89s-.6.9-.92,1.34a20.26,20.26,0,0,1-2.11,2.33,18.28,18.28,0,0,1-2.66,2.05c-.47.3-1.11.76-1.41,0a2.39,2.39,0,0,1,0-1.4,14.51,14.51,0,0,1,3.15-5.85,18.54,18.54,0,0,1,2.19-2.41c.34-.31,3.11-2.53,3.17-1.29a.21.21,0,0,0,.38.1Z"/><path class="cls-2" d="M251,142.28a2.65,2.65,0,0,0-.79,1,12.31,12.31,0,0,0-.58,1.22,2.79,2.79,0,0,0-.31,1.16.89.89,0,0,0,.67.84,1.74,1.74,0,0,0,1.16-.22,4.88,4.88,0,0,0,1-.63,6.38,6.38,0,0,0,1.52-1.83,7.75,7.75,0,0,0,.48-1.11,3.7,3.7,0,0,0,.27-1.26,1.19,1.19,0,0,0-.89-1.16,1.62,1.62,0,0,0-1.24.31,4.22,4.22,0,0,0-.95,1,12,12,0,0,0-.77,1.14c-.23.4-.43.81-.64,1.22a1.54,1.54,0,0,0-.2,1.3c.5,1.19,2.09.11,2.65-.47a3.89,3.89,0,0,0,1.09-2.52.7.7,0,0,0-1-.6,4.08,4.08,0,0,0-1.36,1.15,2.17,2.17,0,0,0-.48.88,2,2,0,0,0,0,.88.41.41,0,0,0,.68.18c.1-.1.18-.2.27-.3s.12-.1.2-.18a5.93,5.93,0,0,0,.41-.61,3.7,3.7,0,0,1,.44-.46l.1-.08s.1-.08.1-.08a2.58,2.58,0,0,1,.32-.18l-1-.6c0,.07,0,.14,0,.21s0-.12,0,.08a2.62,2.62,0,0,1-.11.4s-.08.22,0,.1l-.09.18a2.8,2.8,0,0,1-.25.41l-.05.06-.11.13-.3.28c.09-.08-.09.06-.09.06l-.17.11-.18.09c-.08,0-.09,0,0,0l-.13.05-.08,0c.34,0,.52.14.55.38,0,.08,0,.08,0,0s-.11.2,0,0l.12-.23c.17-.33.36-.65.56-1a17.49,17.49,0,0,1,1.15-1.59l.12-.13s.18-.14.05-.05l.17-.11s.2-.07,0,0l.11,0h-.08c.08,0,.07,0,0,0a.86.86,0,0,1-.18-.14.07.07,0,0,1,0-.06.76.76,0,0,1,0,.15c0,.25,0-.11,0,.11,0-.19-.05.41,0,.22a3.25,3.25,0,0,1-.08.43c0,.11-.07.23-.11.34a4,4,0,0,1-.15.39,5.49,5.49,0,0,1-.89,1.39,5.71,5.71,0,0,1-1.25,1.1c-.17.1-.5.25-.5-.06a3,3,0,0,1,.29-1,10.64,10.64,0,0,1,.51-1.08,3.83,3.83,0,0,0,.48-1.05c0-.14-.12-.29-.26-.2Z"/><path class="cls-2" d="M256.46,148.54a72.55,72.55,0,0,0,7.21,5.21q1.86,1.25,3.75,2.44l1.84,1.16c.54.34,1.2,1,1.85,1a.29.29,0,0,0,.25-.42c-.26-.54-1-.81-1.48-1.11l-1.94-1.23q-1.89-1.2-3.76-2.43c-2.49-1.62-4.91-3.39-7.49-4.87-.18-.1-.4.16-.23.3Z"/><path class="cls-2" d="M265.36,158.88c1,.18,2.05.27,3.1.35l1.53.12a3.33,3.33,0,0,0,1.63,0,.54.54,0,0,0,0-.93,3.18,3.18,0,0,0-1.57-.13l-1.54,0a28.6,28.6,0,0,0-3.07.06c-.3,0-.42.51-.08.57Z"/><path class="cls-2" d="M268.78,153.52a2.42,2.42,0,0,0,.05.47v-.2a3.08,3.08,0,0,0,.22,1.26c.11.4.24.81.38,1.21s.25.81.41,1.2.4,1,.91,1l-.33-.14a1.16,1.16,0,0,0,.37.36.27.27,0,0,0,.38-.16,1.51,1.51,0,0,0,0-.52l-.14.32c.37-.32.12-1,0-1.42s-.34-.81-.51-1.22a8.49,8.49,0,0,0-1.26-2.38c-.16-.2-.49,0-.49.2Z"/><path class="cls-2" d="M252.33,151.12a21.9,21.9,0,0,0,1.91,1.55l2,1.57,2,1.54,1,.77.52.38c.09.08.35.2.41.3l.05-.38,0,0,.21-.08h-.06l.26.2v0a.26.26,0,0,0-.5,0l0,0a.25.25,0,0,0,.07.26.38.38,0,0,0,.39.1.32.32,0,0,0,.23-.3c0-.36-.29-.56-.54-.75l-1.1-.8L257,153.91l-2.14-1.54a23.92,23.92,0,0,0-2.3-1.57.2.2,0,0,0-.24.32Z"/><path class="cls-2" d="M256.51,156.91c.32.09.64.2,1,.26s.67.12,1,.16.67,0,1,.07a4.55,4.55,0,0,0,1,0,.42.42,0,0,0,0-.8,7.23,7.23,0,0,0-1,0h-1.94c-.33,0-.66,0-1,0a.2.2,0,0,0-.06.39Z"/><path class="cls-2" d="M259.7,154.58a.06.06,0,0,1,0,.07l.08-.08h0a.28.28,0,0,0-.14.24c0,.13,0,.25,0,.38s.05.23.07.34.09.44.13.66.05.21.07.32a1.46,1.46,0,0,0,.11.41.25.25,0,0,0,.11.12h0a1.3,1.3,0,0,1,.08.17c.06.1.13.23.24.27a.26.26,0,0,0,.31,0,.52.52,0,0,0,.14-.32,1.38,1.38,0,0,0,0-.2v-.1c0,.15,0,.14,0,0a1.67,1.67,0,0,0-.13-.79,5.4,5.4,0,0,0-.25-.67,1.27,1.27,0,0,0-.4-.63l.12.12-.12-.16a.29.29,0,0,0-.31-.12h.12a.09.09,0,0,1-.06,0,.1.1,0,0,0-.18.07Z"/><path class="cls-2" d="M259.45,143.47l4,2.35,2,1.16,1,.62a2.89,2.89,0,0,1,.5.33c.08.08.11.17.23.23-.06-.1-.12-.2-.17-.3v0l.09-.22h.22l0,.22v0a.16.16,0,0,0-.09-.23h0a.2.2,0,0,0-.21.08c-.18.3.17.56.45.49a.44.44,0,0,0,.26-.63c-.14-.3-.47-.43-.73-.59l-1-.61c-.7-.42-1.4-.83-2.12-1.22-1.39-.75-2.8-1.42-4.26-2-.21-.08-.34.25-.15.36Z"/><path class="cls-2" d="M263.9,147.56a3.89,3.89,0,0,0,1.88.76,5.39,5.39,0,0,0,1.06.06,1.73,1.73,0,0,0,1.1-.27.39.39,0,0,0-.18-.64,1,1,0,0,0-.54,0l-.44,0a5.66,5.66,0,0,1-.92,0,9.77,9.77,0,0,1-1.77-.37c-.29-.08-.4.29-.19.45Z"/><path class="cls-2" d="M266.29,145.2a1.26,1.26,0,0,0,.08.47c0,.07.05.14.07.21s0,.09.06.22c.06.28.18.55.25.83a4.51,4.51,0,0,0,.28.88c.06.12.1.27.16.4s.12.28.25.34a.21.21,0,0,0,.25,0,.63.63,0,0,0,.17-.4,4,4,0,0,0,0-.49,2.45,2.45,0,0,0-.17-1c0-.15-.1-.29-.15-.44a2.38,2.38,0,0,0-.24-.51,3.82,3.82,0,0,1-.21-.36,1.18,1.18,0,0,0-.38-.39.31.31,0,0,0-.46.27Z"/><path class="cls-2" d="M308.81,158.3a2.67,2.67,0,0,0-.33,1.51c-.06.65-.11,1.3-.16,1.95s-.09,1.25-.14,1.87a16,16,0,0,0-.15,2c0,.46.74.61.85.11a14.56,14.56,0,0,0,.17-2c0-.63.08-1.25.09-1.88s.05-1.25,0-1.88.1-1.23-.23-1.65a.1.1,0,0,0-.14,0Z"/><path class="cls-2" d="M306.56,137.28c0,1.82.23,3.64.4,5.46l.54,5.58c.18,1.82.35,3.64.53,5.46l.27,2.73c0,.46.11.92.13,1.37a7.71,7.71,0,0,0,.08,1.36.46.46,0,0,0,.89-.12,9.38,9.38,0,0,0-.21-1.49c-.06-.41-.09-.83-.13-1.24-.1-.91-.2-1.82-.29-2.73q-.3-2.79-.59-5.59c-.2-1.82-.39-3.64-.59-5.46s-.34-3.61-.7-5.38c0-.19-.33-.14-.33.05Z"/><path class="cls-2" d="M275.82,163.22l-.08.08a.51.51,0,0,0,.72.72,1.15,1.15,0,0,0-.29-1.8l.33.42-.1-.27-.12.45,2.05-2.21c.7-.75,1.33-1.58,2.05-2.33s1.41-1.43,2.12-2.14c.35-.35.71-.7,1.08-1a4.29,4.29,0,0,1,.72-.55,2.9,2.9,0,0,0,.6-.38c.44-.4-.22-1.07-.64-.65s-.49.73-.8,1.06-.75.76-1.14,1.12l-2.23,2.16c-.72.7-1.51,1.32-2.23,2-.38.37-.75.76-1.12,1.14a5.46,5.46,0,0,1-1.3,1.2.72.72,0,0,0-.26,1c.18.23.33.47.49.72l.79-.62-.09-.08a.4.4,0,0,0-.55,0Z"/><path class="cls-2" d="M287.14,152.88a1.44,1.44,0,0,0,.45-.09c.16-.06.31-.14.47-.21s.59-.26.9-.38a18.66,18.66,0,0,1,1.92-.62l-.2,0,.09,0a.35.35,0,0,0,.5-.39.34.34,0,0,0-.62-.08l-.06.08.15-.12a13.85,13.85,0,0,0-2,.67c-.32.13-.63.28-.94.43a2.61,2.61,0,0,0-.43.24,1.29,1.29,0,0,0-.33.33.08.08,0,0,0,.07.12Z"/><path class="cls-2" d="M290.62,151c.31.22.62-.1.83-.3l1.1-1.07c.74-.71,1.44-1.46,2.15-2.2s1.41-1.41,2.11-2.11l1.09-1.08c.29-.29.76-.95,1.18-1l-.56-.23a1,1,0,0,0,.56.4.68.68,0,1,0-.16-1.25.83.83,0,0,0-.45.47,2.07,2.07,0,0,1-.48.62c-.4.41-.82.8-1.22,1.2l-2.39,2.32c-.8.77-1.63,1.49-2.42,2.28-.4.41-.81.8-1.2,1.21-.15.16-.41.56-.14.75Z"/><path class="cls-2" d="M298.78,136.81a7.16,7.16,0,0,0,0,3c.08,1.17.19,2.34.3,3.52s.23,2.26.36,3.39.17,2.27.34,3.39a.47.47,0,0,0,.34.35.5.5,0,0,0,.38,0,.48.48,0,0,0,.25-.43c-.15-1.13-.4-2.25-.54-3.38s-.27-2.26-.39-3.4-.21-2.26-.32-3.39c-.05-.57-.1-1.14-.16-1.71a3,3,0,0,0-.29-1.28.13.13,0,0,0-.22,0Z"/><path class="cls-2" d="M306.4,138.6a1.45,1.45,0,0,1,.22-.6c.39-.62-.74-1.1-.91-.38a9,9,0,0,0,.05,2.69c.05.85.13,1.7.21,2.55s.14,1.71.22,2.56c0,.46.09.91.13,1.37a2.86,2.86,0,0,0,.23,1.24.69.69,0,0,0,1.18,0,1.82,1.82,0,0,0,.08-1.24c-.05-.46-.09-.91-.14-1.37-.08-.89-.18-1.77-.28-2.66s-.18-1.77-.3-2.65a9.12,9.12,0,0,0-.47-2.61l-.79.61a1.15,1.15,0,0,1,.32.53.13.13,0,0,0,.25,0Z"/><path class="cls-2" d="M306.27,142.18a74.43,74.43,0,0,0,.52,7.59l.33,3.67a23.13,23.13,0,0,0,.39,3.83l.56-.72-.1,0a.26.26,0,0,0-.3.12.52.52,0,0,1-.1.18c-.49.74,1,1.32,1.07.29a10.79,10.79,0,0,0-.15-2l-.21-2c-.14-1.23-.28-2.45-.43-3.68a55.57,55.57,0,0,0-1.23-7.39.18.18,0,0,0-.35.05Z"/><path class="cls-2" d="M307.24,151.68c0,.2-.11.3-.13.49s0,.43,0,.64.05.73.08,1.09c.06.8.11,1.6.16,2.39.1,1.6.16,3.19.25,4.79l1.25-.17a1.11,1.11,0,0,0-.62-.75.24.24,0,0,0-.28,0,1.15,1.15,0,0,0-.35.89c.08.79,1.31.82,1.27,0-.09-1.62-.27-3.25-.49-4.86-.1-.78-.22-1.56-.35-2.34-.06-.39-.11-.78-.2-1.17,0-.18-.1-.36-.15-.53s-.15-.27-.27-.52a.09.09,0,0,0-.17,0Z"/><path class="cls-2" d="M307.87,158.47a9.46,9.46,0,0,0-.1,2.55,6.18,6.18,0,0,0,.09,1.29,6.08,6.08,0,0,0,.36,1.17c0,.12.21.07.24,0a6.17,6.17,0,0,0,.24-1.21,6,6,0,0,0,0-1.27,9.13,9.13,0,0,0-.33-2.5.24.24,0,0,0-.46,0Z"/><path class="cls-2" d="M309.29,158.55a1.49,1.49,0,0,0-.23.71l-.18.94c-.12.65-.22,1.3-.32,2s-.21,1.26-.31,1.88l-.15.95c-.06.32-.13.58.12.83a.34.34,0,0,0,.41.06c.34-.18.32-.52.37-.85s.1-.63.14-1c.1-.65.2-1.31.29-2s.2-1.29.28-1.94c0-.31.09-.63.12-.94s.08-.54-.18-.72a.3.3,0,0,0-.36,0Z"/><path class="cls-2" d="M307.63,165.19c6.81,2.95,13.83,5.42,20.86,7.78.36.12.51-.43.16-.55-7-2.38-13.92-5-20.88-7.57-.19-.07-.33.25-.14.34Z"/><path class="cls-2" d="M331.25,172.88a22.33,22.33,0,0,0,2.91,1.52q1.47.72,3,1.41c2,.9,4,1.77,6,2.59q6.15,2.52,12.48,4.55c2.38.76,4.78,1.5,7.18,2.21a.33.33,0,0,0,.18-.63,162.6,162.6,0,0,1-25-8.76l-3.43-1.54a33.31,33.31,0,0,0-3.24-1.44c-.06,0-.08.06,0,.09Z"/><path class="cls-2" d="M328.78,170a4.29,4.29,0,0,0-.07-1.95l-.27-2a37.7,37.7,0,0,0-.52-3.84,1.13,1.13,0,0,0-.08-.22l.2-.1a.24.24,0,0,0,0-.33c-.32-.56-1.1-.44-1.66-.45a15.76,15.76,0,0,1-2.72-.53c-1.65-.36-3.3-.7-4.95-1s-3.23-.66-4.84-1l-2.1-.45a14.51,14.51,0,0,0-1.47-.41.56.56,0,0,0-.43.06.75.75,0,0,0-.68-.05l-.43,0c-.1,0-.18.15-.06.19h.05a2.87,2.87,0,0,0,.15,2l.26.21a.73.73,0,0,0-.47,1.29l.54.43a.74.74,0,0,0-.27.53.48.48,0,0,0-.12.16.32.32,0,0,0,0,.09.77.77,0,0,0-.12.54,1.59,1.59,0,0,0,.23.93l-.33-.05c-.41-.1-.95.54-.33.89l.59.28a.47.47,0,0,0,.29.24l1.17.37a.42.42,0,0,0,.16.13,29.07,29.07,0,0,0,4.29,1.67l1.55.6a38.92,38.92,0,0,0,4,1.64c-.94.15-1.89.3-2.84.42-3.54.48-7.1.84-10.67,1.1a.19.19,0,0,0,0,.38c3.61-.26,7.22-.63,10.8-1.11l3.53-.49c.58.18,1.17.36,1.76.52h.17c1,.31,2,.57,3,.8a1.69,1.69,0,0,0,.32.28,2.87,2.87,0,0,0,.91.41l.07,0a.55.55,0,0,0,.31,0,2.19,2.19,0,0,1,.17.38c.2.68,1.37.42,1.22-.28s-.3-1.45-.42-2.17A.46.46,0,0,0,328.78,170Z"/><path class="cls-2" d="M361.73,126.15a1.06,1.06,0,0,0-.73-.68s-.06-.11-.11-.14c-.69-.5-1.17-.28-1.91,0l-2.61,1c-1.81.68-3.63,1.36-5.43,2.05l-5.24,2-2.61,1a9.25,9.25,0,0,0-2.57,1.18.75.75,0,0,0-.21.26.24.24,0,0,0-.38.19,148.85,148.85,0,0,0,1.61,15.63c.35,2.57.74,5.14,1.15,7.71.22,1.3.43,2.6.66,3.9,0,.16.06.32.08.47q.19,1.35.36,2.7l-.63-.06c-.31,0-.63-.13-.94-.2-.6-.13-1.19-.34-1.79-.5-1.06-.29-2.16-.49-3.24-.68s-2.3-.35-3.45-.47a15.24,15.24,0,0,0-2.71-.2c-.37-3.17-.74-6.33-1.13-9.49-.16-1.36-.32-2.72-.5-4.08a11.56,11.56,0,0,0-.27-2,.52.52,0,0,0-.06-.16.56.56,0,0,0,.27-.15.25.25,0,0,1,0-.07.93.93,0,0,0,.26-.72v-.1a2.67,2.67,0,0,0,0-.4.22.22,0,0,0,.23-.12,1.17,1.17,0,0,0,.11-.53s0-.05,0-.08,0-.17.07-.25q0,.11,0,0a.6.6,0,0,0,.06-.19s0-.1,0-.14v0a.61.61,0,0,0,0-.3,1,1,0,0,0,0-.17v-.35c0-.49.1-1.21-.33-1.56a.52.52,0,0,0-.52-.08c-.63.26-.65,1.15-.66,1.72a5,5,0,0,0,0,.54.61.61,0,0,0-.26.08c-.05,0-.21.23-.06,0-.05.06-.12.1-.16.16l.13-.12a1.1,1.1,0,0,0-.39.79,4.53,4.53,0,0,0,0,.64,1.94,1.94,0,0,0,.15.62l.06.13h0c-1,.46-.47,1.92-.37,2.75l.45,3.59c.29,2.35.59,4.7.87,7.05q.85,7,1.68,14c.15,1.32.31,2.65.46,4,.07.66.15,1.32.23,2a9.24,9.24,0,0,0,.32,2,.52.52,0,0,0,.1.18c-.58-.27-1.18-.53-1.78-.76a.36.36,0,0,0-.4.09.44.44,0,0,0-.05.54c.17.25.3.12.52.17h0c-.12,0-.14.14-.05.19l.07.05a.11.11,0,0,0,.11,0,.46.46,0,0,0,.1-.1c1.48.81,3,1.51,4.53,2.25l-2.7.24c-2.41.2-4.81.43-7.21.65a.16.16,0,0,0,0,.31c3.52-.28,7-.58,10.55-.87,1.49.74,3,1.48,4.48,2.24,1.67.85,3.32,1.71,5,2.58.87.45,1.74.89,2.59,1.36a14.08,14.08,0,0,0,2.46,1.29c.28.08.44-.24.35-.47a7.09,7.09,0,0,0,1,.25.59.59,0,0,0,.66-.48c.25,0,.58.13.73.15.44.09.87.2,1.3.3a.54.54,0,0,0,.66-.41,12,12,0,0,0,1.48.54c.52.14.64-.59.26-.83a24.4,24.4,0,0,0-3.11-1.44l-2.9-1.3-6.11-2.78-3.16-1.47,8.88-.76c1.22-.1,2.44-.18,3.65-.26l.14,0c1,.29,2,.57,3,.83l.37.13.9.27.28.16a3.07,3.07,0,0,0,.85.3,5.88,5.88,0,0,0,.93.18h0a.86.86,0,0,0,.14.13l.24.16a2.85,2.85,0,0,0,.57.31,1.29,1.29,0,0,0,.59.68,6.59,6.59,0,0,0,3.41.84,1.14,1.14,0,0,0,.71-.23,1.35,1.35,0,0,0,1.56-1.52c-1.47-9.6-2.15-19.4-3-29.08q-.65-7.15-1.23-14.32c-.2-2.46-.4-4.93-.58-7.41-.09-1.15-.16-2.3-.27-3.45A11.34,11.34,0,0,0,361.73,126.15Zm-17,56-4.23.36-2.08-1c-1-.46-2-.93-3-1.37a22.83,22.83,0,0,0-2.33-1c-.05-.83-.21-1.67-.3-2.47-.13-1.11-.25-2.22-.38-3.33.72.34,1.45.64,2.19.93a16.91,16.91,0,0,0,2.29,1.15q1.69.79,3.42,1.53c2.23.94,4.48,1.81,6.76,2.63,1.78.64,3.58,1.23,5.39,1.79Q348.64,181.81,344.76,182.15Z"/><path class="cls-2" d="M280.08,175.47c-2.36.09-4.72.17-7.07.32.38-.35.77-.69,1.15-1,1-1,2.06-2.05,3-3.13.49-.54,1-1.09,1.43-1.65a2.33,2.33,0,0,0,.31-.41.8.8,0,0,0,.15-.29,4.64,4.64,0,0,0,0-1.44c-.05-.58-.09-1.16-.14-1.74-.08-1-.17-2.07-.26-3.1q-.27-3.16-.57-6.33c-.41-4.22-.88-8.42-1.38-12.63-.13-1.16-.29-2.31-.48-3.46,0-.17-.32-2.1-.81-1.76s-.32.72-.33,1.12c0,.66.05,1.33.1,2,.09,1.33.22,2.65.34,4,.24,2.61.46,5.22.7,7.82.21,2.33.41,4.66.62,7a10.24,10.24,0,0,0-2.82,1.42L271,163.88l-.4.23c-.06-.56-.11-1.12-.17-1.68-.36-3.47-.76-6.94-1.16-10.41l2.45-.87a34.42,34.42,0,0,0,3.71-1.39.32.32,0,0,0-.23-.6,33.14,33.14,0,0,0-3.74,1.31l-2.26.85c-.13-1.13-.26-2.26-.38-3.39-.3-2.73-.55-5.47-1-8.17a.08.08,0,0,0-.15,0c.15,3.92.61,7.83,1,11.75l-.93.34L262,154c-.08-1.29-.17-2.57-.24-3.86-.18-3.14-.32-6.27-.54-9.41,0-.16-.25-.13-.25,0,0,4.49.16,9,.42,13.47l-.95.37q-3.28,1.26-6.56,2.55l-.18-2.48c-.24-3.39-.49-6.79-.73-10.19,0-.33-.54-.28-.52,0l.84,12.85c-2.51,1-5,2-7.48,3.05a.11.11,0,1,0,.08.2c2.48-.91,4.95-1.84,7.43-2.77q.51,8,1,15.94c-.61.39-1.24.76-1.86,1.15-2.28,1.43-4.6,2.83-6.81,4.37-.1.07,0,.21.12.16,2.07-1.17,4.08-2.44,6.12-3.66l2.47-1.47c.14,2.09.27,4.17.41,6.25.11,1.66.21,3.31.32,5,.06.87.12,1.74.17,2.61l.06.88c-.84.84-1.66,1.71-2.46,2.6-.46.51-.91,1-1.35,1.57a4.49,4.49,0,0,0-1.17,1.87.65.65,0,0,0,.86.7,4.09,4.09,0,0,0,1.31-1.21c.45-.53.91-1,1.37-1.56.89-1,1.8-1.91,2.75-2.82.52-.51,1.06-1,1.59-1.5q5.51-.51,11-1.14a.15.15,0,0,0,0-.3q-5.22.41-10.42.92,1.74-1.6,3.54-3.15l3.3-2.79a23.71,23.71,0,0,0,2.68-.12,38.18,38.18,0,0,0,5-.67c.13,0,.07-.23-.05-.22-1.66.13-3.31.38-5,.41-.66,0-1.33,0-2,.06q2.61-2.19,5.16-4.45a.35.35,0,0,0,.45-.36v-.05l.66-.62c2.54-.13,5.07-.34,7.61-.54A.13.13,0,1,0,280.08,175.47Zm-16.83,3.2c.11,1,.16,2.05.3,3.07l-.1.09h-.21a.13.13,0,0,0-.07.22c-2.41,2-4.8,4.07-7.06,6.25-.06-.69-.16-1.38-.2-2l-.33-4.6c-.18-2.56-.38-5.12-.57-7.68l3-1.77c1.47-.88,2.95-1.74,4.42-2.61.13,1.46.23,2.91.37,4.36S263.09,177.11,263.25,178.67Zm-1.73-21.26q.36,5.78.84,11.53-3.72,2.22-7.39,4.49c0-.23,0-.46-.05-.69-.38-5-.71-10-1.06-15.06l6.73-2.51.78-.29Zm12.18,5.7,1.82-1a7.12,7.12,0,0,0,1.38-.9l0,.33c.12,1.32.23,2.64.35,4,.05.66.11,1.32.16,2a9.29,9.29,0,0,0,.19,1.67l-.28.31c-.45.49-.91,1-1.38,1.42-.91.91-1.85,1.8-2.79,2.67-.49.45-1,.88-1.49,1.32-.07-.51-.14-1-.19-1.52l-.36-3.6-.51-4.88Zm-10.83,3.64c-.36-4-.64-8.06-.89-12.09l5.95-2.18.75-.26c.07.69.14,1.39.2,2.08.29,3.42.61,6.83.94,10.24-1.71,1-3.42,2-5.12,3l-1.66,1C263,167.94,262.92,167.34,262.87,166.75Zm1.44,14.35c-.08-.67-.18-1.35-.25-2-.15-1.35-.29-2.71-.42-4.07-.2-1.93-.37-3.87-.54-5.8q3.39-2,6.79-3.93c.11,1.18.22,2.36.34,3.54l.39,4c.1.91.14,1.86.24,2.79-1.16,1-2.33,2-3.51,3Z"/><path class="cls-2" d="M320,150.1l0,0-.05-.06,0,0v0s0,0,0,0c-.06-1.14-.3-2.31-.44-3.45s-.26-2.13-.38-3.2-.22-2.14-.32-3.21-.13-2.33-.34-3.46a.13.13,0,0,0-.24,0,.52.52,0,0,0-.18,0l-3.4.31c-.56,0-1.12.09-1.67.16a6.28,6.28,0,0,0-1.09.2.23.23,0,0,0-.21.1.83.83,0,0,0-.22.14.12.12,0,0,0,0,.18.13.13,0,0,0-.07.12c.06,2.27.46,4.57.74,6.82.14,1.11.29,2.22.43,3.34.07.57.15,1.15.22,1.73A6.79,6.79,0,0,0,313,151l0,0a.18.18,0,0,0,.06.28,4.83,4.83,0,0,0,1.61,0l1.65,0c.55,0,1.1-.05,1.64-.1s1-.06,1.53-.14l.13.05a.41.41,0,0,0,.22,0,.37.37,0,0,0,.23-.21,1.18,1.18,0,0,0,.08-.31,1.7,1.7,0,0,0,0-.22A.54.54,0,0,0,320,150.1Zm-.69-.44a2.13,2.13,0,0,0-.08.27c0,.07,0,.15,0,.23v.11c-.46.08-.92.18-1.38.23s-1.14.08-1.71.1-1.14,0-1.71,0a4.77,4.77,0,0,0-.82.12c-.18-1.14-.23-2.3-.36-3.45l-.39-3.34-.36-3.35c-.1-.92-.13-1.9-.32-2.81.27,0,.54,0,.78,0,.58,0,1.15-.11,1.73-.16,1.14-.11,2.27-.21,3.41-.29l.06,0a44.9,44.9,0,0,0,.43,6c.12,1.15.27,2.3.43,3.45.13.9.24,1.86.45,2.77A.21.21,0,0,0,319.31,149.66Z"/><path class="cls-2" d="M316.65,144.39a1.62,1.62,0,0,0-.49,0l0-.41c0-.42,0-.85-.05-1.28a4.22,4.22,0,0,1,0-.47.69.69,0,0,0,.3-1,.33.33,0,0,0-.35-.1h0a.46.46,0,0,0-.44-.07.62.62,0,0,0-.33.83l-.12.08c-.5.2-.7-.26-.71-.68a2.19,2.19,0,0,1,.32-1.22c.11-.19.55-.81.84-.59a.15.15,0,0,0,.23-.16.49.49,0,0,0-.69-.27,1.91,1.91,0,0,0-.88.85,2.17,2.17,0,0,0,0,2.45,1.05,1.05,0,0,0,1.16.22.61.61,0,0,0,.14-.07l0,.85c0,.39.05.77.08,1.16l-.46.09a.23.23,0,0,0,.05.46l.45,0c0,.43.1.87.16,1.3a2.12,2.12,0,0,0,.07.66,1.6,1.6,0,0,0,.75,1.08c.06,0,.17,0,.17-.09,0-.47-.3-.85-.38-1.3,0,0,0,0,0-.07l0-.23a1.67,1.67,0,0,1,.42-1c.16-.18.34-.35.3-.61A.51.51,0,0,0,316.65,144.39Z"/><path class="cls-2" d="M316.36,148.81a2.84,2.84,0,0,0-.51-.06,4.62,4.62,0,0,0-.65.05.17.17,0,0,0-.06-.15.15.15,0,0,0-.19,0,.67.67,0,0,1-.09.14.76.76,0,0,0-.11.14.2.2,0,0,0,.2.28,4,4,0,0,1,.92,0l.47.06c.13,0,.39,0,.42-.15S316.52,148.84,316.36,148.81Z"/><path class="cls-2" d="M329,175.16c-1.48.33-3,.62-4.48.88a42,42,0,0,0-4.34.8c-.08,0-.07.15,0,.15a23.13,23.13,0,0,0,4.39-.4c1.5-.24,3-.51,4.48-.82C329.47,175.69,329.42,175.08,329,175.16Z"/><path class="cls-2" d="M253.4,196.7a23,23,0,0,0-2.5.26c-.41,0-.82.08-1.23.14l-.52.08a6.47,6.47,0,0,1,1.21-1.3.17.17,0,0,0-.2-.28,9.22,9.22,0,0,0-2,1.81.34.34,0,0,0,.29.55l1.27-.19,1.26-.24c.82-.16,1.67-.27,2.47-.51C253.67,197,253.57,196.7,253.4,196.7Z"/><path class="cls-2" d="M317.69,135.24a12.46,12.46,0,0,0,.93-2.15c.33-.8.65-1.6,1-2.38a38.18,38.18,0,0,1,2.42-4.45,41.64,41.64,0,0,1,3-4.1q.8-1,1.65-1.86a12,12,0,0,1,.89-.86c.29-.26.57-.4.51-.82a.31.31,0,0,0-.22-.3c-.71-.13-1.25.86-1.69,1.32-.6.63-1.17,1.27-1.73,1.93a37.72,37.72,0,0,0-3,4.19,38.49,38.49,0,0,0-2.45,4.56c-.35.78-.7,1.57-1,2.38a8.1,8.1,0,0,0-.62,2.45.18.18,0,0,0,.33.09Z"/><path class="cls-2" d="M324.35,118.66a1.4,1.4,0,0,0,.81,0c.3-.06.61-.18.91-.27l1.85-.57a2.06,2.06,0,0,1,.32-.07.08.08,0,0,1,.07,0l0,0,0-.07a.33.33,0,0,1,0,.1,7.38,7.38,0,0,0,0,.94,5.82,5.82,0,0,0,.14,1,1.81,1.81,0,0,0,.36.88.29.29,0,0,0,.44-.06,2.19,2.19,0,0,0,.18-1.08,6,6,0,0,0-.09-1.12,2.42,2.42,0,0,0-.27-1,.77.77,0,0,0-.86-.3c-.31.07-.63.22-.94.32l-1,.36-1,.36a2.18,2.18,0,0,0-.47.21,1,1,0,0,0-.38.31.08.08,0,0,0,0,.11Z"/><path class="cls-2" d="M333.46,115.14a6.06,6.06,0,0,1,1.47-.6c.13,0,.71-.19.83-.09s0,.47-.05.61a7.89,7.89,0,0,1-1.51,2.58,3.35,3.35,0,0,0-.78,1.21.71.71,0,0,0,.62.84,5.15,5.15,0,0,0,3-.74c.42-.21.16-.75-.22-.8-.21,0-.42,0-.63,0a3,3,0,0,1-.73-.18,5.47,5.47,0,0,1-1.26-.62v.54a29.67,29.67,0,0,1,4.24-1.68l-.39-.1c0-.19,0-.23,0-.14l-.07.12a1.26,1.26,0,0,0-.13.26.85.85,0,0,0,0,.5,1.15,1.15,0,0,0,.68.78c.79.34,1.62-.3,2.12-.86s.82-1.53,0-2a2.53,2.53,0,0,0-2.47.32.43.43,0,0,0-.09.67,1.25,1.25,0,0,0,1.86-.09c.09-.12-.06-.32-.2-.26a.85.85,0,0,1-1-.25l-.09.67a2,2,0,0,1,1.3-.39c.16,0,.44,0,.47.22s-.2.41-.31.53-.7.75-1.1.69-.13-.48-.05-.74a.54.54,0,0,0-.56-.73,3.39,3.39,0,0,0-.76.25c-.25.08-.5.18-.75.27a19.53,19.53,0,0,0-2.83,1.39.32.32,0,0,0,0,.54,9.74,9.74,0,0,0,1.36.61c.24.09.49.16.73.24a3.88,3.88,0,0,0,.72.26l-.1-.79a6.16,6.16,0,0,1-1.54.6l-.49.11c-.09,0-.24.08-.32,0s-.06,0,0-.13a1.31,1.31,0,0,1,.21-.27,13.88,13.88,0,0,0,1.71-2.53c.28-.62.88-2.14-.22-2.31a3.42,3.42,0,0,0-1.45.22,3.77,3.77,0,0,0-1.34.75c-.24.23.07.59.34.44Z"/><path class="cls-2" d="M341.49,115.71a4.32,4.32,0,0,0,.2,1.82.36.36,0,0,0,.45.25c1-.26,2.21-1.27,2.08-2.45s-1.46-1-2.25-.74c-.42.16-.86.44-.85.94a.7.7,0,0,0,.81.72,5.65,5.65,0,0,0,1.91-.93,21.44,21.44,0,0,0,1.84-1.27h-.52c.15.14-.09.55-.12.71a1.28,1.28,0,0,0,0,.55.72.72,0,0,0,.8.55,2.92,2.92,0,0,0,1.21-.76,8.41,8.41,0,0,0,1.28-1.32l-.68-.52a2.48,2.48,0,0,0-.15,2,.47.47,0,0,0,.67.28c.39-.27.77-.54,1.13-.83a8.19,8.19,0,0,1,1.22-1l-.87-.67c-.38,1.17-.36,2.73.75,3.49a3.55,3.55,0,0,0,3.32,0c.33-.16.14-.63-.17-.64-.73,0-1.67.15-2.28-.35s-.46-1.54-.46-2.31a.6.6,0,0,0-1.11-.3,6.11,6.11,0,0,1-2,1.82l.68.28a1.65,1.65,0,0,1,0-1.36.43.43,0,0,0-.75-.43,6.51,6.51,0,0,1-.88,1,5.93,5.93,0,0,1-1,.81c-.07-.07.19-.73.19-.84a.84.84,0,0,0-.26-.72.38.38,0,0,0-.45,0,18.87,18.87,0,0,1-1.77,1.19c-.28.16-.56.32-.85.47l-.48.24c-.3.14-.25.09,0,0,.48-.22,1.52-.46,1.26.45a2,2,0,0,1-1.46,1.29l.46.25a3.87,3.87,0,0,1-.19-1.62c.05-.46-.67-.45-.72,0Z"/><text class="cls-5" transform="translate(209.65 403.56) rotate(-5.52)"><tspan class="cls-6">1</tspan><tspan x="3.67" y="0">3</tspan></text><text class="cls-7" transform="translate(188.19 122.99) rotate(-5.52)">STORYBOARD<tspan x="0" y="94.37"> </tspan><tspan class="cls-8" x="0" y="96.37">TITLE</tspan></text><line class="cls-9" x1="197.2" y1="122.11" x2="212.09" y2="276.28"/><line class="cls-9" x1="221.87" y1="377.48" x2="224.3" y2="402.64"/><line class="cls-10" x1="258.18" y1="363.98" x2="383.77" y2="351.85"/><line class="cls-10" x1="259.46" y1="377.22" x2="385.04" y2="365.09"/><line class="cls-10" x1="260.74" y1="390.45" x2="386.32" y2="378.32"/><path class="cls-11" d="M250.83,254.27H372.69a2.15,2.15,0,0,1,2.15,2.15V270.8a0,0,0,0,1,0,0H248.68a0,0,0,0,1,0,0V256.43a2.15,2.15,0,0,1,2.15-2.15Z" transform="translate(-23.79 31.19) rotate(-5.52)"/><text class="cls-12" transform="translate(272.65 270.61) rotate(-5.52)">F<tspan class="cls-13" x="3.04" y="0">r</tspan><tspan class="cls-14" x="5.24" y="0">a</tspan><tspan class="cls-15" x="8.39" y="0">m</tspan><tspan class="cls-16" x="13.82" y="0">e</tspan><tspan class="cls-17" x="17.01" y="0"> </tspan><tspan class="cls-18" x="18.35" y="0">T</tspan><tspan class="cls-19" x="21.7" y="0">i</tspan><tspan class="cls-20" x="23.28" y="0">t</tspan><tspan class="cls-21" x="25.47" y="0">l</tspan><tspan class="cls-22" x="27.08" y="0">e</tspan></text><path class="cls-2" d="M371.73,249a1.76,1.76,0,0,1,1.75,1.6l7.71,79.8a1.76,1.76,0,0,1-1.59,1.92L258.52,344h-.17a1.75,1.75,0,0,1-1.75-1.59l-7.71-79.81a1.76,1.76,0,0,1,1.58-1.92L371.56,249h.17m0-.5-.22,0L250.42,260.16a2.26,2.26,0,0,0-2,2.47l7.71,79.8a2.27,2.27,0,0,0,2.25,2.05h.22l121.08-11.7a2.26,2.26,0,0,0,2-2.47L374,250.5a2.27,2.27,0,0,0-2.25-2.05Z"/><path class="cls-2" d="M251.73,259.4H268.5a0,0,0,0,1,0,0v16.53a0,0,0,0,1,0,0H248.92a0,0,0,0,1,0,0V262.2A2.81,2.81,0,0,1,251.73,259.4Z" transform="translate(-24.53 26.11) rotate(-5.52)"/><text class="cls-23" transform="translate(253.91 272.42) rotate(-5.52)"><tspan class="cls-24">0</tspan><tspan x="5.32" y="0">4</tspan></text><path class="cls-11" d="M237.06,111.68H358.92a2.15,2.15,0,0,1,2.15,2.15v14.37a0,0,0,0,1,0,0H234.9a0,0,0,0,1,0,0V113.83a2.15,2.15,0,0,1,2.15-2.15Z" transform="translate(-10.15 29.2) rotate(-5.52)"/><text class="cls-12" transform="translate(257.95 128.1) rotate(-5.52)">F<tspan class="cls-13" x="3.04" y="0">r</tspan><tspan class="cls-14" x="5.24" y="0">a</tspan><tspan class="cls-15" x="8.39" y="0">m</tspan><tspan class="cls-16" x="13.82" y="0">e</tspan><tspan class="cls-17" x="17.01" y="0"> </tspan><tspan class="cls-18" x="18.35" y="0">T</tspan><tspan class="cls-19" x="21.7" y="0">i</tspan><tspan class="cls-20" x="23.28" y="0">t</tspan><tspan class="cls-21" x="25.47" y="0">l</tspan><tspan class="cls-22" x="27.08" y="0">e</tspan></text><text class="cls-25" transform="translate(240.23 129.81) rotate(-5.52)"><tspan class="cls-26">0</tspan><tspan x="4.73" y="0">1</tspan></text><line class="cls-10" x1="244.37" y1="221.03" x2="369.96" y2="208.9"/><line class="cls-10" x1="245.65" y1="234.26" x2="371.24" y2="222.13"/><line class="cls-10" x1="246.93" y1="247.5" x2="372.52" y2="235.37"/><path class="cls-2" d="M358,106.36a1.75,1.75,0,0,1,1.75,1.59l7.7,79.81a1.76,1.76,0,0,1-1.58,1.92L244.75,201.37h-.18a1.75,1.75,0,0,1-1.75-1.59L235.12,120a1.75,1.75,0,0,1,1.58-1.92l121.09-11.69H358m0-.5h-.22L236.65,117.56a2.26,2.26,0,0,0-2,2.47l7.71,79.81a2.26,2.26,0,0,0,2.24,2h.23l121.08-11.7a2.25,2.25,0,0,0,2-2.46L360.2,107.9a2.25,2.25,0,0,0-2.24-2Z"/><rect class="cls-27" x="243.59" y="208.22" width="58.3" height="6.64" transform="translate(-19.07 27.2) rotate(-5.52)"/><rect class="cls-28" x="244.79" y="219.81" width="92.24" height="6.64" transform="matrix(1, -0.1, 0.1, 1, -20.1, 29)"/><rect class="cls-28" x="246.19" y="235.41" width="46.12" height="6.64" transform="translate(-21.7 26.99) rotate(-5.52)"/><rect class="cls-28" x="306.45" y="203.56" width="29.15" height="6.64" transform="translate(-18.4 31.82) rotate(-5.52)"/><rect class="cls-28" x="340.23" y="200.3" width="29.15" height="6.64" transform="translate(-17.93 35.05) rotate(-5.52)"/><rect class="cls-27" x="341.51" y="213.51" width="29.15" height="6.64" transform="translate(-19.2 35.23) rotate(-5.52)"/><path class="cls-2" d="M238,116.8h16.77a0,0,0,0,1,0,0v16.53a0,0,0,0,1,0,0H235.15a0,0,0,0,1,0,0V119.61A2.81,2.81,0,0,1,238,116.8Z" transform="matrix(1, -0.1, 0.1, 1, -10.89, 24.13)"/><text class="cls-23" transform="translate(240.23 129.81) rotate(-5.52)"><tspan class="cls-26">0</tspan><tspan x="4.73" y="0">1</tspan></text><line class="cls-10" x1="385.4" y1="207.41" x2="510.98" y2="195.28"/><line class="cls-10" x1="386.68" y1="220.64" x2="512.26" y2="208.51"/><line class="cls-10" x1="387.96" y1="233.88" x2="513.54" y2="221.75"/><path class="cls-11" d="M378.08,98.06H499.94a2.15,2.15,0,0,1,2.15,2.15v14.37a0,0,0,0,1,0,0H375.93a0,0,0,0,1,0,0V100.21a2.15,2.15,0,0,1,2.15-2.15Z" transform="translate(-8.19 42.7) rotate(-5.52)"/><text class="cls-12" transform="translate(398.97 114.48) rotate(-5.52)">F<tspan class="cls-13" x="3.04" y="0">r</tspan><tspan class="cls-14" x="5.24" y="0">a</tspan><tspan class="cls-15" x="8.39" y="0">m</tspan><tspan class="cls-16" x="13.82" y="0">e</tspan><tspan class="cls-17" x="17.01" y="0"> </tspan><tspan class="cls-18" x="18.35" y="0">T</tspan><tspan class="cls-19" x="21.7" y="0">i</tspan><tspan class="cls-20" x="23.28" y="0">t</tspan><tspan class="cls-21" x="25.47" y="0">l</tspan><tspan class="cls-22" x="27.08" y="0">e</tspan></text><path class="cls-2" d="M499,92.74a1.75,1.75,0,0,1,1.75,1.59l7.71,79.81a1.71,1.71,0,0,1-.39,1.28,1.77,1.77,0,0,1-1.19.64L385.77,187.75h-.17a1.75,1.75,0,0,1-1.75-1.59l-7.71-79.81a1.77,1.77,0,0,1,1.59-1.92L498.81,92.75H499m0-.5h-.22L377.68,103.94a2.26,2.26,0,0,0-2,2.47l7.71,79.81a2.27,2.27,0,0,0,2.25,2h.22l121.08-11.7a2.26,2.26,0,0,0,2-2.46l-7.71-79.81a2.26,2.26,0,0,0-2.25-2Z"/><rect class="cls-27" x="384.69" y="196.07" width="27.77" height="6.64" transform="translate(-17.32 39.24) rotate(-5.52)"/><rect class="cls-27" x="385.91" y="208.12" width="51.94" height="6.64" transform="translate(-18.42 40.57) rotate(-5.52)"/><rect class="cls-28" x="442.6" y="203.45" width="35.32" height="6.64" transform="translate(-17.75 45.2) rotate(-5.52)"/><rect class="cls-28" x="387.22" y="221.79" width="46.12" height="6.64" transform="translate(-19.74 40.48) rotate(-5.52)"/><rect class="cls-28" x="417.09" y="189.77" width="93.46" height="6.64" transform="translate(-16.41 45.48) rotate(-5.52)"/><rect class="cls-27" x="482.53" y="199.89" width="29.15" height="6.64" transform="translate(-17.23 48.73) rotate(-5.52)"/><path class="cls-2" d="M379,103.18h16.77a0,0,0,0,1,0,0v16.53a0,0,0,0,1,0,0H376.18a0,0,0,0,1,0,0V106A2.81,2.81,0,0,1,379,103.18Z" transform="translate(-8.93 37.62) rotate(-5.52)"/><text class="cls-29" transform="translate(381.38 116.18) rotate(-5.52)">0<tspan class="cls-30" x="4.89" y="0">2</tspan></text><line class="cls-10" x1="526.42" y1="193.79" x2="652.01" y2="181.66"/><line class="cls-10" x1="527.7" y1="207.02" x2="653.29" y2="194.89"/><line class="cls-10" x1="528.98" y1="220.26" x2="654.57" y2="208.13"/><path class="cls-11" d="M519.11,84.44H641a2.15,2.15,0,0,1,2.15,2.15V101a0,0,0,0,1,0,0H517a0,0,0,0,1,0,0V86.59A2.15,2.15,0,0,1,519.11,84.44Z" transform="translate(-6.23 56.19) rotate(-5.52)"/><text class="cls-12" transform="translate(540 100.86) rotate(-5.52)">F<tspan class="cls-13" x="3.04" y="0">r</tspan><tspan class="cls-14" x="5.24" y="0">a</tspan><tspan class="cls-15" x="8.39" y="0">m</tspan><tspan class="cls-16" x="13.82" y="0">e</tspan><tspan class="cls-17" x="17.01" y="0"> </tspan><tspan class="cls-18" x="18.35" y="0">T</tspan><tspan class="cls-19" x="21.7" y="0">i</tspan><tspan class="cls-20" x="23.28" y="0">t</tspan><tspan class="cls-21" x="25.47" y="0">l</tspan><tspan class="cls-22" x="27.08" y="0">e</tspan></text><path class="cls-2" d="M640,79.12a1.75,1.75,0,0,1,1.75,1.59l7.7,79.81a1.76,1.76,0,0,1-1.58,1.92L526.8,174.13h-.18a1.74,1.74,0,0,1-1.74-1.59l-7.71-79.81a1.75,1.75,0,0,1,1.58-1.92L639.84,79.13H640m0-.5h-.22L518.7,90.32a2.26,2.26,0,0,0-2,2.47l7.71,79.81a2.26,2.26,0,0,0,2.24,2h.23l121.08-11.69a2.26,2.26,0,0,0,2-2.47l-7.7-79.81a2.26,2.26,0,0,0-2.25-2Z"/><path class="cls-2" d="M520,89.56h16.77a0,0,0,0,1,0,0v16.53a0,0,0,0,1,0,0H517.2a0,0,0,0,1,0,0V92.37A2.81,2.81,0,0,1,520,89.56Z" transform="translate(-6.96 51.11) rotate(-5.52)"/><text class="cls-23" transform="translate(522.34 102.57) rotate(-5.52)"><tspan class="cls-31">0</tspan><tspan x="5.01" y="0">3</tspan></text><line class="cls-10" x1="399.2" y1="350.36" x2="524.79" y2="338.23"/><line class="cls-10" x1="400.48" y1="363.6" x2="526.07" y2="351.47"/><line class="cls-10" x1="401.76" y1="376.83" x2="527.35" y2="364.7"/><path class="cls-11" d="M391.86,240.65H513.72a2.15,2.15,0,0,1,2.15,2.15v14.37a0,0,0,0,1,0,0H389.7a0,0,0,0,1,0,0V242.81a2.15,2.15,0,0,1,2.15-2.15Z" transform="translate(-21.83 44.68) rotate(-5.52)"/><text class="cls-12" transform="translate(412.75 257.08) rotate(-5.52)">F<tspan class="cls-13" x="3.04" y="0">r</tspan><tspan class="cls-14" x="5.24" y="0">a</tspan><tspan class="cls-15" x="8.39" y="0">m</tspan><tspan class="cls-16" x="13.82" y="0">e</tspan><tspan class="cls-17" x="17.01" y="0"> </tspan><tspan class="cls-18" x="18.35" y="0">T</tspan><tspan class="cls-19" x="21.7" y="0">i</tspan><tspan class="cls-20" x="23.28" y="0">t</tspan><tspan class="cls-21" x="25.47" y="0">l</tspan><tspan class="cls-22" x="27.08" y="0">e</tspan></text><path class="cls-2" d="M512.75,235.33a1.75,1.75,0,0,1,1.75,1.6l7.71,79.8a1.75,1.75,0,0,1-1.58,1.92l-121.09,11.7h-.17a1.76,1.76,0,0,1-1.75-1.59L389.91,249A1.76,1.76,0,0,1,391.5,247l121.08-11.7h.17m0-.5-.22,0L391.45,246.54a2.26,2.26,0,0,0-2,2.47l7.7,79.8a2.27,2.27,0,0,0,2.25,2.05h.22l121.09-11.7a2.26,2.26,0,0,0,2-2.47L515,236.88a2.27,2.27,0,0,0-2.25-2Z"/><path class="cls-2" d="M392.75,245.78h16.77a0,0,0,0,1,0,0v16.53a0,0,0,0,1,0,0H389.95a0,0,0,0,1,0,0V248.58A2.81,2.81,0,0,1,392.75,245.78Z" transform="translate(-22.57 39.6) rotate(-5.52)"/><text class="cls-32" transform="translate(395.06 258.79) rotate(-5.52)">0<tspan class="cls-30" x="5.07" y="0">5</tspan></text><line class="cls-10" x1="540.23" y1="336.74" x2="665.82" y2="324.61"/><line class="cls-10" x1="541.51" y1="349.98" x2="667.09" y2="337.85"/><line class="cls-10" x1="542.79" y1="363.21" x2="668.37" y2="351.08"/><path class="cls-11" d="M532.88,227H654.74a2.15,2.15,0,0,1,2.15,2.15v14.37a0,0,0,0,1,0,0H530.73a0,0,0,0,1,0,0V229.19A2.15,2.15,0,0,1,532.88,227Z" transform="translate(-19.87 58.17) rotate(-5.52)"/><text class="cls-12" transform="translate(553.77 243.46) rotate(-5.52)">F<tspan class="cls-13" x="3.04" y="0">r</tspan><tspan class="cls-14" x="5.24" y="0">a</tspan><tspan class="cls-15" x="8.39" y="0">m</tspan><tspan class="cls-16" x="13.82" y="0">e</tspan><tspan class="cls-17" x="17.01" y="0"> </tspan><tspan class="cls-18" x="18.35" y="0">T</tspan><tspan class="cls-19" x="21.7" y="0">i</tspan><tspan class="cls-20" x="23.28" y="0">t</tspan><tspan class="cls-21" x="25.47" y="0">l</tspan><tspan class="cls-22" x="27.08" y="0">e</tspan></text><path class="cls-2" d="M653.78,221.71a1.76,1.76,0,0,1,1.75,1.6l7.71,79.8a1.77,1.77,0,0,1-.4,1.29,1.74,1.74,0,0,1-1.19.63l-121.08,11.7h-.17a1.75,1.75,0,0,1-1.75-1.59l-7.71-79.81a1.76,1.76,0,0,1,1.58-1.92l121.09-11.7h.17m0-.5-.22,0L532.47,232.92a2.26,2.26,0,0,0-2,2.47l7.71,79.8a2.27,2.27,0,0,0,2.25,2.05h.22l121.08-11.7a2.26,2.26,0,0,0,2-2.47l-7.7-79.8a2.27,2.27,0,0,0-2.25-2Z"/><path class="cls-2" d="M533.78,232.16h16.77a0,0,0,0,1,0,0v16.53a0,0,0,0,1,0,0H531a0,0,0,0,1,0,0V235A2.81,2.81,0,0,1,533.78,232.16Z" transform="translate(-20.61 53.1) rotate(-5.52)"/><text class="cls-23" transform="translate(535.98 245.18) rotate(-5.52)"><tspan class="cls-33">0</tspan><tspan x="5.28" y="0">6</tspan></text><path class="cls-2" d="M306.09,178.8c-.59,2.17-1.18,4.33-1.72,6.51-.25,1.05-.51,2.1-.77,3.15-.13.56-.27,1.13-.41,1.69a2.82,2.82,0,0,0-.18,1.37.23.23,0,0,0,.38.1,2.76,2.76,0,0,0,.44-1.29l.39-1.7c.23-1.06.47-2.11.71-3.17.49-2.2.92-4.4,1.35-6.61a.1.1,0,0,0-.19,0Z"/><path class="cls-2" d="M314.39,173.75a5.07,5.07,0,0,0,.2,1.81c.15.69.33,1.38.51,2.06.38,1.45.8,2.88,1.27,4.3s.95,2.75,1.47,4.11c.26.66.53,1.31.81,2a5.62,5.62,0,0,0,.87,1.79.19.19,0,0,0,.32-.13,5.74,5.74,0,0,0-.67-1.81c-.27-.65-.54-1.31-.79-2-.52-1.36-1-2.73-1.46-4.11s-.84-2.7-1.22-4.07c-.19-.68-.37-1.36-.54-2a6.39,6.39,0,0,0-.64-1.92s-.12,0-.13,0Z"/><path class="cls-2" d="M309.83,174.88c.09,2.28.23,4.56.35,6.83.05,1.12.12,2.24.17,3.36,0,.58.06,1.16.07,1.74,0,.42-.06.8.26,1.11a.17.17,0,0,0,.24,0c.29-.34.19-.68.15-1.11,0-.58-.08-1.16-.11-1.74-.07-1.12-.15-2.24-.23-3.36-.17-2.28-.36-4.56-.63-6.83,0-.17-.28-.18-.27,0Z"/><path class="cls-2" d="M308.81,177.18a9.7,9.7,0,0,0,1.26-3.11l-.7.09c.31.66.68,1.29,1,1.92.17.31.37.61.55.92s.43.59.64.9.44.07.35-.15-.23-.71-.39-1.06-.29-.65-.46-1c-.34-.64-.66-1.31-1-1.95a.39.39,0,0,0-.72.2,8.08,8.08,0,0,1-1,2.94.27.27,0,0,0,.46.27Z"/><path class="cls-2" d="M309.21,185.49a4.82,4.82,0,0,0,.41.69l.49.66.49.64.24.31a1.33,1.33,0,0,0,.35.36.33.33,0,0,0,.48-.37,2.05,2.05,0,0,0-.49-.72l-.52-.65-.51-.62a5.29,5.29,0,0,0-.58-.58.23.23,0,0,0-.36.28Z"/><path class="cls-2" d="M312.6,184.06l-.09.07-.08,0a.81.81,0,0,0-.16.16c-.12.12-.25.23-.36.36a4.63,4.63,0,0,0-.58.86,6.41,6.41,0,0,0-.41.93.67.67,0,0,0-.05.31c0,.15,0,0,0,.06l0,.15a1,1,0,0,0,0,.46.14.14,0,0,0,.19.08.93.93,0,0,0,.28-.31l.12-.17.11-.09.07-.11.47-.84c.16-.27.31-.55.44-.83s.12-.28.19-.42.08-.15.11-.22.05-.17.09-.25a.2.2,0,0,0-.31-.24Z"/><g class="cls-34"><path class="cls-35" d="M519.61,337.43c-.51.09-1,.12-1.54.18a64.69,64.69,0,0,0,14.94-3.8,73.15,73.15,0,0,1-8.46,2.12c-2.9.56-5.84.88-8.71,1.15-5.74.45-11.15.41-15.63.63a5.33,5.33,0,0,0-2.1-1.08c-1.08-.46-2.47-.89-3.8-1.42-2.68-1-5.2-2-5.35-2-.54-.16-1.08-.31-1.62-.49l-1.6-.58c-1.08-.38-2.12-.87-3.18-1.33l2.17,1,2.2.85-2.2-.85-2.17-1a51.66,51.66,0,0,1-17.93-14,56.16,56.16,0,0,1-10.95-21.43,58.64,58.64,0,0,1-1.73-9.09,60,60,0,0,1-.11-12.17,56.29,56.29,0,0,1,5.93-20.53c.66-1.16,1.25-2.36,2-3.49-.61.93-.88,1.42-1.16,1.91s-.57,1-1.08,2a55.55,55.55,0,0,1,7.95-13.59,14,14,0,0,0-2.38,2.11c.57-.64,1.09-1.33,1.69-1.94a20.61,20.61,0,0,1,1.28-1.86c.56-.68,1.2-1.42,1.86-2.16l2-2.07c.67-.62,1.27-1.18,1.72-1.64-.13.28.18.08.72-.3s1.3-.94,2-1.48l-.64.32a68.25,68.25,0,0,1,8.9-5.69,53.29,53.29,0,0,1,9.23-3.92,7,7,0,0,1,1.82-.38c.92-.3,1.83-.59,2.77-.82s1.87-.5,2.81-.68c-.19.19,1,.05,1.91-.06s1.52-.09.17.17c4.22-1,8.64-.93,12.77-1a61.53,61.53,0,0,1,22,5.45A63.56,63.56,0,0,1,555,237.76l-.18-.35a67.2,67.2,0,0,1,5.4,5.91,36.31,36.31,0,0,1,4.77,7.54,56.84,56.84,0,0,1,3.63,6.95,55.38,55.38,0,0,0,2.38,5.25c.34,1.36.67,2.51.92,3.57s.48,2,.67,3,.37,1.92.54,3,.31,2.24.4,3.62c.14-.72.27.63.39,1.82s.18,2.17.31.84c.36-3.73,0-3.92,0-7.11l-.1.11a62.45,62.45,0,0,0-5.63-21.52,63.7,63.7,0,0,0-13-18.4c-7.43-6.87-17-12.83-27.21-15.62a65.41,65.41,0,0,0-8.44-1.74c-1.44-.15-2.87-.36-4.31-.42l-2.15-.12-2.14,0a62,62,0,0,0-15.8,2c-1.11.29-2.07.51-3,.71s-1.83.34-2.79.6a68.86,68.86,0,0,0-13.27,6.28,63.16,63.16,0,0,0-12.08,9.72l.35-.34a65.37,65.37,0,0,0-9.24,11.18c.09,0-.34.71-.51,1.06a8.66,8.66,0,0,0-.86,1.33l-.79,1.39-.89,1.81a61,61,0,0,0-3.73,10,66.09,66.09,0,0,0-2,10.61c-.07.75-.14,1.45-.2,2.09s-.07,1.2-.1,1.69c-.07,1-.12,1.64-.14,1.86v1.66A70.44,70.44,0,0,0,447.46,294a52.7,52.7,0,0,0,5,14.45l.85,1.34.92,1.3.89,1.25.88,1.08c.73,1.5,1.22,1.57,2.34,3.21a21.69,21.69,0,0,0,3.08,4.72c.71.78.89.74.14-.35a73.84,73.84,0,0,0,8.75,8.29c1.38,1,2.82,2,4.28,2.89A9.39,9.39,0,0,1,477,334c3.33,1.77,2.24,1.43,5.76,3.27a24.62,24.62,0,0,0,5.08,2c1.21.36,2.42.68,3.4.94s1.73.41,2,.51l-.64-.14c4.38,1.26,7.29,2.38,11.78,2.86a63.06,63.06,0,0,0,9.55.26,66.18,66.18,0,0,0,9.61-1.26,71.46,71.46,0,0,0,9.15-2.63,74.23,74.23,0,0,0,8.25-3.69c0-.33-2.24,1.23-2.55.92a65.16,65.16,0,0,0,17.13-11.38c1-.78,2.11-1.82,2.59-2.16,1.61-1.54.77-1.07,1.88-2.26h.36a17.16,17.16,0,0,1,1.88-2.23,11.62,11.62,0,0,0,1.79-2.19,6.1,6.1,0,0,1,.9-1.49c.27.13,1.31-2.09,1.48-1.85v0c.27-.4.42-.71.76-1.2.1-.21.39-.86.78-1.73s.8-2,1.24-3.09.77-2.26,1.08-3.15.45-1.59.5-1.82l.21-.38c.47-1.18.4-1.78.12-1.09l.51-1.47,0,.17.51-1.46c.12-.26.33-.54.33-.07a16.5,16.5,0,0,1,.66-2.69,48.9,48.9,0,0,1-3.25,7.37c.15-.5.43-1.18.72-1.86s.53-1.4.7-1.94c.16-.3.34-.69.53-1.14s.37-1,.57-1.5c.41-1.06.77-2.25,1.07-3.3a6.07,6.07,0,0,1,.2-1.89c.31-.47.2-1.2.52-2.06a18.77,18.77,0,0,1-.5,3.06c.33-.11.64-2.48.87-3.29,0-.4.32-2.4.39-3.68.22.58.25-1,.44-1.76s0-1.42-.08-1.07c-.26-.29-.43,3.4-.63,2.18a14,14,0,0,0,.27-2.88c-.15,0-.13.61-.26,0a18.84,18.84,0,0,1,.07-2.64,5.37,5.37,0,0,1,0,.89c0-.65.27,1.12.39,2.86s.18,3.46.22,2.61A23.33,23.33,0,0,1,575,282a25.53,25.53,0,0,0-.34-3.14c-.09.8-.26-.56-.34.26l.17.91c-.09,1.12-.37,1.57-.47,1.17,0-.93.31.4.43,1.78s.25,2.82.23,2c0,.22-.07.44-.13.65a14,14,0,0,1,.23-3.22c-.14,0-.17-.93-.21-1.69l0-.27c-.06-.79,0-1.89-.21-1.38,0,2.3-.42,1.53-.8.76s-.78-1.54-.88.63c.37-1.82.38.62.28,2.55a8.65,8.65,0,0,0-.56,2.38c-.12,1.18,0,.71.09.94-.16.65-.38,1.9-.54,1.71.08.95-.38,1.44-.5,2.54s.11,0,.08.66c-.33,1.44-.81,3.45-1.2,4.55-.29.4-.94,1.63-.92.6.64-2.12.18.93.75-1.31-.32.43-.2-.07,0-.73a5.94,5.94,0,0,0,.24-1.75,8.78,8.78,0,0,0-.49,1.46c-.16.6-.35,1.25-.49,1.85l.12-.22a18.86,18.86,0,0,1-1.43,4.21c0-.31-.29.15-.07-.62-.16.47-.34.94-.54,1.39,0,.19-.06.39.13,0a7,7,0,0,1-.75,1.81c-.08.05-.74,1.93-1.46,3.74a30.21,30.21,0,0,1-1.52,3.41c-.54.94-.83,1.07-1.29,2a8.36,8.36,0,0,0,.79-1.33c.42-.85,1-1.94,1.5-3.06s1-2.18,1.22-2.91.41-1.09.27-.76-.45,1-.92,2.11-1.09,2.5-1.8,3.84-1.45,2.67-2,3.68a11.17,11.17,0,0,1-1.27,1.78c-.45.67-1,1.45-.8,1.38-.89,1,0-.48-.66.19,0,0,.1,0-.09.23l-.72.61a24.17,24.17,0,0,1-2.29,2.84c-.92.93-1.8,1.92-2.5,2.77a22.21,22.21,0,0,1,1.53-2.38l.22-.12c.12-.17.86-1.06.72-1.14a31.34,31.34,0,0,0-2.61,2.86l-.63.45s0,0,.05,0c-.39.25-.37.21-.29,0a.44.44,0,0,1,.05-.09c-.84.31-3.68,3.71-5.78,5-.55.46,0,.1-.69.68-1.06.66-2,1.2-2.9,1.7s-1.87,1-3,1.62c-.62.57-.65.67.31.33-.57.32-1.15.62-1.75.89,1.35-1.23-3.45,1.26-1.92-.07A15.33,15.33,0,0,0,534,334c0,.15-.12.42-1.4.91a26.41,26.41,0,0,1-2.92.81c-.4,0,.12-.27,0-.37-2.21,1-2.1.33-4.26,1-1.35.41-4.08,1-4.1,1.27C519.49,337.89,519.46,337.69,519.61,337.43Z"/></g><g class="cls-34"><g class="cls-36"><rect class="cls-37" x="532.84" y="305.32" width="53.8" height="52.03" transform="translate(59.61 747.23) rotate(-70.37)"/><polygon class="cls-38" points="538.95 314.5 539.04 313.87 539.12 314.03 538.95 314.5"/><path class="cls-39" d="M592.94,315.71c-1.19.76-2.82,2-4.05,1.05a1.12,1.12,0,0,1,.34-1.32C590.71,315.7,594,312,592.94,315.71Z"/><polygon class="cls-39" points="585.87 315.29 586.07 315.1 586.3 315.18 585.87 315.29"/><path class="cls-39" d="M581.92,317.55c-.09.24.19.2.3.25.39,0-.39,0-.75.25l.77-1C582,317,582,317.44,581.92,317.55Z"/><polygon class="cls-39" points="580.62 317.88 581.33 317.34 581.2 318.08 580.62 317.88"/><path class="cls-40" d="M574.31,339.25a5.52,5.52,0,0,0,.55-1.91c.34-1.32,1.6-.08,2.36-.73,2-1.92-1.9-2.78-1.66-4.92.38-1.05,2-.08,1.87-1.57a6.24,6.24,0,0,0-5.92-2.89c-.47-2,1.74-3.06,2.94-4.2-1.83-.39-3.26-.78-5.15-.27-.49-1.22-1.76-1.68-2.53-2.47a13.34,13.34,0,0,0-.73-7.88c-2.63.38-5-1.78-7.26-2.85,0-.78-.82-1.73-1.61-1.36a4.18,4.18,0,0,1-3.35,3.53c-1-.1-.86-2.4-2.2-1.57A3.74,3.74,0,0,1,548.9,313c-1.76,2-1.92-1.6-3.49-1.24-.66,1.86.08,3.83-1.87,5.24-1.22.48-1.83-.39-2.48-1.15-2.2.66.63,1.93.49,3.06-1.71,1.1-3.83,1.91-5.46,1.33.28,1.41,2.62,1.46,3,3-.69,1.2.73,4.59-2,4-.93,1.5,1.55.81,1.8,1.95,0,1.17-1.46.79-1.79,1.33,1.42-.67,1.92,1.61,2.8,2.45.24,1.91-2.4.85-2.86,2.52,1,.6,2.45-1.36,3.36-.25-1.56,1.81-4.84,3.65-4.75,6.71-2.4.84-5.4,2.27-6.38,4.28-.1,1-.37,2.5.52,2.94,3.54-1.1,6.09-4.91,10.43-5.33,1.48.65,2.19-1.71,3.88-.59,1.43,1.17.86,2-.06,3.13,1.2.69,1.27-1,2.18-1.32,2.84.49-.8,2.6.06,4.61.31-.15.36-.65.53-1.12,3.91-3.59,1.9,2.78,4.11,3.57.86-.22.54-1.52,1.52-1.69a4.43,4.43,0,0,1,3.18,3.23c2.39-.46,3.87-.19,5.19-3.53,1.34,1.4,3.12.07,4,2,1.32-1.1.4-4.06,2.87-4.36,2.2-.65,1.8,2,3.51,2.31,1.94-1-1.08-2.49-1.13-3.82,1.2-1.54,2.17-3.16,4.07-4.06,1.83,0,3,3,4.36,1C576.75,342.35,575.93,340.22,574.31,339.25Zm-6.76,5.1c-2,.93-2.91-1-3.84-3-2.08,5.82-7.48,7.18-12.37,7.07a3.31,3.31,0,0,0-1.87-3.94l1.46.52c-2.31-.83-5.5-2-7.67-4.39-2.13.61-4.35,1.79-6.58,2.49a13.9,13.9,0,0,1-1.86,1.07,13.9,13.9,0,0,0,1.86-1.07,10.65,10.65,0,0,1-3.32.55,10.65,10.65,0,0,0,3.32-.55c4.46-3.07,5.82-8.23,3.33-13.48-.94-2,3-3.85,5-4.78l-2.91-1c14.44-12.89,18.81-11.33,29.73,4-2.4-2.49-1,2.91-3.95,1.87.93,2,3.43-.41,4.88.11C568.28,333.12,572,341,567.55,344.35Z"/><path class="cls-41" d="M572.74,329.8c-1.45-.52-4,1.87-4.88-.11,2.91,1,1.55-4.36,3.95-1.87-10.92-15.37-15.29-16.93-29.73-4l2.91,1c-2,.93-5.92,2.81-5,4.78,2.49,5.25,1.13,10.41-3.33,13.48,2.23-.7,4.45-1.88,6.58-2.49a8.78,8.78,0,0,1-1.48-2.16,8.78,8.78,0,0,0,1.48,2.16,6.94,6.94,0,0,1,4.34-.08,6.94,6.94,0,0,0-4.34.08c2.17,2.4,5.36,3.56,7.67,4.39l-1.46-.52a3.31,3.31,0,0,1,1.87,3.94c4.89.11,10.29-1.25,12.37-7.07.93,2,1.87,3.95,3.84,3C572,341,568.28,333.12,572.74,329.8Z"/></g></g><g class="cls-34"><g class="cls-36"><rect class="cls-37" x="606.28" y="201.63" width="27.07" height="26.18" transform="translate(403 833.8) rotate(-89.81)"/><polygon class="cls-38" points="607.13 210.21 607.07 209.9 607.13 209.96 607.13 210.21"/><path class="cls-39" d="M633,201.75c-.44.56-1,1.42-1.75,1.17a.58.58,0,0,1-.06-.68C631.89,202.12,632.83,199.82,633,201.75Z"/><polygon class="cls-39" points="629.52 202.73 629.59 202.61 629.71 202.61 629.52 202.73"/><path class="cls-39" d="M628,204.47c0,.12.12.06.18.06s-.18.06-.31.25l.19-.62C628,204.22,628,204.4,628,204.47Z"/><polygon class="cls-39" points="627.47 204.84 627.72 204.47 627.77 204.84 627.47 204.84"/><path class="cls-40" d="M628.05,216a2.76,2.76,0,0,0-.06-1c-.06-.69.75-.31,1-.75.62-1.24-1.37-1-1.61-2,0-.56.93-.38.62-1.06a3.13,3.13,0,0,0-3.29-.38c-.56-.88.32-1.74.69-2.49a5,5,0,0,0-2.49.74c-.43-.5-1.12-.5-1.61-.75a6.69,6.69,0,0,0-1.67-3.61c-1.18.61-2.67,0-3.92-.14-.12-.38-.68-.69-1-.38a2.1,2.1,0,0,1-1,2.24c-.5.12-.81-1-1.31-.38a1.86,1.86,0,0,1-.81,1.8c-.5,1.24-1.18-.44-1.87,0,0,1,.68,1.81,0,2.8-.5.44-.94.12-1.37-.13-.94.68.62.81.74,1.37a3.42,3.42,0,0,1-2.37,1.55c.37.62,1.49.25,1.93.94-.13.68,1.11,2.05-.26,2.24-.19.87.87.12,1.18.62s-.56.62-.63.93c.56-.55,1.18.44,1.74.69.43.87-1,.81-.94,1.68.56.12.94-1.06,1.56-.68-.44,1.12-1.69,2.54-1.13,4-1,.81-2.19,2-2.31,3.11.12.49.24,1.24.74,1.3,1.49-1.11,2.06-3.35,4-4.27.81.06.75-1.18,1.75-.93s.74.81.49,1.49c.68.13.44-.68.81-1,1.43-.24.06,1.37.8,2.18.13-.12.07-.37.07-.62,1.25-2.36,1.36,1,2.54,1,.38-.24,0-.8.44-1a2.24,2.24,0,0,1,2.05,1c1.06-.62,1.81-.74,1.88-2.54.86.44,1.49-.5,2.23.25.44-.74-.49-2,.63-2.54.94-.69,1.18.62,2,.5.75-.81-.93-1-1.17-1.62a6,6,0,0,1,1.25-2.61c.87-.3,1.92.94,2.24-.24C629.72,217.09,629,216.22,628.05,216Zm-2.35,3.55c-.78.78-1.56,0-2.33-.78,0,3.11-2.35,4.65-4.68,5.42a1.68,1.68,0,0,0-1.55-1.56h.77a9.23,9.23,0,0,1-4.37-.79c-.91.64-1.76,1.57-2.7,2.28a8.71,8.71,0,0,1-.7.82,8.71,8.71,0,0,0,.7-.82,5.4,5.4,0,0,1-1.48.82,5.4,5.4,0,0,0,1.48-.82,5.13,5.13,0,0,0-.68-7c-.77-.78.79-2.33,1.57-3.11h-1.56c4.69-8.53,7-8.53,14.78-3.06-1.55-.78,0,1.55-1.56,1.55.77.78,1.56-.77,2.33-.77C624.16,214.14,627.26,217.26,625.7,219.58Z"/><path class="cls-41" d="M625.72,211.81c-.77,0-1.56,1.55-2.33.77,1.55,0,0-2.33,1.56-1.55-7.75-5.47-10.09-5.47-14.78,3.06h1.56c-.78.78-2.34,2.33-1.57,3.11a5.13,5.13,0,0,1,.68,7c.94-.71,1.79-1.64,2.7-2.28a4.59,4.59,0,0,1-1.06-.78,4.59,4.59,0,0,0,1.06.78,3.52,3.52,0,0,1,2.05-.77,3.52,3.52,0,0,0-2.05.77,9.23,9.23,0,0,0,4.37.79h-.77a1.68,1.68,0,0,1,1.55,1.56c2.33-.77,4.67-2.31,4.68-5.42.77.78,1.55,1.56,2.33.78C627.26,217.26,624.16,214.14,625.72,211.81Z"/></g></g><path class="cls-42" d="M227.69,358.56a102.53,102.53,0,1,0-116.33,48.85c.4.12.8.2,1.2.3a62.93,62.93,0,0,0,115.13-49.15Z"/><path class="cls-11" d="M224.65,336.84a98.53,98.53,0,1,1-55-128A98.53,98.53,0,0,1,224.65,336.84Z"/><path class="cls-11" d="M171.31,215.88A98.52,98.52,0,0,0,38.18,326.65a98.52,98.52,0,0,0,191.57-45.56A98.36,98.36,0,0,0,171.31,215.88Z"/><path class="cls-43" d="M172,218.74A98.52,98.52,0,0,0,38.47,327.58,98.5,98.5,0,0,0,230,282.71,98.3,98.3,0,0,0,172,218.74Z"/><path class="cls-42" d="M79.94,317.68s8.87,71.06,16.68,74.18a98.54,98.54,0,0,0,135-95.28c-9.2-5.82-17.06-10.73-17.06-10.73Z"/><path class="cls-11" d="M185.09,321.06a55.95,55.95,0,1,1-31.24-72.69A55.94,55.94,0,0,1,185.09,321.06Z"/><path class="cls-44" d="M178.63,318.48a49,49,0,1,1-27.35-63.65A49,49,0,0,1,178.63,318.48Z"/><path class="cls-2" d="M152.45,259.8A49,49,0,0,0,86.08,314a49,49,0,0,0,95.26-22.29A48.87,48.87,0,0,0,152.45,259.8Z"/><path class="cls-11" d="M219.07,283.36c-2,3.52-34.13,10.28-34.13,10.28l-4.25-14.13s30.63-11.55,34.12-10.28S221.11,279.84,219.07,283.36Z"/><g class="cls-45"><path class="cls-46" d="M182.08,298.44a48.81,48.81,0,0,1-.17,6.39A48.81,48.81,0,0,0,182.08,298.44Z"/><path class="cls-46" d="M86.91,316.55c-.29-.86-.57-1.71-.82-2.58C86.34,314.84,86.62,315.69,86.91,316.55Z"/><path class="cls-46" d="M86.92,316.57a49.7,49.7,0,0,0,6.17,12A49.34,49.34,0,0,1,86.92,316.57Z"/><path class="cls-46" d="M181.34,291.68a51.54,51.54,0,0,1,.73,6.45A51.54,51.54,0,0,0,181.34,291.68Z"/><path class="cls-46" d="M179.7,315.5c-.33,1-.67,2-1.07,3C179,317.49,179.37,316.5,179.7,315.5Z"/><path class="cls-46" d="M181.85,305.34c-.09.92-.21,1.84-.36,2.75C181.64,307.18,181.76,306.26,181.85,305.34Z"/><path class="cls-46" d="M180.65,312.18c-.2.84-.44,1.68-.7,2.52C180.21,313.86,180.45,313,180.65,312.18Z"/><path class="cls-46" d="M181.42,308.56c-.17,1-.38,2.06-.63,3.08C181,310.62,181.25,309.59,181.42,308.56Z"/><path class="cls-46" d="M115,345.84c-.86-.34-1.7-.71-2.52-1.1C113.28,345.13,114.12,345.5,115,345.84Z"/><path class="cls-46" d="M106.83,341.66c-.51-.32-1-.65-1.48-1C105.83,341,106.32,341.34,106.83,341.66Z"/><path class="cls-46" d="M109.16,343.05c-.51-.28-1-.57-1.51-.88C108.15,342.48,108.65,342.77,109.16,343.05Z"/><path class="cls-46" d="M94.66,330.67c-.47-.61-.93-1.22-1.38-1.84C93.73,329.45,94.19,330.06,94.66,330.67Z"/><path class="cls-46" d="M104.62,340.17c-.54-.39-1.07-.78-1.59-1.19C103.55,339.39,104.08,339.78,104.62,340.17Z"/><path class="cls-46" d="M111.69,344.37c-.56-.27-1.12-.55-1.67-.84C110.57,343.82,111.12,344.1,111.69,344.37Z"/><path class="cls-46" d="M96.39,332.74Q95.64,331.9,95,331C95.42,331.61,95.89,332.18,96.39,332.74Z"/><path class="cls-46" d="M98.38,334.87c-.58-.58-1.15-1.18-1.7-1.8C97.24,333.69,97.8,334.29,98.38,334.87Z"/><path class="cls-46" d="M102.52,338.59a45.93,45.93,0,0,1-4-3.59A45.93,45.93,0,0,0,102.52,338.59Z"/></g><g class="cls-45"><path class="cls-46" d="M86.83,316.14a.28.28,0,0,0,0,.09c-.11-.6-.17-1.22-.26-1.82C86.66,315,86.73,315.57,86.83,316.14Z"/><path class="cls-46" d="M86.09,307.77h0c0-.49,0-1,0-1.48C86.1,306.78,86.09,307.28,86.09,307.77Z"/><path class="cls-47" d="M154.61,250.64a55.95,55.95,0,1,0,31.24,72.69A55.94,55.94,0,0,0,154.61,250.64Zm24.78,70.11a49,49,0,0,1-92.55-4.52h0c0-.17-.08-.36-.13-.54a49,49,0,1,1,92.68,5.06Z"/></g><path class="cls-42" d="M658.39,322a0,0,0,0,0,0,0,1.09,1.09,0,0,0,0-.26,2,2,0,0,0,0-.42h0c0-.13,0-.29-.05-.44s0-.25-.07-.38h0c-.06-.19-.13-.39-.19-.6,0,0,0,0,0-.05a2.07,2.07,0,0,0,.71-.44c1.37-1.37.44-4.51-2.08-7s-5.66-3.47-7-2.11a2,2,0,0,0-.45.71.84.84,0,0,1-.14-.06c-.17,0-.32-.1-.47-.14a4.07,4.07,0,0,0-.72-.13h-.23a1.23,1.23,0,0,0-.47,0l-.19,0a1.42,1.42,0,0,0-.49.29L566.09,391.1c-.56.56-.49,1.67.07,3l-57.57,57.33a1.44,1.44,0,0,0-.35.54l-4.1,11.08-.71,1.94,1.56-.57,11.45-4.18h0a1.48,1.48,0,0,0,.13-.08l.29-.11.16-.16,57.57-57.32c1.33.56,2.44.65,3,.08l80.48-80.14A1.21,1.21,0,0,0,658.39,322Z"/><path d="M658.08,315.51c-1.36,1.36-4.51.42-7-2.1s-3.45-5.68-2.08-7,4.51-.42,7,2.11S659.45,314.15,658.08,315.51Z"/><path class="cls-11" d="M653.75,310.72c-3.17-3.19-6.73-4.81-7.93-3.6l-80.48,80.13,11.5,11.55,80.48-80.13C658.53,317.47,656.93,313.91,653.75,310.72Z"/><path class="cls-48" d="M576.84,398.8l80.48-80.13c1.11-1.1-.16-4.19-2.83-7.15l-82.64,82.27Z"/><path class="cls-48" d="M576.84,398.8l80.48-80.13c.57-.57.5-1.68-.06-3l-82,81.6Z"/><path class="cls-49" d="M645.82,307.12l-80.48,80.13,3.26,3.27L651,308.43C648.76,306.86,646.68,306.25,645.82,307.12Z"/><polygon class="cls-49" points="567.63 389.56 568.6 390.52 651.04 308.43 649.86 307.7 567.63 389.56"/><path class="cls-50" d="M576.84,398.8c-1.21,1.2-4.76-.41-7.94-3.6s-4.77-6.75-3.56-7.95,4.75.41,7.94,3.6S578.05,397.6,576.84,398.8Z"/><path class="cls-11" d="M572.18,391.94c-2.33-2.34-4.94-3.52-5.83-2.64l-58.52,58.28,8.43,8.48,58.53-58.28C575.67,396.89,574.5,394.28,572.18,391.94Z"/><path class="cls-46" d="M516.26,456.06c1.13-1.14.16-3.95-2.17-6.29s-5.13-3.32-6.26-2.19a1.62,1.62,0,0,0-.35.54l-4.81,13,13-4.75h0A1.51,1.51,0,0,0,516.26,456.06Z"/><path d="M503.39,459.21h0l-.72,1.94,1.57-.58C506.78,459.64,504,457.46,503.39,459.21Z"/><polygon class="cls-48" points="516.36 453.08 502.67 461.15 516.1 456.21 575.31 397.26 574.56 395.13 516.36 453.08"/><polygon class="cls-48" points="575.31 397.26 574.56 395.13 572.94 392.71 514.82 450.57 502.67 461.15 516.1 456.21 575.31 397.26"/><polygon class="cls-49" points="566.51 389.14 507.82 447.58 502.67 461.15 511.2 447.67 569.85 390.04 568.05 389.15 566.51 389.14"/><polygon class="cls-49" points="569.85 390.04 511.2 447.67 507.1 454.16 509.77 447.18 568.05 389.15 569.85 390.04"/><path class="cls-42" d="M676.61,261.35s0,0,0,0a1.47,1.47,0,0,0,.08-.25,2.73,2.73,0,0,0,.1-.41h0c0-.14,0-.3,0-.45s0-.25,0-.39h0c0-.2-.07-.41-.11-.63a.09.09,0,0,1,0-.05,2.09,2.09,0,0,0,.76-.34c1.54-1.17,1.05-4.41-1.09-7.25s-5.13-4.22-6.67-3.06a2.09,2.09,0,0,0-.54.64.61.61,0,0,0-.14-.07l-.44-.22a4.21,4.21,0,0,0-.69-.22l-.23,0a1.51,1.51,0,0,0-.47,0l-.19,0a1.32,1.32,0,0,0-.53.22l-90.74,68.31c-.64.48-.72,1.58-.35,3L510.44,369a1.34,1.34,0,0,0-.42.49l-5.59,10.41-1,1.82,1.63-.34L517,378.77h0l.15-.05.3-.07.17-.13,64.91-48.87c1.24.74,2.33,1,3,.49l90.73-68.31A1.26,1.26,0,0,0,676.61,261.35Z"/><path d="M677.2,254.89c-1.54,1.16-4.52-.21-6.67-3.06s-2.63-6.09-1.1-7.25,4.53.2,6.67,3S678.74,253.73,677.2,254.89Z"/><path class="cls-2" d="M673.57,249.54c-2.71-3.59-6-5.68-7.37-4.65l-90.73,68.3,9.8,13L676,257.91C677.37,256.88,676.28,253.14,673.57,249.54Z"/><path class="cls-48" d="M585.27,326.22,676,257.91c1.25-.94.41-4.17-1.82-7.47L581,320.57Z"/><path class="cls-48" d="M585.27,326.22,676,257.91c.64-.49.72-1.59.36-3L584,324.48Z"/><path class="cls-49" d="M666.2,244.89l-90.73,68.3,2.78,3.69,92.94-70C669.15,245,667.18,244.15,666.2,244.89Z"/><polygon class="cls-49" points="577.43 315.8 578.25 316.88 671.2 246.91 670.13 246.01 577.43 315.8"/><path d="M585.27,326.22c-1.35,1-4.66-1.07-7.36-4.66s-3.8-7.35-2.44-8.37,4.66,1.06,7.37,4.66S586.64,325.19,585.27,326.22Z"/><path class="cls-2" d="M581.6,318.78c-2-2.63-4.4-4.17-5.4-3.42l-66,49.68,7.19,9.56,66-49.68C584.38,324.16,583.58,321.42,581.6,318.78Z"/><path class="cls-46" d="M517.4,374.6c1.28-1,.7-3.89-1.28-6.52s-4.63-4-5.91-3a1.63,1.63,0,0,0-.41.49l-6.56,12.24,13.54-2.91h0A1.53,1.53,0,0,0,517.4,374.6Z"/><path d="M504.21,376h0l-1,1.82,1.63-.35C507.51,376.84,505.1,374.31,504.21,376Z"/><polygon class="cls-48" points="517.9 371.66 503.24 377.77 517.22 374.73 583.97 324.48 583.52 322.27 517.9 371.66"/><polygon class="cls-48" points="583.97 324.48 583.52 322.27 582.25 319.65 516.73 368.97 503.24 377.77 517.22 374.73 583.97 324.48"/><polygon class="cls-49" points="576.38 315.23 510.21 365.04 503.24 377.77 513.54 365.6 579.55 316.58 577.89 315.45 576.38 315.23"/><polygon class="cls-49" points="579.55 316.58 513.54 365.6 508.58 371.46 512.19 364.91 577.89 315.45 579.55 316.58"/></g></g></svg>